<?xml version="1.0" encoding="utf-8"?>
<!-- Generator: Adobe Illustrator 27.5.0, SVG Export Plug-In . SVG Version: 6.00 Build 0)  -->
<svg version="1.1" id="图层_1_xA0_图像_00000023255854109534866780000001851024818564436889_"
	 xmlns="http://www.w3.org/2000/svg" xmlns:xlink="http://www.w3.org/1999/xlink" x="0px" y="0px" viewBox="0 0 300 300"
	 style="enable-background:new 0 0 300 300;" xml:space="preserve">
<style type="text/css">
	.st0{fill:none;}
</style>
<path d="M276.03,101V44h-1c0-0.74-0.11-1.46,0.02-2.13c0.36-1.93-0.76-3.33-1.59-4.84c-0.14-0.25-0.38-0.5-0.39-0.76
	c-0.22-3.71-2.91-5.8-5.4-7.88c-1.48-1.23-3.44-1.8-5.59-1.3c-0.02-0.46-0.03-0.78-0.05-1.09h-32v1h-1.9
	c-52.2,0-104.4,0-156.61,0.01c-0.59,0-1.51-0.42-1.57,0.8c-0.01,0.08-0.51,0.17-0.78,0.18c-1,0.02-2-0.05-3,0.04
	c-0.49,0.04-0.95,0.38-1.43,0.58c0.04,0.13,0.07,0.26,0.1,0.39h-4.61c0.04,0.12,0.07,0.25,0.11,0.37c-0.48,0.21-0.97,0.62-1.43,0.6
	c-2.21-0.14-3.87,0.9-5.5,2.21c-0.92,0.73-2.05,1.19-3.07,1.79c-0.57,0.33-1.19,0.6-1.65,1.04c-1.84,1.76-3.66,3.54-5.4,5.38
	c-1.45,1.54-2.49,3.29-2.27,5.54c0.07,0.79-0.05,1.59,0.02,2.38c0.19,1.92-0.55,3.46-1.72,4.91c-0.25,0.31-0.27,0.86-0.28,1.3
	c-0.02,2.46,0.02,4.91-0.03,7.37c-0.01,0.38-0.4,0.74-0.57,1.13c-0.17,0.39-0.39,0.8-0.39,1.2c-0.03,4.2-0.02,8.41-0.02,12.62
	c0,0.51,0.15,1.08-0.65,1.26c-0.19,0.04-0.33,0.69-0.33,1.06c-0.03,2.25,0.01,4.5-0.05,6.75c-0.01,0.38-0.42,0.74-0.58,1.13
	c-0.17,0.43-0.37,0.88-0.37,1.33c-0.03,4.79-0.02,9.58-0.02,14.37c0,9.21,0.01,18.42-0.01,27.63c0,0.66,0.36,1.52-0.78,1.81
	c-0.17,0.04-0.2,0.9-0.2,1.39c-0.01,10.21-0.01,20.41-0.01,30.62c0,5.5,0.02,11-0.03,16.5c0,0.47-0.4,0.93-0.6,1.39
	c-0.13,0.3-0.31,0.59-0.32,0.9c-0.05,0.83,0.07,1.67-0.04,2.49c-0.08,0.6-0.43,1.16-0.63,1.74c-0.15,0.42-0.34,0.85-0.36,1.28
	c-0.05,1.12-0.02,2.24-0.02,3.46c-0.37,0.02-0.69,0.03-1,0.05v71.75c0.33,0.27,0.73,0.49,0.97,0.83c0.47,0.65,0.74,1.47,1.28,2.04
	c1.74,1.83,3.54,3.61,5.38,5.34c0.5,0.47,1.28,0.65,1.85,1.07c0.27,0.19,0.35,0.64,0.52,0.97h7v-1c1.17,0,2.28,0.02,3.39-0.01
	c0.66-0.01,1.48,0.28,1.68-0.8c0.02-0.11,0.5-0.17,0.77-0.18c0.88-0.02,1.75,0.02,2.62-0.02c0.63-0.03,1.5,0.37,1.63-0.8
	c0.01-0.1,0.66-0.18,1.01-0.18c4.21-0.01,8.42,0,12.62-0.02c0.53,0,1.23,0.25,1.32-0.69c0.01-0.12,0.37-0.26,0.58-0.28
	c0.36-0.05,0.74-0.02,1.12-0.02c38.91,0,77.81,0,116.72-0.01c0.62,0,1.49,0.38,1.63-0.79c0.01-0.11,0.73-0.19,1.13-0.19
	c5.58-0.01,11.16-0.01,16.74-0.01c11.58,0,23.16-0.04,34.74,0.05c1.72,0.01,2.83-1.02,4.21-1.56c0.41-0.16,0.79-0.38,1.21-0.48
	c0.71-0.17,1.75,0.45,1.97-0.89c0.02-0.09,0.63-0.17,0.93-0.11c1.86,0.38,3.29-0.67,4.8-1.43c2.31-1.17,4.62-2.36,6.92-3.55
	c0.5-0.26,1.05-0.51,1.46-0.89c1.74-1.68,3.52-3.32,5.11-5.14c0.98-1.13,1.77-2.48,1.7-4.13c-0.05-1.08,0.03-2.16-0.02-3.24
	c-0.03-0.66,0.41-1.57-0.79-1.76c-0.11-0.02-0.18-0.52-0.19-0.79c-0.02-0.92,0.01-1.84-0.02-2.75c-0.02-0.56,0.28-1.32-0.74-1.41
	c-0.1-0.01-0.23-0.47-0.24-0.73c-0.03-0.92,0.02-1.83-0.02-2.75c-0.03-0.59,0.32-1.39-0.76-1.54c-0.12-0.02-0.22-0.72-0.22-1.11
	c-0.02-4.04,0-8.08-0.03-12.12c0-0.66,0.41-1.58-0.8-1.76c-0.1-0.02-0.17-0.52-0.17-0.79c-0.02-0.92,0.01-1.83-0.02-2.75
	c-0.01-0.57,0.25-1.29-0.73-1.45c-0.13-0.02-0.25-0.63-0.25-0.97c-0.02-2.58,0.02-5.17-0.04-7.75c-0.01-0.41-0.43-0.8-0.64-1.22
	c-0.13-0.26-0.3-0.55-0.31-0.83c-0.05-0.83,0.02-1.67-0.03-2.5c-0.05-0.65,0.4-1.58-0.81-1.75c-0.1-0.01-0.17-0.52-0.17-0.79
	c-0.01-12.08-0.01-24.16-0.01-36.24c0-0.21-0.03-0.54,0.07-0.6c1.63-0.96,0.68-2.54,0.92-3.82c0.11-0.59-0.21-1.24,0.68-1.66
	c0.33-0.15,0.22-1.21,0.33-1.85c0.13-0.76-0.43-1.68,0.78-2.19c0.3-0.13,0.13-1.32,0.23-2.01c0.09-0.68-0.45-1.63,0.78-1.91
	c0.14-0.03,0.2-0.68,0.2-1.04c0.02-2.25-0.01-4.5,0.03-6.75c0.01-0.36,0.34-0.71,0.51-1.08c0.16-0.36,0.41-0.71,0.44-1.08
	c0.07-0.83,0.02-1.67,0.03-2.5c0.01-0.59-0.2-1.24,0.66-1.54c0.2-0.08,0.3-0.65,0.31-1.01c0.05-0.91-0.03-1.83,0.06-2.74
	c0.04-0.39,0.43-0.73,0.57-1.13c0.18-0.47,0.38-0.97,0.38-1.45c0.03-8.71,0.02-17.42,0.02-26.12v-2.34
	C275.4,101.03,275.72,101.02,276.03,101z M254.35,99.12c-0.21,0.06-0.31,0.87-0.31,1.33c-0.01,8.33-0.01,16.67-0.01,25
	c0,0.83,0.07,1.67-0.03,2.5c-0.04,0.38-0.42,0.72-0.62,1.09c-0.14,0.27-0.31,0.56-0.33,0.84c-0.04,0.96-0.01,1.92-0.02,2.88
	c-0.01,0.54,0.21,1.2-0.69,1.34c-0.14,0.02-0.28,0.54-0.29,0.84c-0.04,0.87,0,1.75-0.03,2.62c-0.02,0.6,0.3,1.37-0.73,1.57
	c-0.14,0.03-0.24,0.65-0.25,1c-0.02,1.96,0.02,3.92-0.03,5.87c-0.01,0.34-0.37,0.67-0.56,1.01c-0.15,0.26-0.37,0.52-0.39,0.79
	c-0.06,0.74,0.04,1.5-0.06,2.24c-0.04,0.35-0.39,0.65-0.58,0.99c-0.15,0.26-0.35,0.54-0.36,0.82c-0.05,0.87,0,1.75-0.04,2.62
	c-0.03,0.63,0.36,1.48-0.77,1.65c-0.11,0.02-0.2,0.51-0.2,0.78c-0.03,0.96-0.01,1.92-0.02,2.87c0,0.56,0.15,1.15-0.7,1.36
	c-0.19,0.04-0.29,0.79-0.29,1.21c-0.02,5.17-0.01,10.34-0.01,15.5c0,7.79-0.01,15.59,0.01,23.38c0.01,0.67-0.31,1.56,0.78,1.86
	c0.13,0.03,0.19,0.49,0.2,0.75c0.03,1-0.05,2.01,0.05,3c0.03,0.41,0.43,0.77,0.61,1.18c0.16,0.33,0.33,0.7,0.34,1.06
	c0.02,2.46,0,4.92,0.02,7.37c0.01,0.63-0.2,1.39,0.76,1.63c0.13,0.03,0.21,0.48,0.22,0.74c0.03,0.92-0.01,1.84,0.02,2.75
	c0.02,0.59-0.15,1.27,0.74,1.52c0.17,0.05,0.24,0.71,0.24,1.09c0.02,4.08,0,8.17,0.02,12.25c0,0.62-0.21,1.38,0.74,1.64
	c0.14,0.04,0.23,0.48,0.24,0.73c0.03,0.87-0.07,1.76,0.04,2.62c0.07,0.56,0.45,1.08,0.64,1.63c0.2,0.58,0.35,1.17,0.58,1.96h-2.03
	c0.04,0.12,0.07,0.24,0.11,0.37c-0.48,0.21-1.03,0.69-1.43,0.58c-1.76-0.45-3.3,0.52-4.4,1.32c-1.12,0.8-2.08,0.71-3.12,0.71
	c-16.38,0.03-32.75,0.02-49.13,0.02c-0.66,0.01-1.59-0.33-1.28,1H72.22c0.03,0.13,0.07,0.26,0.1,0.39c-0.48,0.2-0.95,0.58-1.43,0.58
	c-4.29,0.05-8.58,0.02-12.87,0.05c-0.41,0.01-0.81,0.34-1.21,0.52c0.04,0.13,0.07,0.27,0.11,0.4h-3.83c-0.02-0.4-0.06-0.8-0.06-1.19
	v-54.38c0-0.58-0.2-1.23,0.65-1.54c0.22-0.08,0.31-0.73,0.33-1.13c0.05-0.87-0.04-1.75,0.05-2.62c0.04-0.4,0.38-0.76,0.56-1.16
	c0.15-0.32,0.35-0.66,0.38-1c0.06-0.79,0-1.58,0.04-2.37c0.03-0.64-0.32-1.42,0.72-1.74c0.21-0.07,0.26-0.91,0.26-1.39
	c0.02-3.5,0.01-7,0.01-10.5c0-12.12,0-24.25,0.01-36.37c0-0.65-0.3-1.41,0.71-1.75c0.23-0.07,0.27-0.91,0.27-1.39
	c0.02-4.42,0.01-8.83,0.01-13.25c0-9.63,0-19.25,0.01-28.88c0-0.53-0.21-1.14,0.62-1.42c0.23-0.07,0.35-0.79,0.35-1.21
	c0.04-2.21,0-4.42,0.04-6.63c0.01-0.35,0.37-0.69,0.52-1.06c0.18-0.47,0.43-0.96,0.44-1.45c0.03-4.08,0.02-8.16,0.02-12.25
	c0-0.54-0.16-1.12,0.64-1.41c0.25-0.09,0.34-0.88,0.34-1.35c0.03-3.37-0.02-6.75,0.06-10.12c0.01-0.61,0.35-1.45,0.82-1.75
	c1.37-0.89,2.72-1.95,4.58-1.66c0.58,0.09,1.49,0.4,1.62-0.77c0.01-0.09,0.49-0.18,0.76-0.19c0.92-0.02,1.83,0.02,2.75-0.02
	c0.59-0.02,1.42,0.32,1.49-0.78c0-0.08,0.33-0.18,0.52-0.2c0.41-0.03,0.83-0.01,1.25-0.01c51.99,0,103.99,0,155.99-0.03
	c0.79,0,2,0.67,2.31-0.86c0.01-0.07,0.37-0.1,0.58-0.1C240.11,47,247.48,47,255.03,47v1.38c0,16.41,0,32.83-0.01,49.24
	C255.02,98.19,255.29,98.87,254.35,99.12z"/>
<path class="st0" d="M276.03,101v173h-227v-1c1.17,0,2.28,0.02,3.39-0.01c0.66-0.01,1.48,0.28,1.68-0.8
	c0.02-0.11,0.5-0.17,0.77-0.18c0.88-0.02,1.75,0.02,2.62-0.02c0.63-0.03,1.5,0.37,1.63-0.8c0.01-0.1,0.66-0.18,1.01-0.18
	c4.21-0.01,8.42,0,12.62-0.02c0.53,0,1.23,0.25,1.32-0.69c0.01-0.12,0.37-0.26,0.58-0.28c0.36-0.05,0.74-0.02,1.12-0.02
	c38.91,0,77.81,0,116.72-0.01c0.62,0,1.49,0.38,1.63-0.79c0.01-0.11,0.73-0.19,1.13-0.19c5.58-0.01,11.16-0.01,16.74-0.01
	c11.58,0,23.16-0.04,34.74,0.05c1.72,0.01,2.83-1.02,4.21-1.56c0.41-0.16,0.79-0.38,1.21-0.48c0.71-0.17,1.75,0.45,1.97-0.89
	c0.02-0.09,0.63-0.17,0.93-0.11c1.86,0.38,3.29-0.67,4.8-1.43c2.31-1.17,4.62-2.36,6.92-3.55c0.5-0.26,1.05-0.51,1.46-0.89
	c1.74-1.68,3.52-3.32,5.11-5.14c0.98-1.13,1.77-2.48,1.7-4.13c-0.05-1.08,0.03-2.16-0.02-3.24c-0.03-0.66,0.41-1.57-0.79-1.76
	c-0.11-0.02-0.18-0.52-0.19-0.79c-0.02-0.92,0.01-1.84-0.02-2.75c-0.02-0.56,0.28-1.32-0.74-1.41c-0.1-0.01-0.23-0.47-0.24-0.73
	c-0.03-0.92,0.02-1.83-0.02-2.75c-0.03-0.59,0.32-1.39-0.76-1.54c-0.12-0.02-0.22-0.72-0.22-1.11c-0.02-4.04,0-8.08-0.03-12.12
	c0-0.66,0.41-1.58-0.8-1.76c-0.1-0.02-0.17-0.52-0.17-0.79c-0.02-0.92,0.01-1.83-0.02-2.75c-0.01-0.57,0.25-1.29-0.73-1.45
	c-0.13-0.02-0.25-0.63-0.25-0.97c-0.02-2.58,0.02-5.17-0.04-7.75c-0.01-0.41-0.43-0.8-0.64-1.22c-0.13-0.26-0.3-0.55-0.31-0.83
	c-0.05-0.83,0.02-1.67-0.03-2.5c-0.05-0.65,0.4-1.58-0.81-1.75c-0.1-0.01-0.17-0.52-0.17-0.79c-0.01-12.08-0.01-24.16-0.01-36.24
	c0-0.21-0.03-0.54,0.07-0.6c1.63-0.96,0.68-2.54,0.92-3.82c0.11-0.59-0.21-1.24,0.68-1.66c0.33-0.15,0.22-1.21,0.33-1.85
	c0.13-0.76-0.43-1.68,0.78-2.19c0.3-0.13,0.13-1.32,0.23-2.01c0.09-0.68-0.45-1.63,0.78-1.91c0.14-0.03,0.2-0.68,0.2-1.04
	c0.02-2.25-0.01-4.5,0.03-6.75c0.01-0.36,0.34-0.71,0.51-1.08c0.16-0.36,0.41-0.71,0.44-1.08c0.07-0.83,0.02-1.67,0.03-2.5
	c0.01-0.59-0.2-1.24,0.66-1.54c0.2-0.08,0.3-0.65,0.31-1.01c0.05-0.91-0.03-1.83,0.06-2.74c0.04-0.39,0.43-0.73,0.57-1.13
	c0.18-0.47,0.38-0.97,0.38-1.45c0.03-8.71,0.02-17.42,0.02-26.12v-2.34C275.4,101.03,275.72,101.02,276.03,101z"/>
<path class="st0" d="M230.03,26v1h-1.9c-52.2,0-104.4,0-156.61,0.01c-0.59,0-1.51-0.42-1.57,0.8c-0.01,0.08-0.51,0.17-0.78,0.18
	c-1,0.02-2-0.05-3,0.04c-0.49,0.04-0.95,0.38-1.43,0.58c0.04,0.13,0.07,0.26,0.1,0.39h-4.61c0.04,0.12,0.07,0.25,0.11,0.37
	c-0.48,0.21-0.97,0.62-1.43,0.6c-2.21-0.14-3.87,0.9-5.5,2.21c-0.92,0.73-2.05,1.19-3.07,1.79c-0.57,0.33-1.19,0.6-1.65,1.04
	c-1.84,1.76-3.66,3.54-5.4,5.38c-1.45,1.54-2.49,3.29-2.27,5.54c0.07,0.79-0.05,1.59,0.02,2.38c0.19,1.92-0.55,3.46-1.72,4.91
	c-0.25,0.31-0.27,0.86-0.28,1.3c-0.02,2.46,0.02,4.91-0.03,7.37c-0.01,0.38-0.4,0.74-0.57,1.13c-0.17,0.39-0.39,0.8-0.39,1.2
	c-0.03,4.2-0.02,8.41-0.02,12.62c0,0.51,0.15,1.08-0.65,1.26c-0.19,0.04-0.33,0.69-0.33,1.06c-0.03,2.25,0.01,4.5-0.05,6.75
	c-0.01,0.38-0.42,0.74-0.58,1.13c-0.17,0.43-0.37,0.88-0.37,1.33c-0.03,4.79-0.02,9.58-0.02,14.37c0,9.21,0.01,18.42-0.01,27.63
	c0,0.66,0.36,1.52-0.78,1.81c-0.17,0.04-0.2,0.9-0.2,1.39c-0.01,10.21-0.01,20.41-0.01,30.62c0,5.5,0.02,11-0.03,16.5
	c0,0.47-0.4,0.93-0.6,1.39c-0.13,0.3-0.31,0.59-0.32,0.9c-0.05,0.83,0.07,1.67-0.04,2.49c-0.08,0.6-0.43,1.16-0.63,1.74
	c-0.15,0.42-0.34,0.85-0.36,1.28c-0.05,1.12-0.02,2.24-0.02,3.46c-0.37,0.02-0.69,0.03-1,0.05V26H230.03z"/>
<path class="st0" d="M276.03,26v18h-1c0-0.74-0.11-1.46,0.02-2.13c0.36-1.93-0.76-3.33-1.59-4.84c-0.14-0.25-0.38-0.5-0.39-0.76
	c-0.22-3.71-2.91-5.8-5.4-7.88c-1.48-1.23-3.44-1.8-5.59-1.3c-0.02-0.46-0.03-0.78-0.05-1.09H276.03z"/>
<path class="st0" d="M42.03,274h-10v-10.25c0.33,0.27,0.73,0.49,0.97,0.83c0.47,0.65,0.74,1.47,1.28,2.04
	c1.74,1.83,3.54,3.61,5.38,5.34c0.5,0.47,1.28,0.65,1.85,1.07C41.78,273.22,41.86,273.67,42.03,274z"/>
<path class="st0" d="M255.02,97.62c0.01-16.41,0.01-32.83,0.01-49.24V47c-7.55,0-14.92,0-22.29,0.01c-0.21,0-0.57,0.03-0.58,0.1
	c-0.31,1.53-1.52,0.86-2.31,0.86C177.85,48,125.85,48,73.86,48c-0.42,0-0.84-0.02-1.25,0.01c-0.19,0.02-0.52,0.12-0.52,0.2
	c-0.07,1.1-0.9,0.76-1.49,0.78c-0.92,0.04-1.83,0-2.75,0.02c-0.27,0.01-0.75,0.1-0.76,0.19c-0.13,1.17-1.04,0.86-1.62,0.77
	c-1.86-0.29-3.21,0.77-4.58,1.66c-0.47,0.3-0.81,1.14-0.82,1.75c-0.08,3.37-0.03,6.75-0.06,10.12c0,0.47-0.09,1.26-0.34,1.35
	c-0.8,0.29-0.64,0.87-0.64,1.41c0,4.09,0.01,8.17-0.02,12.25C59,79,58.75,79.49,58.57,79.96c-0.15,0.37-0.51,0.71-0.52,1.06
	c-0.04,2.21,0,4.42-0.04,6.63c0,0.42-0.12,1.14-0.35,1.21c-0.83,0.28-0.62,0.89-0.62,1.42c-0.01,9.63-0.01,19.25-0.01,28.88
	c0,4.42,0.01,8.83-0.01,13.25c0,0.48-0.04,1.32-0.27,1.39c-1.01,0.34-0.71,1.1-0.71,1.75c-0.01,12.12-0.01,24.25-0.01,36.37
	c0,3.5,0.01,7-0.01,10.5c0,0.48-0.05,1.32-0.26,1.39c-1.04,0.32-0.69,1.1-0.72,1.74c-0.04,0.79,0.02,1.58-0.04,2.37
	c-0.03,0.34-0.23,0.68-0.38,1c-0.18,0.4-0.52,0.76-0.56,1.16c-0.09,0.87,0,1.75-0.05,2.62c-0.02,0.4-0.11,1.05-0.33,1.13
	c-0.85,0.31-0.65,0.96-0.65,1.54v54.38c0,0.39,0.04,0.79,0.06,1.19h3.83c-0.04-0.13-0.07-0.27-0.11-0.4c0.4-0.18,0.8-0.51,1.21-0.52
	c4.29-0.03,8.58,0,12.87-0.05c0.48,0,0.95-0.38,1.43-0.58c-0.03-0.13-0.07-0.26-0.1-0.39H192c-0.31-1.33,0.62-0.99,1.28-1
	c16.38,0,32.75,0.01,49.13-0.02c1.04,0,2,0.09,3.12-0.71c1.1-0.8,2.64-1.77,4.4-1.32c0.4,0.11,0.95-0.37,1.43-0.58
	c-0.04-0.13-0.07-0.25-0.11-0.37h2.03c-0.23-0.79-0.38-1.38-0.58-1.96c-0.19-0.55-0.57-1.07-0.64-1.63
	c-0.11-0.86-0.01-1.75-0.04-2.62c-0.01-0.25-0.1-0.69-0.24-0.73c-0.95-0.26-0.74-1.02-0.74-1.64c-0.02-4.08,0-8.17-0.02-12.25
	c0-0.38-0.07-1.04-0.24-1.09c-0.89-0.25-0.72-0.93-0.74-1.52c-0.03-0.91,0.01-1.83-0.02-2.75c-0.01-0.26-0.09-0.71-0.22-0.74
	c-0.96-0.24-0.75-1-0.76-1.63c-0.02-2.45,0-4.91-0.02-7.37c-0.01-0.36-0.18-0.73-0.34-1.06c-0.18-0.41-0.58-0.77-0.61-1.18
	c-0.1-0.99-0.02-2-0.05-3c-0.01-0.26-0.07-0.72-0.2-0.75c-1.09-0.3-0.77-1.19-0.78-1.86c-0.02-7.79-0.01-15.59-0.01-23.38
	c0-5.16-0.01-10.33,0.01-15.5c0-0.42,0.1-1.17,0.29-1.21c0.85-0.21,0.7-0.8,0.7-1.36c0.01-0.95-0.01-1.91,0.02-2.87
	c0-0.27,0.09-0.76,0.2-0.78c1.13-0.17,0.74-1.02,0.77-1.65c0.04-0.87-0.01-1.75,0.04-2.62c0.01-0.28,0.21-0.56,0.36-0.82
	c0.19-0.34,0.54-0.64,0.58-0.99c0.1-0.74,0-1.5,0.06-2.24c0.02-0.27,0.24-0.53,0.39-0.79c0.19-0.34,0.55-0.67,0.56-1.01
	c0.05-1.95,0.01-3.91,0.03-5.87c0.01-0.35,0.11-0.97,0.25-1c1.03-0.2,0.71-0.97,0.73-1.57c0.03-0.87-0.01-1.75,0.03-2.62
	c0.01-0.3,0.15-0.82,0.29-0.84c0.9-0.14,0.68-0.8,0.69-1.34c0.01-0.96-0.02-1.92,0.02-2.88c0.02-0.28,0.19-0.57,0.33-0.84
	c0.2-0.37,0.58-0.71,0.62-1.09c0.1-0.83,0.03-1.67,0.03-2.5c0-8.33,0-16.67,0.01-25c0-0.46,0.1-1.27,0.31-1.33
	C255.29,98.87,255.02,98.19,255.02,97.62z M204.4,130.05c0.82,1.2,1.78,2.47,1.64,4.14c-0.15,1.88,0.33,3.8-0.88,5.55
	c-1.49,2.17-3.26,3.93-5.49,5.4c-1.67,1.11-3.3,0.77-4.97,0.84c-1.83,0.08-3.66,0.02-5.49,0.02c0.03,0.12,0.06,0.24,0.09,0.37
	c-0.49,0.21-0.98,0.6-1.48,0.6c-4.54,0.05-9.07,0.03-13.61,0.03c0.03,0.12,0.06,0.24,0.09,0.37c-0.49,0.21-0.98,0.6-1.48,0.6
	c-4.53,0.05-9.07,0.03-13.61,0.03c0.03,0.12,0.06,0.25,0.09,0.37c-0.49,0.21-0.97,0.56-1.48,0.6c-1.2,0.09-2.41,0.03-3.61,0.03
	c0.03,0.12,0.06,0.24,0.09,0.37c-0.49,0.21-0.98,0.59-1.48,0.6c-2.87,0.06-5.74,0.03-8.61,0.03c0.03,0.12,0.06,0.25,0.09,0.37
	c-0.49,0.21-0.97,0.56-1.48,0.6c-1.2,0.09-2.41,0.03-3.61,0.03c0.03,0.12,0.06,0.24,0.09,0.37c-0.49,0.21-0.98,0.59-1.47,0.6
	c-2.87,0.06-5.75,0.03-8.62,0.03c0.03,0.14,0.06,0.28,0.08,0.42c-0.53,0.19-1.06,0.55-1.59,0.55c-6.08,0.04-12.16-0.02-18.24,0.06
	c-1.85,0.02-3.24-0.85-4.56-1.85c-1.09-0.81-2.1-1.8-2.94-2.88c-1.08-1.37-2.14-2.82-1.94-4.76c0.06-0.61,0.07-1.25,0-1.87
	c-0.22-2.04,0.86-3.57,2.02-5.01c0.84-1.03,1.79-2.01,2.84-2.81c1.3-1,2.68-1.89,4.5-1.87c5.49,0.06,10.99,0.03,16.49-0.01
	c0.48,0,0.95-0.36,1.42-0.56c-0.03-0.13-0.06-0.26-0.09-0.39h9.61c-0.04-0.13-0.08-0.25-0.11-0.37c0.47-0.22,0.94-0.57,1.43-0.62
	c0.91-0.1,1.84,0.04,2.75-0.06c0.49-0.05,0.95-0.37,1.43-0.57c-0.04-0.13-0.07-0.26-0.1-0.39h9.61c-0.04-0.12-0.08-0.25-0.11-0.37
	c0.47-0.21,0.94-0.56,1.43-0.61c0.91-0.1,1.84,0.04,2.75-0.06c0.49-0.05,0.95-0.38,1.43-0.58c-0.04-0.13-0.07-0.26-0.1-0.38h14.6
	c-0.03-0.13-0.07-0.25-0.1-0.38c0.47-0.21,0.95-0.6,1.43-0.6c4.25-0.05,8.49-0.01,12.74-0.06c0.48,0,0.95-0.38,1.43-0.58
	c-0.03-0.13-0.07-0.26-0.1-0.39c3.5,0,7-0.12,10.48,0.07c1.13,0.07,2.33,0.81,3.27,1.54C202.25,127.6,203.49,128.73,204.4,130.05z
	 M89.26,100.64c-1.34-1.53-2.46-3.19-2.24-5.4c0.06-0.53,0.06-1.09,0-1.62c-0.22-2,0.84-3.5,1.98-4.91
	c0.88-1.09,1.87-2.17,3.01-2.98c1.26-0.89,2.55-1.76,4.3-1.76c25.45,0.04,50.91,0.03,76.36,0.03c0.66,0,1.51,0.27,1.42-1
	c5.28,0,10.41-0.09,15.53,0.07c1.15,0.04,2.4,0.83,3.38,1.57c1.25,0.95,2.43,2.08,3.34,3.35c0.86,1.19,1.82,2.46,1.69,4.12
	c-0.02,0.33-0.02,0.66,0,1c0.1,1.72,0.08,3.43-0.99,4.89c-1.46,2.01-3.18,3.7-5.3,5.12c-1.81,1.2-3.63,0.81-5.46,0.86
	c-3.08,0.08-6.17,0.02-9.25,0.02c-0.47,0-1.03-0.14-1.08,0.64c-0.01,0.13-0.35,0.31-0.55,0.34c-0.37,0.06-0.75,0.02-1.12,0.02
	c-25.96,0-51.92-0.01-77.87,0.03c-1.8,0-3.15-0.84-4.46-1.79C90.95,102.51,90.07,101.58,89.26,100.64z M208.98,198.13
	c-1.47,1.93-3.16,3.62-5.26,5c-1.78,1.16-3.55,0.84-5.34,0.85c-21.32,0.03-42.65,0.02-63.97,0.03c-0.57,0-1.39-0.36-1.52,0.74
	c-0.01,0.13-0.72,0.24-1.11,0.24c-4.12,0.02-8.25,0-12.37,0.02c-0.57,0.01-1.4-0.36-1.5,0.75c-0.01,0.1-0.49,0.23-0.76,0.23
	c-4.91,0.01-9.83,0.12-14.74-0.07c-1.18-0.05-2.41-0.95-3.45-1.69c-1.01-0.71-1.88-1.65-2.7-2.59c-1.34-1.53-2.46-3.19-2.24-5.39
	c0.06-0.54,0.06-1.09,0-1.63c-0.22-1.99,0.84-3.49,1.97-4.9c0.89-1.1,1.88-2.17,3.01-2.99c1.26-0.9,2.56-1.79,4.3-1.76
	c3.91,0.09,7.83,0.05,11.75,0.01c0.4-0.01,0.8-0.34,1.2-0.52v-0.47h14.6c-0.03-0.13-0.07-0.26-0.1-0.39
	c0.48-0.2,0.95-0.57,1.43-0.57c22.99-0.03,45.98-0.06,68.97,0.04c1.3,0,2.74,0.81,3.87,1.6c1.27,0.9,2.43,2.07,3.34,3.34
	c0.86,1.19,1.82,2.47,1.67,4.12c-0.03,0.38-0.03,0.76,0,1.13C210.18,194.99,210.06,196.73,208.98,198.13z"/>
<path d="M208.98,198.13c-1.47,1.93-3.16,3.62-5.26,5c-1.78,1.16-3.55,0.84-5.34,0.85c-21.32,0.03-42.65,0.02-63.97,0.03
	c-0.57,0-1.39-0.36-1.52,0.74c-0.01,0.13-0.72,0.24-1.11,0.24c-4.12,0.02-8.25,0-12.37,0.02c-0.57,0.01-1.4-0.36-1.5,0.75
	c-0.01,0.1-0.49,0.23-0.76,0.23c-4.91,0.01-9.83,0.12-14.74-0.07c-1.18-0.05-2.41-0.95-3.45-1.69c-1.01-0.71-1.88-1.65-2.7-2.59
	c-1.34-1.53-2.46-3.19-2.24-5.39c0.06-0.54,0.06-1.09,0-1.63c-0.22-1.99,0.84-3.49,1.97-4.9c0.89-1.1,1.88-2.17,3.01-2.99
	c1.26-0.9,2.56-1.79,4.3-1.76c3.91,0.09,7.83,0.05,11.75,0.01c0.4-0.01,0.8-0.34,1.2-0.52v-0.47h14.6c-0.03-0.13-0.07-0.26-0.1-0.39
	c0.48-0.2,0.95-0.57,1.43-0.57c22.99-0.03,45.98-0.06,68.97,0.04c1.3,0,2.74,0.81,3.87,1.6c1.27,0.9,2.43,2.07,3.34,3.34
	c0.86,1.19,1.82,2.47,1.67,4.12c-0.03,0.38-0.03,0.76,0,1.13C210.18,194.99,210.06,196.73,208.98,198.13z"/>
<path d="M197.04,98c-1.46,2.01-3.18,3.7-5.3,5.12c-1.81,1.2-3.63,0.81-5.46,0.86c-3.08,0.08-6.17,0.02-9.25,0.02
	c-0.47,0-1.03-0.14-1.08,0.64c-0.01,0.13-0.35,0.31-0.55,0.34c-0.37,0.06-0.75,0.02-1.12,0.02c-25.96,0-51.92-0.01-77.87,0.03
	c-1.8,0-3.15-0.84-4.46-1.79c-1-0.73-1.88-1.66-2.69-2.6c-1.34-1.53-2.46-3.19-2.24-5.4c0.06-0.53,0.06-1.09,0-1.62
	c-0.22-2,0.84-3.5,1.98-4.91c0.88-1.09,1.87-2.17,3.01-2.98c1.26-0.89,2.55-1.76,4.3-1.76c25.45,0.04,50.91,0.03,76.36,0.03
	c0.66,0,1.51,0.27,1.42-1c5.28,0,10.41-0.09,15.53,0.07c1.15,0.04,2.4,0.83,3.38,1.57c1.25,0.95,2.43,2.08,3.34,3.35
	c0.86,1.19,1.82,2.46,1.69,4.12c-0.02,0.33-0.02,0.66,0,1C198.13,94.83,198.11,96.54,197.04,98z"/>
<path d="M206.04,134.19c-0.15,1.88,0.33,3.8-0.88,5.55c-1.49,2.17-3.26,3.93-5.49,5.4c-1.67,1.11-3.3,0.77-4.97,0.84
	c-1.83,0.08-3.66,0.02-5.49,0.02c0.03,0.12,0.06,0.24,0.09,0.37c-0.49,0.21-0.98,0.6-1.48,0.6c-4.54,0.05-9.07,0.03-13.61,0.03
	c0.03,0.12,0.06,0.24,0.09,0.37c-0.49,0.21-0.98,0.6-1.48,0.6c-4.53,0.05-9.07,0.03-13.61,0.03c0.03,0.12,0.06,0.25,0.09,0.37
	c-0.49,0.21-0.97,0.56-1.48,0.6c-1.2,0.09-2.41,0.03-3.61,0.03c0.03,0.12,0.06,0.24,0.09,0.37c-0.49,0.21-0.98,0.59-1.48,0.6
	c-2.87,0.06-5.74,0.03-8.61,0.03c0.03,0.12,0.06,0.25,0.09,0.37c-0.49,0.21-0.97,0.56-1.48,0.6c-1.2,0.09-2.41,0.03-3.61,0.03
	c0.03,0.12,0.06,0.24,0.09,0.37c-0.49,0.21-0.98,0.59-1.47,0.6c-2.87,0.06-5.75,0.03-8.62,0.03c0.03,0.14,0.06,0.28,0.08,0.42
	c-0.53,0.19-1.06,0.55-1.59,0.55c-6.08,0.04-12.16-0.02-18.24,0.06c-1.85,0.02-3.24-0.85-4.56-1.85c-1.09-0.81-2.1-1.8-2.94-2.88
	c-1.08-1.37-2.14-2.82-1.94-4.76c0.06-0.61,0.07-1.25,0-1.87c-0.22-2.04,0.86-3.57,2.02-5.01c0.84-1.03,1.79-2.01,2.84-2.81
	c1.3-1,2.68-1.89,4.5-1.87c5.49,0.06,10.99,0.03,16.49-0.01c0.48,0,0.95-0.36,1.42-0.56c-0.03-0.13-0.06-0.26-0.09-0.39h9.61
	c-0.04-0.13-0.08-0.25-0.11-0.37c0.47-0.22,0.94-0.57,1.43-0.62c0.91-0.1,1.84,0.04,2.75-0.06c0.49-0.05,0.95-0.37,1.43-0.57
	c-0.04-0.13-0.07-0.26-0.1-0.39h9.61c-0.04-0.12-0.08-0.25-0.11-0.37c0.47-0.21,0.94-0.56,1.43-0.61c0.91-0.1,1.84,0.04,2.75-0.06
	c0.49-0.05,0.95-0.38,1.43-0.58c-0.04-0.13-0.07-0.26-0.1-0.38h14.6c-0.03-0.13-0.07-0.25-0.1-0.38c0.47-0.21,0.95-0.6,1.43-0.6
	c4.25-0.05,8.49-0.01,12.74-0.06c0.48,0,0.95-0.38,1.43-0.58c-0.03-0.13-0.07-0.26-0.1-0.39c3.5,0,7-0.12,10.48,0.07
	c1.13,0.07,2.33,0.81,3.27,1.54c1.28,0.99,2.52,2.12,3.43,3.44C205.22,131.25,206.18,132.52,206.04,134.19z"/>
</svg>
