<?xml version="1.0" encoding="utf-8"?>
<!-- Generator: Adobe Illustrator 27.5.0, SVG Export Plug-In . SVG Version: 6.00 Build 0)  -->
<svg version="1.1" id="图层_1" xmlns="http://www.w3.org/2000/svg" xmlns:xlink="http://www.w3.org/1999/xlink" x="0px" y="0px"
	 viewBox="0 0 300 300" style="enable-background:new 0 0 300 300;" xml:space="preserve">
<style type="text/css">
	.st0{fill:none;}
</style>
<path d="M133.5,37C80.2,37,37,80.2,37,133.5S80.2,230,133.5,230c23.34,0,44.74-8.28,61.43-22.07c4.73-3.91,9.09-8.27,13-13
	C221.72,178.24,230,156.84,230,133.5C230,80.2,186.8,37,133.5,37z M133.5,212C90.15,212,55,176.85,55,133.5
	C55,90.15,90.15,55,133.5,55S212,90.15,212,133.5C212,176.85,176.85,212,133.5,212z"/>
<circle class="st0" cx="133.5" cy="133.5" r="78.5"/>
<rect x="181.47" y="214.47" transform="matrix(-0.7071 -0.7071 0.7071 -0.7071 223.6633 539.971)" width="84.39" height="18.38"/>
</svg>
