<?xml version="1.0" encoding="utf-8"?>
<!-- Generator: Adobe Illustrator 27.5.0, SVG Export Plug-In . SVG Version: 6.00 Build 0)  -->
<svg version="1.1" id="图层_1_xA0_图像_00000064350566272401803410000011749484295330718122_"
	 xmlns="http://www.w3.org/2000/svg" xmlns:xlink="http://www.w3.org/1999/xlink" x="0px" y="0px" viewBox="0 0 300 300"
	 style="enable-background:new 0 0 300 300;" xml:space="preserve">
<style type="text/css">
	.st0{fill:none;}
	.st1{fill:#020202;}
</style>
<g>
	<path class="st0" d="M255.7,22.58v202.17c-0.6,0.06-1.07,0-1.02-0.82c0.02-0.3-0.08-0.73-0.29-0.9c-1.73-1.44-2.88-3.52-5.13-4.42
		c-0.65-0.27-1.08-1.15-1.57-1.79c-0.24-0.32-0.32-0.77-0.58-1.06c-0.88-0.93-1.76-1.89-2.73-2.72c-1.65-1.4-3.42-2.66-5.06-4.06
		c-2.6-2.2-5.14-4.47-7.7-6.71c-0.12-0.11-0.29-0.17-0.42-0.26c-1.87-1.29-3.74-2.56-5.59-3.87c-1.07-0.76-2.02-1.71-3.14-2.34
		c-2.12-1.2-4.45-2.08-6.48-3.4c-1.72-1.12-3.23-2.5-5.43-2.56c-0.22,0-0.43-0.21-0.64-0.33c-1.53-0.83-2.95-1.93-4.87-1.63
		c-0.34,0.05-1-0.05-1.02-0.16c-0.18-1.21-1.11-0.69-1.75-0.82c-0.4-0.08-0.83-0.1-1.18-0.27c-1.4-0.71-2.63-1.83-4.36-1.75
		c-0.22,0.01-0.47-0.15-0.67-0.28c-1.6-1.01-3.18-2.01-5.22-1.71c-0.26,0.04-0.59-0.22-0.87-0.38c-0.3-0.18-0.57-0.52-0.89-0.56
		c-0.73-0.08-1.49-0.01-2.23-0.04c-0.28-0.01-0.77-0.09-0.78-0.17c-0.11-1.17-1-0.67-1.6-0.82c-1.25-0.33-2.86,0.84-3.78-0.92
		c-0.06-0.12-0.47-0.06-0.72-0.07c-0.74,0-1.49,0.03-2.24-0.02c-0.23-0.01-0.47-0.19-0.69-0.32c-0.37-0.21-0.71-0.56-1.1-0.63
		c-0.58-0.1-1.2-0.02-1.81-0.02v-17.93c0.92,0,1.75,0.01,2.58-0.01c0.32-0.01,0.67-0.04,0.95-0.18c1.2-0.6,2.39-1.21,3.55-1.88
		c1.19-0.7,2.31-1.54,3.52-2.22c1.11-0.63,2.3-1.59,3.45-1.58c1.69,0.01,3.05-0.6,4.28-1.4c1.92-1.25,3.74-2.7,5.39-4.29
		c1.58-1.51,3.32-2.63,5.3-3.52c1.39-0.64,2.66-1.61,3.85-2.6c3.28-2.74,5.72-6.25,8.47-9.47c0.21-0.24,0.27-0.59,0.44-0.87
		c0.78-1.29,1.58-2.57,2.37-3.86c0.21-0.35,0.39-0.72,0.6-1.07c1.22-2.06,2.28-4.26,3.73-6.15c1.31-1.7,2.36-3.35,2.22-5.57
		c-0.02-0.35,0.05-1.01,0.17-1.03c1.16-0.22,0.74-1.12,0.81-1.78c0.07-0.69-0.2-1.85,0.12-2.02c1.47-0.82,0.66-2.11,0.88-3.16
		c0.08-0.35,0.08-1,0.19-1.02c1.12-0.18,0.71-1.03,0.81-1.66c0.07-0.4,0-0.9,0.22-1.18c1.42-1.81,2.01-3.82,1.79-6.1
		c-0.04-0.34,0.03-0.95,0.2-1.01c0.95-0.33,0.74-1.1,0.77-1.76c0.04-0.83-0.01-1.66,0.02-2.49c0.01-0.26,0.1-0.72,0.23-0.75
		c0.89-0.21,0.74-0.91,0.74-1.49c0.02-4.36,0.02-8.72,0-13.07c0-0.36-0.05-0.76-0.21-1.08c-1.3-2.56-2.61-5.11-3.94-7.65
		c-0.51-0.98-0.96-2.02-1.63-2.88c-1.24-1.6-2.46-3.16-2.19-5.37c0.04-0.31-0.04-0.69-0.21-0.95c-1.39-2.13-2.65-4.38-4.28-6.31
		c-1.09-1.3-1.77-2.74-2.55-4.18c-1.29-2.36-2.06-5.06-4.34-6.81c-0.19-0.14-0.33-0.36-0.47-0.57c-1.2-1.81-2.23-3.77-3.63-5.41
		c-1.85-2.15-3.84-4.18-6.68-5.18c-1.7-0.6-3.34-1.5-4.82-2.53c-1.59-1.11-3.06-2.32-5.12-2.38c-0.28-0.01-0.54-0.34-0.83-0.46
		c-1.45-0.62-2.71-1.65-4.47-1.53c-2.06,0.15-4.14,0.05-6.22,0.02c-0.38,0-1.01-0.09-1.08-0.3c-0.3-0.86-0.97-0.67-1.55-0.67
		c-8.09-0.01-16.18-0.02-24.27,0.02c-0.48,0-0.97,0.39-1.45,0.6c0.03,0.12,0.06,0.25,0.1,0.37h-4.59c0.03,0.13,0.06,0.26,0.1,0.39
		c-0.48,0.2-0.95,0.56-1.43,0.58c-2.24,0.06-4.48-0.01-6.72,0.05c-0.48,0.02-0.95,0.4-1.42,0.61c0.03,0.12,0.07,0.24,0.1,0.36
		c-0.74,0-1.51-0.12-2.22,0.04c-0.71,0.15-1.32,0.77-2.02,0.88c-1.32,0.21-2.27,1.61-3.78,1.13c-0.09-0.03-0.22,0.1-0.33,0.15
		c-2.51,1.3-5.04,2.57-7.53,3.89c-1.12,0.6-2.32,1.15-3.24,1.99c-2.14,1.96-4.14,4.07-6.19,6.13c-0.4,0.41-0.76,0.87-1.1,1.34
		c-1.51,2.09-3.01,4.19-4.52,6.28c-0.64,0.9-1.31,1.78-1.9,2.71c-0.46,0.72-0.69,1.62-1.23,2.27c-1.51,1.85-2.89,3.69-2.57,6.28
		c0.03,0.26-0.2,0.66-0.43,0.83c-2.17,1.66-3.06,4.16-4.28,6.44c-0.49,0.92-1.19,1.91-1.2,2.87c-0.09,8.09-0.06,16.19-0.04,24.28
		c0,0.37,0.22,0.75,0.37,1.12c0.18,0.42,0.57,0.82,0.58,1.23c0.06,2.16,0.01,4.32,0.05,6.47c0.01,0.42,0.2,0.85,0.36,1.25
		c0.18,0.43,0.53,0.81,0.59,1.24c0.1,0.73,0.01,1.49,0.03,2.24c0.01,0.41-0.06,1.07,0.15,1.19c1.41,0.79,0.71,2.09,0.82,3.16
		c0.09,0.9,0.03,1.73,0.76,2.51c0.61,0.65,1.19,1.65,1.17,2.48c-0.04,1.64,1.01,2.75,1.51,4.11c0.79,2.12,2.58,3.82,2.64,6.26
		c0,0.29,0.3,0.57,0.45,0.86c0.48,0.93,1.28,1.84,1.38,2.81c0.22,2.12,1.26,3.67,2.66,5.12c0.82,0.86,1.81,1.67,2.32,2.7
		c0.83,1.67,1.54,3.36,2.98,4.63c0.42,0.38,0.77,0.87,1.04,1.37c1.24,2.27,3.02,4,5.25,5.26c1.54,0.87,3.22,1.49,4.37,2.94
		c0.44,0.55,0.99,1.01,1.48,1.51c1.62,1.67,3.49,2.71,5.9,2.5c0.3-0.02,0.62,0.05,0.93,0.09c-0.09,0.08-0.17,0.16-0.25,0.24
		c0.41,0.67,0.75,1.39,1.24,1.98c0.61,0.73,1.35,1.35,2.01,2.04c1.72,1.82,3.76,2.8,6.34,2.64c1.69-0.11,3.41,0.06,5.1-0.06
		c0.91-0.06,2.21,0.72,2.67-0.87c0.01-0.06,0.22-0.08,0.34-0.08c0.81-0.01,1.62-0.01,2.52-0.01c0,4.11,0.01,8.05-0.03,11.99
		c0,0.36-0.2,0.87-0.48,1.05c-0.7,0.45-1.82,0.54-2.17,1.14c-0.62,1.04-1.43,0.62-2.19,0.78c-0.51,0.11-0.97,0.41-1.45,0.62
		c0.04,0.12,0.07,0.24,0.1,0.35c-0.87,0-1.76,0.14-2.6-0.03c-1.56-0.31-2.61,0.84-3.77,1.39c-0.74,0.36-1.37,0.61-2.15,0.64
		c-0.37,0.01-0.73,0.03-1.09,0.05c0.03,0.14,0.07,0.28,0.1,0.42c-0.4,0.17-0.8,0.46-1.22,0.5c-0.95,0.07-1.91-0.05-2.86,0.05
		c-0.49,0.05-0.95,0.38-1.42,0.59c0.03,0.13,0.06,0.25,0.1,0.38h-4.77c0.32,1.19-0.48,0.99-1.14,0.99h-6.6
		c-11.28,0-22.57,0.01-33.85,0c-0.4,0-1.12-0.07-1.14-0.18c-0.16-1.25-1.12-0.84-1.73-0.78c-2.52,0.23-4.57-0.64-6.32-2.4
		c-0.22-0.23-0.52-0.43-0.82-0.53c-2.06-0.68-3.73-1.89-5.21-3.46c-0.69-0.73-1.62-1.25-2.48-1.78c-1.82-1.12-3.78-2.05-5.47-3.33
		c-1.59-1.2-3.07-2.43-5.17-2.5c-0.23-0.01-0.46-0.17-0.68-0.27c-2.26-0.99-3.83-2.81-5.53-4.5c-0.91-0.9-1.57-2.19-3.11-2.31
		c-0.16-0.02-0.31-0.5-0.44-0.78c-0.13-0.29-0.21-0.6-0.33-0.9c-0.21-0.53-0.61-1.05-0.62-1.57c-0.04-4.85-0.03-9.71-0.02-14.56
		c0-0.36,0.04-0.71,0.09-1.31c2.32,2.02,4.83,2.77,7.86,2.19c-0.29,1.41,0.61,1.12,1.28,1.12c2.41,0.02,4.82-0.1,7.22,0.04
		c1.94,0.11,3.33-0.9,4.71-1.93c2.67-1.98,4.2-4.82,5.64-7.72c0.81-1.64,1.22-3.28,1.1-5.12c-0.12-1.69,0.02-3.4-0.05-5.1
		c-0.03-0.79,0.52-1.89-0.85-2.21c-0.07-0.02-0.11-0.3-0.11-0.46c-0.01-1.51,0.03-2.93-0.97-4.31c-1.43-1.98-1.82-4.61-3.84-6.26
		c-0.18-0.15-0.24-0.44-0.37-0.71c2.05-0.32,4.03,0.33,5.93-0.97c2.05-1.4,3.74-3.07,5.21-5.01c1.08-1.44,1.11-3.16,1-4.87
		c-0.02-0.34-0.03-0.67,0-1c0.15-1.7-0.88-2.95-1.72-4.21c-0.68-1.02-1.69-1.82-2.59-2.67c-1.57-1.49-3.35-2.45-5.62-2.27
		c-0.95,0.08-1.91-0.05-2.86,0.04c-0.49,0.05-0.95,0.37-1.42,0.57c0.03,0.13,0.06,0.27,0.09,0.4c-1.11,0-2.23-0.02-3.35,0.01
		c-0.39,0.02-0.82,0.11-1.17,0.29c-1.05,0.53-2.01,1.3-3.11,1.66c-2.89,0.96-4.97,3.17-7.21,4.95c-2.5,1.98-4.41,4.76-6.39,7.33
		c-0.76,0.98-1.43,2.37-1.4,3.55c0.06,2.05-0.48,3.58-2.1,4.81c-0.75,0.58-1.39,1.31-2.03,2.01c-0.36,0.39-0.71,0.84-0.91,1.32
		c-0.75,1.92-1.85,3.56-3.36,4.98c-2.82,2.66-5.79,5.23-7.15,9.05c-0.53,1.48-1.77,2.69-1.49,4.47c0.16,0.99,0.29,2.06-0.74,2.82
		c-0.22,0.16-0.22,0.69-0.23,1.05c-0.01,7.64-0.01,15.27,0.01,22.91c0,0.43,0.12,0.91,0.31,1.3c0.52,1.05,1.06,2.1,1.67,3.11
		c1.33,2.19,2.54,4.49,4.12,6.5c1.27,1.62,3.09,2.76,4.74,4.04c2.8,2.17,5.22,4.85,8.12,6.98c1.61,1.18,3.07,2.45,5.18,2.48
		c0.16,0,0.36,0.01,0.48,0.1c1.27,0.93,2.53,1.9,3.81,2.82c0.56,0.41,1.16,0.77,1.76,1.11c0.99,0.58,2.23,0.92,2.96,1.73
		c2.25,2.5,5.08,4.01,8.09,5.31c1.05,0.45,2.08,1.02,2.98,1.72c1.65,1.28,3.31,2.38,5.54,2.15c0.61-0.07,1.23-0.01,1.85-0.01
		c-0.03,0.13-0.06,0.26-0.1,0.4c0.45,0.19,0.88,0.53,1.34,0.56c1.23,0.08,2.48,0.03,3.72,0.03c-0.03,0.13-0.06,0.26-0.09,0.39
		c0.48,0.2,0.96,0.58,1.44,0.58c14.81,0.03,29.62,0.03,44.43,0c0.49,0,0.98-0.4,1.47-0.62c-0.03-0.11-0.06-0.23-0.09-0.35
		c1.2,0,2.4,0.06,3.6-0.03c0.5-0.04,0.98-0.4,1.47-0.61c-0.03-0.12-0.06-0.24-0.1-0.35c1.2,0,2.41,0.06,3.6-0.03
		c0.51-0.04,0.98-0.4,1.47-0.61c-0.03-0.12-0.06-0.24-0.09-0.36c0.91,0,1.82,0.01,2.73,0c0.84-0.01,1.59,0.07,2.32-0.73
		c0.6-0.65,1.66-0.94,2.57-1.23c0.79-0.26,1.96,0.46,2.29-0.95c0.02-0.05,0.23-0.07,0.35-0.07c0.81-0.01,1.62,0,2.5,0
		c0,2.32-0.08,4.48,0.03,6.62c0.06,1.14-0.58,1.71-1.34,2.18c-1.44,0.89-2.92,1.72-4.42,2.49c-3.03,1.58-6.09,3.1-9.13,4.65
		c-1.68,0.86-3.61,1.45-4.98,2.67c-1.67,1.47-3.42,2.63-5.42,3.51c-0.9,0.4-1.77,0.87-2.62,1.37c-1.32,0.78-2.55,1.79-3.95,2.38
		c-2.73,1.16-4.81,3.08-6.55,5.34c-0.98,1.27-1.79,2.78-1.46,4.57c0.07,0.4,0.05,0.83,0,1.24c-0.22,2.24,0.87,3.94,2.27,5.49
		c0.75,0.83,1.54,1.63,2.41,2.34c1.4,1.15,2.9,2.07,4.87,1.97c1.86-0.09,3.71,0.14,5.42-1c1.83-1.22,3.8-2.23,5.7-3.33
		c0.39-0.23,0.78-0.46,1.17-0.68c2.17-1.22,4.66-1.9,6.39-3.87c0.32-0.37,0.71-0.73,1.14-0.94c3.56-1.76,7.16-3.45,10.7-5.24
		c1.23-0.63,2.33-1.51,3.51-2.23c1.58-0.98,3.11-2.19,5.05-1.55c0.2,0.65,0.27,1.24,0.55,1.73c0.86,1.51,1.94,2.93,1.64,4.85
		c-0.05,0.3,0.06,0.69,0.23,0.95c0.9,1.45,1.91,2.84,1.81,4.68c-0.01,0.15,0.07,0.41,0.17,0.44c1.13,0.3,0.66,1.21,0.75,1.91
		c0.07,0.61-0.05,1.32,0.23,1.82c0.82,1.53,1.93,2.93,1.85,4.8c-0.01,0.15,0.1,0.4,0.2,0.43c0.99,0.28,0.66,1.07,0.7,1.72
		c0.08,1.02-0.11,2.17,0.28,3.05c0.67,1.49,1.82,2.77,1.78,4.56c0,0.22,0.17,0.46,0.27,0.68c0.98,2.12,2.66,3.65,4.35,5.16
		c0.49,0.44,1.22,0.59,1.76,0.99c0.27,0.19,0.36,0.64,0.53,0.97H24.7v-243H255.7z"/>
	<path class="st1" d="M254.68,223.93c0.02-0.3-0.08-0.73-0.29-0.9c-1.73-1.44-2.88-3.52-5.13-4.42c-0.65-0.27-1.08-1.15-1.57-1.79
		c-0.24-0.32-0.32-0.77-0.58-1.06c-0.88-0.93-1.76-1.89-2.73-2.72c-1.65-1.4-3.42-2.66-5.06-4.06c-2.6-2.2-5.14-4.47-7.7-6.71
		c-0.12-0.11-0.29-0.17-0.42-0.26c-1.87-1.29-3.74-2.56-5.59-3.87c-1.07-0.76-2.02-1.71-3.14-2.34c-2.12-1.2-4.45-2.08-6.48-3.4
		c-1.72-1.12-3.23-2.5-5.43-2.56c-0.22,0-0.43-0.21-0.64-0.33c-1.53-0.83-2.95-1.93-4.87-1.63c-0.34,0.05-1-0.05-1.02-0.16
		c-0.18-1.21-1.11-0.69-1.75-0.82c-0.4-0.08-0.83-0.1-1.18-0.27c-1.4-0.71-2.63-1.83-4.36-1.75c-0.22,0.01-0.47-0.15-0.67-0.28
		c-1.6-1.01-3.18-2.01-5.22-1.71c-0.26,0.04-0.59-0.22-0.87-0.38c-0.3-0.18-0.57-0.52-0.89-0.56c-0.73-0.08-1.49-0.01-2.23-0.04
		c-0.28-0.01-0.77-0.09-0.78-0.17c-0.11-1.17-1-0.67-1.6-0.82c-1.25-0.33-2.86,0.84-3.78-0.92c-0.06-0.12-0.47-0.06-0.72-0.07
		c-0.74,0-1.49,0.03-2.24-0.02c-0.23-0.01-0.47-0.19-0.69-0.32c-0.37-0.21-0.71-0.56-1.1-0.63c-0.58-0.1-1.2-0.02-1.81-0.02v-17.93
		c0.92,0,1.75,0.01,2.58-0.01c0.32-0.01,0.67-0.04,0.95-0.18c1.2-0.6,2.39-1.21,3.55-1.88c1.19-0.7,2.31-1.54,3.52-2.22
		c1.11-0.63,2.3-1.59,3.45-1.58c1.69,0.01,3.05-0.6,4.28-1.4c1.92-1.25,3.74-2.7,5.39-4.29c1.58-1.51,3.32-2.63,5.3-3.52
		c1.39-0.64,2.66-1.61,3.85-2.6c3.28-2.74,5.72-6.25,8.47-9.47c0.21-0.24,0.27-0.59,0.44-0.87c0.78-1.29,1.58-2.57,2.37-3.86
		c0.21-0.35,0.39-0.72,0.6-1.07c1.22-2.06,2.28-4.26,3.73-6.15c1.31-1.7,2.36-3.35,2.22-5.57c-0.02-0.35,0.05-1.01,0.17-1.03
		c1.16-0.22,0.74-1.12,0.81-1.78c0.07-0.69-0.2-1.85,0.12-2.02c1.47-0.82,0.66-2.11,0.88-3.16c0.08-0.35,0.08-1,0.19-1.02
		c1.12-0.18,0.71-1.03,0.81-1.66c0.07-0.4,0-0.9,0.22-1.18c1.42-1.81,2.01-3.82,1.79-6.1c-0.04-0.34,0.03-0.95,0.2-1.01
		c0.95-0.33,0.74-1.1,0.77-1.76c0.04-0.83-0.01-1.66,0.02-2.49c0.01-0.26,0.1-0.72,0.23-0.75c0.89-0.21,0.74-0.91,0.74-1.49
		c0.02-4.36,0.02-8.72,0-13.07c0-0.36-0.05-0.76-0.21-1.08c-1.3-2.56-2.61-5.11-3.94-7.65c-0.51-0.98-0.96-2.02-1.63-2.88
		c-1.24-1.6-2.46-3.16-2.19-5.37c0.04-0.31-0.04-0.69-0.21-0.95c-1.39-2.13-2.65-4.38-4.28-6.31c-1.09-1.3-1.77-2.74-2.55-4.18
		c-1.29-2.36-2.06-5.06-4.34-6.81c-0.19-0.14-0.33-0.36-0.47-0.57c-1.2-1.81-2.23-3.77-3.63-5.41c-1.85-2.15-3.84-4.18-6.68-5.18
		c-1.7-0.6-3.34-1.5-4.82-2.53c-1.59-1.11-3.06-2.32-5.12-2.38c-0.28-0.01-0.54-0.34-0.83-0.46c-1.45-0.62-2.71-1.65-4.47-1.53
		c-2.06,0.15-4.14,0.05-6.22,0.02c-0.38,0-1.01-0.09-1.08-0.3c-0.3-0.86-0.97-0.67-1.55-0.67c-8.09-0.01-16.18-0.02-24.27,0.02
		c-0.48,0-0.97,0.39-1.45,0.6c0.03,0.12,0.06,0.25,0.1,0.37h-4.59c0.03,0.13,0.06,0.26,0.1,0.39c-0.48,0.2-0.95,0.56-1.43,0.58
		c-2.24,0.06-4.48-0.01-6.72,0.05c-0.48,0.02-0.95,0.4-1.42,0.61c0.03,0.12,0.07,0.24,0.1,0.36c-0.74,0-1.51-0.12-2.22,0.04
		c-0.71,0.15-1.32,0.77-2.02,0.88c-1.32,0.21-2.27,1.61-3.78,1.13c-0.09-0.03-0.22,0.1-0.33,0.15c-2.51,1.3-5.04,2.57-7.53,3.89
		c-1.12,0.6-2.32,1.15-3.24,1.99c-2.14,1.96-4.14,4.07-6.19,6.13c-0.4,0.41-0.76,0.87-1.1,1.34c-1.51,2.09-3.01,4.19-4.52,6.28
		c-0.64,0.9-1.31,1.78-1.9,2.71c-0.46,0.72-0.69,1.62-1.23,2.27c-1.51,1.85-2.89,3.69-2.57,6.28c0.03,0.26-0.2,0.66-0.43,0.83
		c-2.17,1.66-3.06,4.16-4.28,6.44c-0.49,0.92-1.19,1.91-1.2,2.87c-0.09,8.09-0.06,16.19-0.04,24.28c0,0.37,0.22,0.75,0.37,1.12
		c0.18,0.42,0.57,0.82,0.58,1.23c0.06,2.16,0.01,4.32,0.05,6.47c0.01,0.42,0.2,0.85,0.36,1.25c0.18,0.43,0.53,0.81,0.59,1.24
		c0.1,0.73,0.01,1.49,0.03,2.24c0.01,0.41-0.06,1.07,0.15,1.19c1.41,0.79,0.71,2.09,0.82,3.16c0.09,0.9,0.03,1.73,0.76,2.51
		c0.61,0.65,1.19,1.65,1.17,2.48c-0.04,1.64,1.01,2.75,1.51,4.11c0.79,2.12,2.58,3.82,2.64,6.26c0,0.29,0.3,0.57,0.45,0.86
		c0.48,0.93,1.28,1.84,1.38,2.81c0.22,2.12,1.26,3.67,2.66,5.12c0.82,0.86,1.81,1.67,2.32,2.7c0.83,1.67,1.54,3.36,2.98,4.63
		c0.42,0.38,0.77,0.87,1.04,1.37c1.24,2.27,3.02,4,5.25,5.26c1.54,0.87,3.22,1.49,4.37,2.94c0.44,0.55,0.99,1.01,1.48,1.51
		c1.62,1.67,3.49,2.71,5.9,2.5c0.3-0.02,0.62,0.05,0.93,0.09c-0.09,0.08-0.17,0.16-0.25,0.24c0.41,0.67,0.75,1.39,1.24,1.98
		c0.61,0.73,1.35,1.35,2.01,2.04c1.72,1.82,3.76,2.8,6.34,2.64c1.69-0.11,3.41,0.06,5.1-0.06c0.91-0.06,2.21,0.72,2.67-0.87
		c0.01-0.06,0.22-0.08,0.34-0.08c0.81-0.01,1.62-0.01,2.52-0.01c0,4.11,0.01,8.05-0.03,11.99c0,0.36-0.2,0.87-0.48,1.05
		c-0.7,0.45-1.82,0.54-2.17,1.14c-0.62,1.04-1.43,0.62-2.19,0.78c-0.51,0.11-0.97,0.41-1.45,0.62c0.04,0.12,0.07,0.24,0.1,0.35
		c-0.87,0-1.76,0.14-2.6-0.03c-1.56-0.31-2.61,0.84-3.77,1.39c-0.74,0.36-1.37,0.61-2.15,0.64c-0.37,0.01-0.73,0.03-1.09,0.05
		c0.03,0.14,0.07,0.28,0.1,0.42c-0.4,0.17-0.8,0.46-1.22,0.5c-0.95,0.07-1.91-0.05-2.86,0.05c-0.49,0.05-0.95,0.38-1.42,0.59
		c0.03,0.13,0.06,0.25,0.1,0.38h-4.77c0.32,1.19-0.48,0.99-1.14,0.99h-6.6c-11.28,0-22.57,0.01-33.85,0c-0.4,0-1.12-0.07-1.14-0.18
		c-0.16-1.25-1.12-0.84-1.73-0.78c-2.52,0.23-4.57-0.64-6.32-2.4c-0.22-0.23-0.52-0.43-0.82-0.53c-2.06-0.68-3.73-1.89-5.21-3.46
		c-0.69-0.73-1.62-1.25-2.48-1.78c-1.82-1.12-3.78-2.05-5.47-3.33c-1.59-1.2-3.07-2.43-5.17-2.5c-0.23-0.01-0.46-0.17-0.68-0.27
		c-2.26-0.99-3.83-2.81-5.53-4.5c-0.91-0.9-1.57-2.19-3.11-2.31c-0.16-0.02-0.31-0.5-0.44-0.78c-0.13-0.29-0.21-0.6-0.33-0.9
		c-0.21-0.53-0.61-1.05-0.62-1.57c-0.04-4.85-0.03-9.71-0.02-14.56c0-0.36,0.04-0.71,0.09-1.31c2.32,2.02,4.83,2.77,7.86,2.19
		c-0.29,1.41,0.61,1.12,1.28,1.12c2.41,0.02,4.82-0.1,7.22,0.04c1.94,0.11,3.33-0.9,4.71-1.93c2.67-1.98,4.2-4.82,5.64-7.72
		c0.81-1.64,1.22-3.28,1.1-5.12c-0.12-1.69,0.02-3.4-0.05-5.1c-0.03-0.79,0.52-1.89-0.85-2.21c-0.07-0.02-0.11-0.3-0.11-0.46
		c-0.01-1.51,0.03-2.93-0.97-4.31c-1.43-1.98-1.82-4.61-3.84-6.26c-0.18-0.15-0.24-0.44-0.37-0.71c2.05-0.32,4.03,0.33,5.93-0.97
		c2.05-1.4,3.74-3.07,5.21-5.01c1.08-1.44,1.11-3.16,1-4.87c-0.02-0.34-0.03-0.67,0-1c0.15-1.7-0.88-2.95-1.72-4.21
		c-0.68-1.02-1.69-1.82-2.59-2.67c-1.57-1.49-3.35-2.45-5.62-2.27c-0.95,0.08-1.91-0.05-2.86,0.04c-0.49,0.05-0.95,0.37-1.42,0.57
		c0.03,0.13,0.06,0.27,0.09,0.4c-1.11,0-2.23-0.02-3.35,0.01c-0.39,0.02-0.82,0.11-1.17,0.29c-1.05,0.53-2.01,1.3-3.11,1.66
		c-2.89,0.96-4.97,3.17-7.21,4.95c-2.5,1.98-4.41,4.76-6.39,7.33c-0.76,0.98-1.43,2.37-1.4,3.55c0.06,2.05-0.48,3.58-2.1,4.81
		c-0.75,0.58-1.39,1.31-2.03,2.01c-0.36,0.39-0.71,0.84-0.91,1.32c-0.75,1.92-1.85,3.56-3.36,4.98c-2.82,2.66-5.79,5.23-7.15,9.05
		c-0.53,1.48-1.77,2.69-1.49,4.47c0.16,0.99,0.29,2.06-0.74,2.82c-0.22,0.16-0.22,0.69-0.23,1.05c-0.01,7.64-0.01,15.27,0.01,22.91
		c0,0.43,0.12,0.91,0.31,1.3c0.52,1.05,1.06,2.1,1.67,3.11c1.33,2.19,2.54,4.49,4.12,6.5c1.27,1.62,3.09,2.76,4.74,4.04
		c2.8,2.17,5.22,4.85,8.12,6.98c1.61,1.18,3.07,2.45,5.18,2.48c0.16,0,0.36,0.01,0.48,0.1c1.27,0.93,2.53,1.9,3.81,2.82
		c0.56,0.41,1.16,0.77,1.76,1.11c0.99,0.58,2.23,0.92,2.96,1.73c2.25,2.5,5.08,4.01,8.09,5.31c1.05,0.45,2.08,1.02,2.98,1.72
		c1.65,1.28,3.31,2.38,5.54,2.15c0.61-0.07,1.23-0.01,1.85-0.01c-0.03,0.13-0.06,0.26-0.1,0.4c0.45,0.19,0.88,0.53,1.34,0.56
		c1.23,0.08,2.48,0.03,3.72,0.03c-0.03,0.13-0.06,0.26-0.09,0.39c0.48,0.2,0.96,0.58,1.44,0.58c14.81,0.03,29.62,0.03,44.43,0
		c0.49,0,0.98-0.4,1.47-0.62c-0.03-0.11-0.06-0.23-0.09-0.35c1.2,0,2.4,0.06,3.6-0.03c0.5-0.04,0.98-0.4,1.47-0.61
		c-0.03-0.12-0.06-0.24-0.1-0.35c1.2,0,2.41,0.06,3.6-0.03c0.51-0.04,0.98-0.4,1.47-0.61c-0.03-0.12-0.06-0.24-0.09-0.36
		c0.91,0,1.82,0.01,2.73,0c0.84-0.01,1.59,0.07,2.32-0.73c0.6-0.65,1.66-0.94,2.57-1.23c0.79-0.26,1.96,0.46,2.29-0.95
		c0.02-0.05,0.23-0.07,0.35-0.07c0.81-0.01,1.62,0,2.5,0c0,2.32-0.08,4.48,0.03,6.62c0.06,1.14-0.58,1.71-1.34,2.18
		c-1.44,0.89-2.92,1.72-4.42,2.49c-3.03,1.58-6.09,3.1-9.13,4.65c-1.68,0.86-3.61,1.45-4.98,2.67c-1.67,1.47-3.42,2.63-5.42,3.51
		c-0.9,0.4-1.77,0.87-2.62,1.37c-1.32,0.78-2.55,1.79-3.95,2.38c-2.73,1.16-4.81,3.08-6.55,5.34c-0.98,1.27-1.79,2.78-1.46,4.57
		c0.07,0.4,0.05,0.83,0,1.24c-0.22,2.24,0.87,3.94,2.27,5.49c0.75,0.83,1.54,1.63,2.41,2.34c1.4,1.15,2.9,2.07,4.87,1.97
		c1.86-0.09,3.71,0.14,5.42-1c1.83-1.22,3.8-2.23,5.7-3.33c0.39-0.23,0.78-0.46,1.17-0.68c2.17-1.22,4.66-1.9,6.39-3.87
		c0.32-0.37,0.71-0.73,1.14-0.94c3.56-1.76,7.16-3.45,10.7-5.24c1.23-0.63,2.33-1.51,3.51-2.23c1.58-0.98,3.11-2.19,5.05-1.55
		c0.2,0.65,0.27,1.24,0.55,1.73c0.86,1.51,1.94,2.93,1.64,4.85c-0.05,0.3,0.06,0.69,0.23,0.95c0.9,1.45,1.91,2.84,1.81,4.68
		c-0.01,0.15,0.07,0.41,0.17,0.44c1.13,0.3,0.66,1.21,0.75,1.91c0.07,0.61-0.05,1.32,0.23,1.82c0.82,1.53,1.93,2.93,1.85,4.8
		c-0.01,0.15,0.1,0.4,0.2,0.43c0.99,0.28,0.66,1.07,0.7,1.72c0.08,1.02-0.11,2.17,0.28,3.05c0.67,1.49,1.82,2.77,1.78,4.56
		c0,0.22,0.17,0.46,0.27,0.68c0.98,2.12,2.66,3.65,4.35,5.16c0.49,0.44,1.22,0.59,1.76,0.99c0.27,0.19,0.36,0.64,0.53,0.97h6.97
		c-0.05-0.58-0.04-1.11,0.8-1.01c0.19,0.02,0.47,0,0.59-0.13c1.55-1.63,3.2-3.2,4.6-4.97c1.65-2.07,0.9-4.62,0.91-6.97
		c0-0.75-0.53-1.65-1.09-2.2c-1.03-1.03-0.78-2.26-0.86-3.47c-0.12,0.04-0.25,0.07-0.37,0.11c-0.2-0.49-0.47-0.96-0.58-1.46
		c-0.1-0.44-0.09-0.92-0.01-1.36c0.34-1.8-0.99-2.97-1.57-4.42c-0.25-0.62-0.25-1.33-0.45-1.97c-0.12-0.38-0.42-0.71-0.63-1.05
		c-0.12-0.19-0.3-0.37-0.33-0.57c-0.05-0.37-0.09-0.76-0.01-1.12c0.38-1.72-1-2.79-1.51-4.19c-0.15-0.4-0.38-0.78-0.48-1.2
		c-0.17-0.73,0.46-1.78-0.88-2.04c-0.09-0.01-0.17-0.54-0.11-0.8c0.39-1.82-0.67-3.22-1.36-4.71c-0.57-1.23-1.13-2.48-1.85-3.62
		c-0.54-0.86-1.5-1.47-1.97-2.35c-1.42-2.63-3.72-4.45-5.65-6.61c-0.23-0.27-0.01-1.02,0.13-1.51c0.17-0.57,0.67-1.1,0.69-1.66
		c0.09-2.18,0.04-4.37,0.04-7.05c1.68,2.38,3.86,1.33,5.75,1.63c-0.03,0.1-0.06,0.2-0.1,0.3c0.49,0.22,0.95,0.55,1.46,0.63
		c0.65,0.11,1.33,0.02,1.99,0.03c0.24,0.01,0.68,0.01,0.7,0.09c0.34,1.56,1.56,0.71,2.39,0.89c0.72,0.16,1.7-0.4,1.98,0.82
		c0.02,0.08,0.22,0.17,0.32,0.16c2-0.25,3.45,0.94,4.99,1.89c0.13,0.08,0.32,0.13,0.47,0.12c1.73-0.15,2.9,1.03,4.3,1.7
		c0.73,0.34,1.68,0.24,2.53,0.29c0.52,0.04,1.1-0.18,1.24,0.64c0.02,0.15,0.37,0.34,0.58,0.35c2.93,0.15,5.07,1.93,7.37,3.44
		c1.54,1.01,3.28,1.7,4.94,2.54c0.22,0.11,0.49,0.14,0.67,0.29c1.83,1.44,3.63,2.93,5.47,4.35c1.03,0.79,2.22,1.39,3.18,2.25
		c1.52,1.35,2.87,2.89,4.37,4.26c0.83,0.75,1.86,1.29,2.75,2c0.5,0.4,0.99,0.88,1.3,1.44c1.31,2.36,3.1,4.2,5.51,5.45
		c0.5,0.25,0.88,0.73,1.35,1.07c1.25,0.9,2.45,1.92,3.81,2.62c0.7,0.36,1.71,0.09,2.56,0.2c2.91,0.38,5.14-0.86,7.06-2.88
		c0.6-0.64,1.27-1.2,1.83-1.87c0.37-0.46,0.55-1.07,0.9-1.56c0.25-0.35,0.64-0.62,0.97-0.92v-6.72
		C255.1,224.81,254.63,224.75,254.68,223.93z M171.7,140.32c-1.26,0.82-2.41,0.75-3.65,0.76c-4.6,0.03-9.2,0.01-13.81,0.01
		c-0.65-0.01-1.3-0.09-1.11,1.04h-4.84c-0.08,0.41-0.15,0.75-0.24,1.24c-0.35-0.23-0.64-0.37-0.86-0.59
		c-1.08-1.09-2.13-2.21-3.21-3.29c-1.51-1.51-3.23-2.52-5.47-2.4c-0.42,0.02-0.99-0.05-1.25-0.32c-1.56-1.52-2.97-3.17-5-4.18
		c-1.41-0.71-2.19-2.15-2.67-3.6c-0.67-2.02-2.38-3.11-3.67-4.58c-0.28-0.32-0.69-0.77-0.64-1.1c0.27-1.74-1.05-2.79-1.66-4.14
		c-0.08-0.19-0.28-0.35-0.3-0.53c-0.35-3.28-2.45-5.77-3.8-8.6c-0.18-0.39-0.15-0.88-0.23-1.32c-0.11-0.59,0.41-1.5-0.79-1.58
		c-0.09-0.01-0.19-0.5-0.2-0.77c-0.02-0.95,0.01-1.91-0.01-2.86c-0.01-0.54,0.19-1.19-0.71-1.33c-0.14-0.03-0.27-0.62-0.27-0.95
		c-0.02-2.29,0.02-4.57-0.04-6.85c-0.01-0.37-0.41-0.73-0.61-1.1c-0.14-0.26-0.34-0.54-0.34-0.82c-0.02-6.01-0.12-12.03,0.07-18.04
		c0.04-1.19,1.1-2.39,1.82-3.51c0.84-1.3,1.83-2.5,2.73-3.77c0.18-0.26,0.32-0.62,0.3-0.93c-0.16-2.45,1.1-4.21,2.57-6
		c1.39-1.68,2.42-3.64,3.68-5.43c1.41-2.01,3.36-3.33,5.6-4.33c1.78-0.8,3.45-1.84,5.21-2.68c0.52-0.25,1.2-0.15,1.77-0.32
		c0.4-0.11,0.73-0.43,1.11-0.62c0.29-0.15,0.61-0.33,0.93-0.34c1.95-0.03,3.9,0.03,5.84-0.04c0.5-0.02,0.98-0.39,1.47-0.59
		c-0.03-0.13-0.06-0.25-0.09-0.38c1.2,0,2.41,0.07,3.6-0.03c0.52-0.04,1.01-0.39,1.51-0.6c-0.04-0.11-0.08-0.22-0.13-0.33
		c0.21-0.01,0.41-0.03,0.62-0.03h21.89c-0.03,0.11-0.07,0.22-0.1,0.34c0.48,0.21,0.95,0.55,1.45,0.62c0.73,0.11,1.5,0.1,2.24,0.02
		c2.57-0.27,4.86,0.33,7.08,1.71c2.51,1.57,5.13,2.95,7.05,5.25c0.87,1.06,1.6,2.27,2.22,3.5c0.85,1.69,1.49,3.46,2.94,4.8
		c0.53,0.49,0.61,1.43,1.04,2.07c0.78,1.14,1.7,2.19,2.5,3.32c0.32,0.46,0.67,1.06,0.65,1.59c-0.09,2.27,1.09,3.93,2.4,5.59
		c0.57,0.72,0.95,1.59,1.38,2.41c1.05,2,2.09,4,3.12,6c0.07,0.14,0.09,0.32,0.1,0.48v7.47c0,0.12,0.01,0.33-0.05,0.36
		c-1.82,0.9-0.6,2.54-0.93,3.81c-0.15,0.57,0.29,1.37-0.73,1.57c-0.12,0.02-0.25,0.42-0.24,0.64c0.09,1.78-0.84,3.11-1.77,4.52
		c-0.41,0.64-0.19,1.68-0.26,2.54c-0.03,0.5,0.19,1.12-0.67,1.21c-0.13,0.02-0.29,0.45-0.3,0.7c-0.04,0.74,0.04,1.5-0.05,2.23
		c-0.04,0.35-0.37,0.66-0.56,1c-0.14,0.25-0.36,0.51-0.39,0.78c-0.05,0.62,0.07,1.26-0.04,1.86c-0.1,0.56-0.35,1.11-0.64,1.61
		c-0.67,1.16-1.41,2.29-2.12,3.43c-0.06,0.11-0.07,0.25-0.13,0.35c-1.31,2.13-2.63,4.25-3.94,6.37c-0.52,0.84-0.88,1.84-1.58,2.48
		c-1.13,1.04-2.37,2.09-3.75,2.69c-1.57,0.69-2.55,1.92-3.78,2.94c-1.36,1.14-2.91,2.08-4.18,3.32c-0.81,0.79-1.57,1.26-2.65,1.03
		c-1.52-0.32-2.74,0.65-3.64,1.37C176.39,138.15,173.88,138.93,171.7,140.32z"/>
	<path class="st0" d="M255.7,231.47v34.11h-70.69c-0.05-0.58-0.04-1.11,0.8-1.01c0.19,0.02,0.47,0,0.59-0.13
		c1.55-1.63,3.2-3.2,4.6-4.97c1.65-2.07,0.9-4.62,0.91-6.97c0-0.75-0.53-1.65-1.09-2.2c-1.03-1.03-0.78-2.26-0.86-3.47
		c-0.12,0.04-0.25,0.07-0.37,0.11c-0.2-0.49-0.47-0.96-0.58-1.46c-0.1-0.44-0.09-0.92-0.01-1.36c0.34-1.8-0.99-2.97-1.57-4.42
		c-0.25-0.62-0.25-1.33-0.45-1.97c-0.12-0.38-0.42-0.71-0.63-1.05c-0.12-0.19-0.3-0.37-0.33-0.57c-0.05-0.37-0.09-0.76-0.01-1.12
		c0.38-1.72-1-2.79-1.51-4.19c-0.15-0.4-0.38-0.78-0.48-1.2c-0.17-0.73,0.46-1.78-0.88-2.04c-0.09-0.01-0.17-0.54-0.11-0.8
		c0.39-1.82-0.67-3.22-1.36-4.71c-0.57-1.23-1.13-2.48-1.85-3.62c-0.54-0.86-1.5-1.47-1.97-2.35c-1.42-2.63-3.72-4.45-5.65-6.61
		c-0.23-0.27-0.01-1.02,0.13-1.51c0.17-0.57,0.67-1.1,0.69-1.66c0.09-2.18,0.04-4.37,0.04-7.05c1.68,2.38,3.86,1.33,5.75,1.63
		c-0.03,0.1-0.06,0.2-0.1,0.3c0.49,0.22,0.95,0.55,1.46,0.63c0.65,0.11,1.33,0.02,1.99,0.03c0.24,0.01,0.68,0.01,0.7,0.09
		c0.34,1.56,1.56,0.71,2.39,0.89c0.72,0.16,1.7-0.4,1.98,0.82c0.02,0.08,0.22,0.17,0.32,0.16c2-0.25,3.45,0.94,4.99,1.89
		c0.13,0.08,0.32,0.13,0.47,0.12c1.73-0.15,2.9,1.03,4.3,1.7c0.73,0.34,1.68,0.24,2.53,0.29c0.52,0.04,1.1-0.18,1.24,0.64
		c0.02,0.15,0.37,0.34,0.58,0.35c2.93,0.15,5.07,1.93,7.37,3.44c1.54,1.01,3.28,1.7,4.94,2.54c0.22,0.11,0.49,0.14,0.67,0.29
		c1.83,1.44,3.63,2.93,5.47,4.35c1.03,0.79,2.22,1.39,3.18,2.25c1.52,1.35,2.87,2.89,4.37,4.26c0.83,0.75,1.86,1.29,2.75,2
		c0.5,0.4,0.99,0.88,1.3,1.44c1.31,2.36,3.1,4.2,5.51,5.45c0.5,0.25,0.88,0.73,1.35,1.07c1.25,0.9,2.45,1.92,3.81,2.62
		c0.7,0.36,1.71,0.09,2.56,0.2c2.91,0.38,5.14-0.86,7.06-2.88c0.6-0.64,1.27-1.2,1.83-1.87c0.37-0.46,0.55-1.07,0.9-1.56
		C254.98,232.04,255.37,231.77,255.7,231.47z"/>
	<path class="st0" d="M210.89,89.66v-7.47c-0.01-0.16-0.03-0.34-0.1-0.48c-1.03-2-2.07-4-3.12-6c-0.43-0.82-0.81-1.69-1.38-2.41
		c-1.31-1.66-2.49-3.32-2.4-5.59c0.02-0.53-0.33-1.13-0.65-1.59c-0.8-1.13-1.72-2.18-2.5-3.32c-0.43-0.64-0.51-1.58-1.04-2.07
		c-1.45-1.34-2.09-3.11-2.94-4.8c-0.62-1.23-1.35-2.44-2.22-3.5c-1.92-2.3-4.54-3.68-7.05-5.25c-2.22-1.38-4.51-1.98-7.08-1.71
		c-0.74,0.08-1.51,0.09-2.24-0.02c-0.5-0.07-0.97-0.41-1.45-0.62c0.03-0.12,0.07-0.23,0.1-0.34h-21.89c-0.21,0-0.41,0.02-0.62,0.03
		c0.05,0.11,0.09,0.22,0.13,0.33c-0.5,0.21-0.99,0.56-1.51,0.6c-1.19,0.1-2.4,0.03-3.6,0.03c0.03,0.13,0.06,0.25,0.09,0.38
		c-0.49,0.2-0.97,0.57-1.47,0.59c-1.94,0.07-3.89,0.01-5.84,0.04c-0.32,0.01-0.64,0.19-0.93,0.34c-0.38,0.19-0.71,0.51-1.11,0.62
		c-0.57,0.17-1.25,0.07-1.77,0.32c-1.76,0.84-3.43,1.88-5.21,2.68c-2.24,1-4.19,2.32-5.6,4.33c-1.26,1.79-2.29,3.75-3.68,5.43
		c-1.47,1.79-2.73,3.55-2.57,6c0.02,0.31-0.12,0.67-0.3,0.93c-0.9,1.27-1.89,2.47-2.73,3.77c-0.72,1.12-1.78,2.32-1.82,3.51
		c-0.19,6.01-0.09,12.03-0.07,18.04c0,0.28,0.2,0.56,0.34,0.82c0.2,0.37,0.6,0.73,0.61,1.1c0.06,2.28,0.02,4.56,0.04,6.85
		c0,0.33,0.13,0.92,0.27,0.95c0.9,0.14,0.7,0.79,0.71,1.33c0.02,0.95-0.01,1.91,0.01,2.86c0.01,0.27,0.11,0.76,0.2,0.77
		c1.2,0.08,0.68,0.99,0.79,1.58c0.08,0.44,0.05,0.93,0.23,1.32c1.35,2.83,3.45,5.32,3.8,8.6c0.02,0.18,0.22,0.34,0.3,0.53
		c0.61,1.35,1.93,2.4,1.66,4.14c-0.05,0.33,0.36,0.78,0.64,1.1c1.29,1.47,3,2.56,3.67,4.58c0.48,1.45,1.26,2.89,2.67,3.6
		c2.03,1.01,3.44,2.66,5,4.18c0.26,0.27,0.83,0.34,1.25,0.32c2.24-0.12,3.96,0.89,5.47,2.4c1.08,1.08,2.13,2.2,3.21,3.29
		c0.22,0.22,0.51,0.36,0.86,0.59c0.09-0.49,0.16-0.83,0.24-1.24h4.84c-0.19-1.13,0.46-1.05,1.11-1.04c4.61,0,9.21,0.02,13.81-0.01
		c1.24-0.01,2.39,0.06,3.65-0.76c2.18-1.39,4.69-2.17,6.79-3.85c0.9-0.72,2.12-1.69,3.64-1.37c1.08,0.23,1.84-0.24,2.65-1.03
		c1.27-1.24,2.82-2.18,4.18-3.32c1.23-1.02,2.21-2.25,3.78-2.94c1.38-0.6,2.62-1.65,3.75-2.69c0.7-0.64,1.06-1.64,1.58-2.48
		c1.31-2.12,2.63-4.24,3.94-6.37c0.06-0.1,0.07-0.24,0.13-0.35c0.71-1.14,1.45-2.27,2.12-3.43c0.29-0.5,0.54-1.05,0.64-1.61
		c0.11-0.6-0.01-1.24,0.04-1.86c0.03-0.27,0.25-0.53,0.39-0.78c0.19-0.34,0.52-0.65,0.56-1c0.09-0.73,0.01-1.49,0.05-2.23
		c0.01-0.25,0.17-0.68,0.3-0.7c0.86-0.09,0.64-0.71,0.67-1.21c0.07-0.86-0.15-1.9,0.26-2.54c0.93-1.41,1.86-2.74,1.77-4.52
		c-0.01-0.22,0.12-0.62,0.24-0.64c1.02-0.2,0.58-1,0.73-1.57c0.33-1.27-0.89-2.91,0.93-3.81C210.9,89.99,210.89,89.78,210.89,89.66z
		 M134.14,78.69c-1.44-1.37-2.76-2.8-3.62-4.6c-0.17-0.36-0.25-0.79-0.26-1.19c-0.04-0.91,0.05-1.83-0.03-2.74
		c-0.19-2.16,0.86-3.79,2.19-5.3c0.82-0.93,1.67-1.86,2.66-2.61c1.3-0.99,2.67-1.99,4.48-1.84c0.66,0.06,1.33,0.05,1.99,0
		c2.03-0.14,3.62,0.79,5.06,2.06c0.78,0.69,1.48,1.46,2.23,2.17c3.26,3.02,3.22,9.86-0.11,12.56c-0.55,0.44-1.01,0.99-1.51,1.48
		c-1.8,1.79-3.79,3.09-6.42,2.61C138.03,81.69,136.01,80.47,134.14,78.69z M176.08,128.11c-1.46,2.01-3.17,3.69-5.25,5.11
		c-1.82,1.24-3.7,0.69-5.55,0.94c0.03,0.1,0.06,0.21,0.09,0.31c-0.49,0.22-0.96,0.58-1.47,0.61c-1.19,0.1-2.39,0.03-3.59,0.03
		c0.03,0.14,0.05,0.28,0.08,0.42c-0.52,0.19-1.04,0.51-1.58,0.55c-1.15,0.09-2.32,0.03-3.47,0.03c0.02,0.14,0.05,0.27,0.08,0.41
		c-0.53,0.19-1.04,0.48-1.59,0.56c-0.69,0.1-1.41-0.02-2.11,0.04c-0.63,0.06-1.56-0.44-1.71,0.79c-0.01,0.09-0.5,0.18-0.78,0.18
		c-1.57,0.02-3.19,0.23-4.71-0.06c-1.22-0.23-2.41-0.95-3.44-1.69c-1.06-0.77-2.02-1.74-2.85-2.76c-1.16-1.43-2.22-2.96-2.02-4.98
		c0.05-0.45,0.08-0.93-0.01-1.37c-0.34-1.78,0.41-3.31,1.38-4.59c1.17-1.54,2.54-3.02,4.11-4.12c1.22-0.85,2.67-1.73,4.41-1.35
		c0.59,0.13,1.24,0.02,1.86,0.02c-0.01-0.16-0.01-0.32-0.01-0.47c0.4-0.18,0.79-0.47,1.2-0.5c0.95-0.08,1.92,0.04,2.86-0.06
		c0.49-0.04,0.95-0.38,1.42-0.58c-0.03-0.13-0.06-0.25-0.09-0.38h4.58c-0.03-0.13-0.07-0.25-0.1-0.38c0.47-0.2,0.93-0.54,1.42-0.59
		c0.9-0.1,1.82-0.03,2.74-0.03c0.67,0.01,1.45,0.18,1.14-0.99c2,0,3.85-0.19,5.63,0.06c1.15,0.17,2.32,0.82,3.26,1.54
		c1.27,0.98,2.51,2.11,3.4,3.42c0.82,1.2,1.75,2.46,1.65,4.13C176.95,124.32,177.35,126.35,176.08,128.11z M185.02,81.7
		c-1.42,1.22-2.92,2.34-4.42,3.46c-0.23,0.18-0.64,0.15-0.96,0.15c-0.96,0.02-1.92-0.06-2.86,0.02c-2.11,0.19-3.68-0.88-5.19-2.1
		c-0.61-0.49-1.12-1.11-1.69-1.65c-1.91-1.8-3.09-3.89-2.83-6.63c0.06-0.66,0.31-1.5-0.73-1.81c-0.13-0.04-0.22-0.44-0.22-0.67
		c-0.02-1.66-0.12-3.33,0.04-4.97c0.08-0.8,0.56-1.66,1.08-2.31c1.53-1.86,3.11-3.58,5.26-4.91c2.1-1.3,4.16-0.79,6.2-0.76
		c1.14,0.02,2.36,0.86,3.35,1.6c1.12,0.83,2.11,1.88,2.99,2.97c1.1,1.36,2.01,2.83,2,4.74c-0.01,0.95-0.7,2.26,0.85,2.83
		c0.1,0.04,0.09,0.46,0.1,0.7c0.01,0.75,0,1.5,0,2.57C188.41,77.56,187.18,79.85,185.02,81.7z"/>
	<path class="st1" d="M176.08,128.11c-1.46,2.01-3.17,3.69-5.25,5.11c-1.82,1.24-3.7,0.69-5.55,0.94c0.03,0.1,0.06,0.21,0.09,0.31
		c-0.49,0.22-0.96,0.58-1.47,0.61c-1.19,0.1-2.39,0.03-3.59,0.03c0.03,0.14,0.05,0.28,0.08,0.42c-0.52,0.19-1.04,0.51-1.58,0.55
		c-1.15,0.09-2.32,0.03-3.47,0.03c0.02,0.14,0.05,0.27,0.08,0.41c-0.53,0.19-1.04,0.48-1.59,0.56c-0.69,0.1-1.41-0.02-2.11,0.04
		c-0.63,0.06-1.56-0.44-1.71,0.79c-0.01,0.09-0.5,0.18-0.78,0.18c-1.57,0.02-3.19,0.23-4.71-0.06c-1.22-0.23-2.41-0.95-3.44-1.69
		c-1.06-0.77-2.02-1.74-2.85-2.76c-1.16-1.43-2.22-2.96-2.02-4.98c0.05-0.45,0.08-0.93-0.01-1.37c-0.34-1.78,0.41-3.31,1.38-4.59
		c1.17-1.54,2.54-3.02,4.11-4.12c1.22-0.85,2.67-1.73,4.41-1.35c0.59,0.13,1.24,0.02,1.86,0.02c-0.01-0.16-0.01-0.32-0.01-0.47
		c0.4-0.18,0.79-0.47,1.2-0.5c0.95-0.08,1.92,0.04,2.86-0.06c0.49-0.04,0.95-0.38,1.42-0.58c-0.03-0.13-0.06-0.25-0.09-0.38h4.58
		c-0.03-0.13-0.07-0.25-0.1-0.38c0.47-0.2,0.93-0.54,1.42-0.59c0.9-0.1,1.82-0.03,2.74-0.03c0.67,0.01,1.45,0.18,1.14-0.99
		c2,0,3.85-0.19,5.63,0.06c1.15,0.17,2.32,0.82,3.26,1.54c1.27,0.98,2.51,2.11,3.4,3.42c0.82,1.2,1.75,2.46,1.65,4.13
		C176.95,124.32,177.35,126.35,176.08,128.11z"/>
	<path class="st1" d="M185.02,81.7c-1.42,1.22-2.92,2.34-4.42,3.46c-0.23,0.18-0.64,0.15-0.96,0.15c-0.96,0.02-1.92-0.06-2.86,0.02
		c-2.11,0.19-3.68-0.88-5.19-2.1c-0.61-0.49-1.12-1.11-1.69-1.65c-1.91-1.8-3.09-3.89-2.83-6.63c0.06-0.66,0.31-1.5-0.73-1.81
		c-0.13-0.04-0.22-0.44-0.22-0.67c-0.02-1.66-0.12-3.33,0.04-4.97c0.08-0.8,0.56-1.66,1.08-2.31c1.53-1.86,3.11-3.58,5.26-4.91
		c2.1-1.3,4.16-0.79,6.2-0.76c1.14,0.02,2.36,0.86,3.35,1.6c1.12,0.83,2.11,1.88,2.99,2.97c1.1,1.36,2.01,2.83,2,4.74
		c-0.01,0.95-0.7,2.26,0.85,2.83c0.1,0.04,0.09,0.46,0.1,0.7c0.01,0.75,0,1.5,0,2.57C188.41,77.56,187.18,79.85,185.02,81.7z"/>
	<path class="st1" d="M148.73,77.2c-0.55,0.44-1.01,0.99-1.51,1.48c-1.8,1.79-3.79,3.09-6.42,2.61c-2.77,0.4-4.79-0.82-6.66-2.6
		c-1.44-1.37-2.76-2.8-3.62-4.6c-0.17-0.36-0.25-0.79-0.26-1.19c-0.04-0.91,0.05-1.83-0.03-2.74c-0.19-2.16,0.86-3.79,2.19-5.3
		c0.82-0.93,1.67-1.86,2.66-2.61c1.3-0.99,2.67-1.99,4.48-1.84c0.66,0.06,1.33,0.05,1.99,0c2.03-0.14,3.62,0.79,5.06,2.06
		c0.78,0.69,1.48,1.46,2.23,2.17C152.1,67.66,152.06,74.5,148.73,77.2z"/>
</g>
</svg>
