<?xml version="1.0" encoding="utf-8"?>
<!-- Generator: Adobe Illustrator 27.5.0, SVG Export Plug-In . SVG Version: 6.00 Build 0)  -->
<svg version="1.1" xmlns="http://www.w3.org/2000/svg" xmlns:xlink="http://www.w3.org/1999/xlink" x="0px" y="0px"
	 viewBox="0 0 600 600" style="enable-background:new 0 0 600 600;" xml:space="preserve">
<style type="text/css">
	.st0{fill:#FF8D1A;}
	.st1{fill:none;}
	.st2{fill:#FFFFFF;}
</style>
<g id="图层_3">
	<rect class="st0" width="600" height="600"/>
</g>
<g id="图层_1">
	<path d="M405.56,398.56v-76.12l-128-128l-84,84l128,128h75.88l-28.09-28.09c-1.79,0.71-3.75,1.09-5.79,1.09c-8.84,0-16-7.16-16-16
		c0-2.04,0.38-4,1.09-5.79c1.41-3.65,4.12-6.65,7.57-8.43c2.2-1.14,4.69-1.78,7.34-1.78c8.84,0,16,7.16,16,16
		c0,2.65-0.64,5.14-1.78,7.34L405.56,398.56z"/>
	<path class="st1" d="M405.56,398.56v7.88h-8.12l-28.09-28.09c3.65-1.41,6.65-4.12,8.43-7.57L405.56,398.56z"/>
	<line class="st1" x1="405.5" y1="414.5" x2="397.44" y2="406.44"/>
	<polyline class="st1" points="369.35,378.35 348.65,357.65 231.5,240.5 193,202 	"/>
	<line class="st1" x1="409.5" y1="402.5" x2="405.56" y2="398.56"/>
	<polyline class="st1" points="377.78,370.78 356.22,349.22 239.5,232.5 201,194 	"/>
</g>
<g id="图层_2">
	<path class="st2" d="M406,383.12V307L278,179l-84,84l128,128h75.88l-28.09-28.09C368,363.62,366.04,364,364,364
		c-8.84,0-16-7.16-16-16c0-2.04,0.38-4,1.09-5.79c1.41-3.65,4.12-6.65,7.57-8.43c2.2-1.14,4.69-1.78,7.34-1.78c8.84,0,16,7.16,16,16
		c0,2.65-0.64,5.14-1.78,7.34L406,383.12z"/>
</g>
</svg>
