<?xml version="1.0" encoding="utf-8"?>
<!-- Generator: Adobe Illustrator 27.5.0, SVG Export Plug-In . SVG Version: 6.00 Build 0)  -->
<svg version="1.1" id="图层_1" xmlns="http://www.w3.org/2000/svg" xmlns:xlink="http://www.w3.org/1999/xlink" x="0px" y="0px"
	 viewBox="0 0 1800 800" style="enable-background:new 0 0 1800 800;" xml:space="preserve">
<style type="text/css">
	.st0{display:none;}
	.st1{display:inline;fill:#FFFFFF;stroke:#000000;stroke-width:10;stroke-miterlimit:10;}
	.st2{display:inline;fill:#FFFFFF;stroke:#000000;stroke-width:10;stroke-linejoin:bevel;stroke-miterlimit:10;}
	.st3{display:inline;fill:none;stroke:#000000;stroke-width:10;stroke-miterlimit:10;}
	.st4{fill:#FFFFFF;stroke:#000000;stroke-width:10;stroke-miterlimit:10;}
	.st5{fill:none;stroke:#000000;stroke-width:10;stroke-miterlimit:10;}
	.st6{fill:#FF8D1A;}
	.st7{fill:#FFFFFF;}
</style>
<g id="图层_1_00000175300213258212286350000011616442012355036861_" class="st0">
	<rect x="1002.96" y="316.39" class="st1" width="33.06" height="317.35"/>
	<rect x="758.6" y="316.39" class="st1" width="33.06" height="317.35"/>
	<polyline class="st1" points="725.69,407.12 725.69,442.9 1069.43,442.9 1069.43,408.15 	"/>
	<rect x="725.49" y="442.9" class="st1" width="33.06" height="317.35"/>
	<rect x="1036.19" y="443.06" class="st1" width="33.06" height="317.35"/>
	<rect x="758.1" y="38.91" class="st1" width="277.68" height="277.68"/>
	<path class="st2" d="M1075.47,429.77"/>
	<polyline class="st2" points="725.25,412.16 758.92,316.59 1036.1,316.59 1069.27,411.95 	"/>
	<line class="st3" x1="1069.43" y1="411.89" x2="724.49" y2="411.89"/>
	<path class="st1" d="M535,97"/>
</g>
<path class="st4" d="M877,154c0.89-2.6,6.23-18.12,18-19c7.59-0.57,15.36,5.13,18,12c3.69,9.58-3.87,18.1-7,27
	c-10.32,29.36,32.01,50.36,41,98c4.78,25.33,0.98,62.68-23,79c-15.33,10.43-42.47,14.7-56,2c-29.83-28,26.3-119.95,10-169
	C876.97,180.9,872.26,167.78,877,154z"/>
<path class="st5" d="M878,148.87c2.97,15.14,16.63,22.27,25,19.13c6.34-2.38,10.85-11.1,10-21"/>
<path class="st5" d="M897,166c-0.73-13.53-0.16-33.83,7-57c5.08-16.44,11.99-29.51,18-39"/>
<g>
	<path class="st6" d="M943.76,112.77c-4.22,0-8.36-1.16-12.28-3.45c-2.47-1.44-4.98-3.46-7.63-5.6c-5.25-4.23-11.19-9.03-16.78-9.03
		c-1.39,0-2.71,0.29-4.06,0.88c-5.94,2.63-9.2,5.82-12.08,8.64c-2.96,2.9-6.02,5.9-10.74,5.9c-0.71,0-1.43-0.07-2.16-0.21
		c-8.26-1.6-14.14-10.78-16.89-18.83c-2.85-8.37-3.8-19.69,2.09-26.39c2.86-3.25,6.78-4.84,11.99-4.84c2.71,0,5.55,0.42,8.3,0.82
		c2.7,0.4,5.5,0.81,8.08,0.81c3.57,0,6.14-0.76,8.34-2.45c5.48-4.22,5.73-12.79,5.97-21.09c0.27-9.35,0.55-19.02,8.73-23.37
		c2.26-1.2,4.89-1.81,7.82-1.81c11.3,0,26.05,9.42,26.52,20.01c0.29,6.4-4.44,9.89-8.25,12.7c-3.32,2.44-5.36,4.1-5.85,6.51
		c-0.67,3.32,3.11,5.71,11.29,9.99c10.49,5.5,24.86,13.03,20.68,31.15C964.2,104.69,954.7,112.77,943.76,112.77z"/>
	<path d="M922.47,17.77c9.23,0,21.21,8.07,21.53,15.23c0.34,7.46-12.2,9.03-14,18c-3.34,16.6,37.95,15.2,32,41
		c-2.19,9.48-9.69,15.77-18.24,15.77c-3.18,0-6.5-0.87-9.76-2.77c-7.12-4.16-16.4-15.31-26.92-15.31c-1.98,0-4.01,0.4-6.08,1.31
		c-12.85,5.68-15.13,14.12-20.79,14.12c-0.39,0-0.79-0.04-1.21-0.12c-11.3-2.19-20-27.91-12-37c2.12-2.42,4.97-3.14,8.23-3.14
		c4.88,0,10.69,1.62,16.38,1.62c3.97,0,7.89-0.79,11.39-3.48c14.1-10.85,2.27-37.77,14-44C918.6,18.15,920.47,17.77,922.47,17.77
		 M922.47,7.77c-3.75,0-7.17,0.81-10.17,2.4c-10.74,5.7-11.09,17.86-11.38,27.63c-0.21,7.13-0.42,14.5-4.03,17.27
		c-0.91,0.7-2.24,1.41-5.29,1.41c-2.22,0-4.72-0.37-7.36-0.75c-2.92-0.43-5.94-0.87-9.02-0.87c-6.63,0-11.93,2.2-15.74,6.53
		c-6.2,7.05-7.35,18.75-3.07,31.3c4.14,12.15,11.87,20.41,20.67,22.12c1.04,0.2,2.08,0.3,3.11,0.3c6.76,0,10.91-4.07,14.24-7.33
		c2.7-2.64,5.48-5.38,10.6-7.64c0.7-0.31,1.35-0.45,2.03-0.45c3.82,0,9.26,4.39,13.64,7.92c2.8,2.26,5.45,4.39,8.24,6.03
		c4.63,2.7,9.75,4.13,14.8,4.13c13.28,0,24.79-9.67,27.99-23.52c2.22-9.63-0.02-18.37-6.46-25.27c-4.84-5.18-11.18-8.5-16.77-11.43
		c-2.46-1.29-6.78-3.56-8.43-5.04c0.73-0.87,2.62-2.27,3.63-3.01c4-2.95,10.69-7.88,10.27-16.95c-0.3-6.6-4.45-13.01-11.7-18.05
		C936.15,10.22,928.93,7.77,922.47,7.77L922.47,7.77z"/>
</g>
<circle class="st7" cx="918.5" cy="72.5" r="9.5"/>
<path class="st5" d="M859,91c6.91,6.92,19.24,21.25,25,43c2.9,10.94,3.32,20.66,3,28"/>
<path class="st5" d="M941,118c-3.78-0.39-16.38-1.22-28,7c-18.88,13.35-17.11,37.79-17,39"/>
<g>
	<path class="st6" d="M874.85,144.37c-8.45,0-17.3-2.09-24.29-5.73c-7.03-3.66-11.15-8.27-14.46-11.96c-3.51-3.92-4.94-5.3-7.2-5.3
		l-0.19,0c-2.85,0.08-4.86,2.27-7.91,5.82c-3.52,4.1-7.9,9.2-15.5,9.57c-0.28,0.01-0.57,0.02-0.86,0.02
		c-11.49,0-25.1-11.34-25.45-25.97c-0.25-10.57,6.88-21.1,16.95-25.03c2.54-0.99,5.19-1.49,7.88-1.49c4.41,0,8.18,1.29,11.51,2.43
		c2.32,0.79,4.51,1.54,6.18,1.54h0c0.8,0,1.46-0.17,2.12-0.55c1.66-0.95,2.41-4.34,4.76-15.96c0.69-3.43,1.52-7.5,2.55-12.34
		c5.02-23.49,6.92-27.9,11.27-31.83c5.3-4.76,13.37-7.6,21.59-7.6c8.34,0,15.21,2.91,18.37,7.78c3.5,5.41,1.46,10.61-1.64,18.47
		c-1.64,4.17-3.69,9.36-5.88,16.5c-4.42,14.4-9,29.29-5.26,33.12c0.48,0.49,1.32,1.05,3.59,1.05c2.14,0,4.75-0.49,7.51-1.01
		c3.25-0.61,6.61-1.25,9.98-1.25c4.97,0,8.89,1.4,11.98,4.29c8.4,7.86,7.27,24.06,0.65,33.31
		C897.59,139.96,887.29,144.37,874.85,144.37z"/>
	<path d="M863.81,25c6.22,0,11.84,1.91,14.17,5.5c3.31,5.11-1.93,10.68-8.1,30.79c-5.6,18.23-9.87,32.13-4.05,38.08
		c1.88,1.92,4.36,2.55,7.17,2.55c5.31,0,11.78-2.26,17.49-2.26c3.21,0,6.18,0.71,8.57,2.95c6.18,5.78,5.56,18.98,0,26.74
		c-5.02,6.99-14.4,10.02-24.2,10.02c-7.7,0-15.66-1.87-21.98-5.16c-13.21-6.88-15.09-17.82-23.97-17.83c-0.11,0-0.22,0-0.34,0.01
		c-10.44,0.31-12.66,14.86-23.5,15.39c-0.2,0.01-0.41,0.02-0.62,0.02c-9.03,0-20.18-9.49-20.45-21.09
		c-0.21-9.05,6.27-17.33,13.77-20.26c2.12-0.83,4.14-1.15,6.06-1.15c6.75,0,12.37,3.98,17.7,3.98c1.55,0,3.08-0.34,4.6-1.21
		c4.63-2.65,4.6-7.58,9.72-31.6c4.92-23.01,6.64-26.37,9.73-29.16C850.34,27.02,857.4,25,863.81,25 M863.81,15L863.81,15
		c-9.57,0-18.65,3.24-24.93,8.88c-5.62,5.07-7.77,10.87-12.82,34.51c-1.04,4.88-1.88,9.05-2.56,12.4
		c-1.09,5.37-2.05,10.13-2.77,12.39c-1.02-0.22-2.52-0.73-3.77-1.16c-3.52-1.2-7.9-2.7-13.13-2.7c-3.31,0-6.57,0.62-9.69,1.83
		c-11.97,4.67-20.43,17.21-20.14,29.81c0.19,8.04,3.74,15.8,9.99,21.84c5.92,5.72,13.37,9.01,20.46,9.01c0.37,0,0.74-0.01,1.11-0.03
		c9.74-0.48,15.34-6.99,19.04-11.31c1.36-1.58,3.39-3.94,4.21-4.07c0.77,0.49,2.38,2.29,3.57,3.62c3.39,3.79,8.03,8.98,15.88,13.06
		c7.79,4.06,17.24,6.29,26.6,6.29c14.07,0,25.85-5.17,32.32-14.19c7.85-10.95,9.24-30.02-1.29-39.88c-4.01-3.75-9.19-5.64-15.4-5.64
		c-3.84,0-7.59,0.71-10.91,1.33c-2.47,0.47-4.81,0.91-6.48,0.93c-0.11-1.08-0.11-3.35,0.75-7.61c1.11-5.51,3.19-12.27,5.59-20.09
		c2.13-6.96,4.14-12.05,5.75-16.14c3.27-8.3,6.09-15.46,1.19-23.02C882.23,18.67,874,15,863.81,15L863.81,15z"/>
</g>
<circle class="st7" cx="843.5" cy="102.5" r="10.5"/>
<g>
	<path class="st6" d="M943.37,179.88c-10.45,0-23.75-6.81-26.89-16.95c-2.22-7.13,1.34-12.87,4.48-17.93
		c2.89-4.66,5.38-8.68,4.45-13.91c-0.72-4.06-3.12-6.56-5.67-9.21c-3.07-3.2-6.88-7.17-5.91-13.46
		c1.61-10.42,14.94-17.68,25.9-17.68c0.56,0,1.11,0.02,1.66,0.05c8.43,0.55,13.63,5.2,17.43,8.6c2.71,2.43,4.46,3.92,6.19,3.92
		c0,0,0,0,0,0c0.16,0,0.33-0.01,0.51-0.03c2.6-0.34,4.36-3.35,7.01-8.24c3.26-6.01,7.32-13.49,16.27-16.24
		c2.2-0.67,4.55-1.02,7-1.02c9.36,0,18.48,4.9,23.24,12.48c6.98,11.11,3.63,25.04-3.06,32.51c-7.38,8.23-19.05,9.35-29.49,9.35
		c-4.09,0-8.25-0.18-12.65-0.38c-6.16-0.27-10.4-0.89-13.51-1.34c-1.82-0.26-3.25-0.47-4.18-0.47c-0.62,0-0.69,0.06-0.93,0.25
		c-3.02,2.39-0.97,11.66,0.68,19.1c2.35,10.61,4.78,21.59-2.38,27.46C950.98,178.79,947.47,179.88,943.37,179.88z"/>
	<path d="M995.79,82.77c7.15,0,14.92,3.62,19.01,10.14c5.38,8.57,3.14,20.16-2.55,26.51c-5.67,6.32-14.97,7.68-25.77,7.68
		c-3.98,0-8.15-0.18-12.43-0.37c-9.92-0.44-14.71-1.82-17.91-1.82c-1.6,0-2.8,0.35-4.04,1.33c-10.71,8.49,8.02,38.6-1.76,46.61
		c-1.71,1.4-4.18,2.03-6.97,2.03c-8.4,0-19.72-5.73-22.12-13.43c-3.19-10.27,11.53-17.49,9.07-31.24
		c-1.97-11.07-12.75-13.32-11.56-21.03c1.09-7.07,11.41-13.44,20.96-13.44c0.45,0,0.9,0.01,1.34,0.04
		c12.36,0.8,15.79,12.53,23.94,12.53c0.38,0,0.76-0.02,1.16-0.08c10.84-1.42,10.5-20.48,24.1-24.66
		C992,83.04,993.87,82.77,995.79,82.77 M995.79,72.77L995.79,72.77c-2.95,0-5.79,0.42-8.46,1.24c-10.91,3.35-15.7,12.19-19.2,18.64
		c-0.94,1.74-2.29,4.22-3.23,5.35c-0.79-0.58-1.93-1.6-2.75-2.33c-4.09-3.66-10.28-9.2-20.43-9.86c-0.66-0.04-1.32-0.06-1.99-0.06
		c-13.26,0-28.82,8.81-30.84,21.92c-1.35,8.73,4.03,14.34,7.25,17.69c2.49,2.59,3.92,4.18,4.35,6.62c0.57,3.2-0.98,5.9-3.77,10.4
		c-3.33,5.38-7.89,12.74-5,22.05c3.93,12.64,19.5,20.47,31.67,20.47c5.27,0,9.88-1.49,13.31-4.3c9.54-7.81,6.65-20.88,4.09-32.41
		c-0.79-3.57-2.14-9.64-2.13-12.99c0.32,0.04,0.64,0.09,0.96,0.14c3.21,0.47,7.6,1.11,14.01,1.39c4.27,0.19,8.68,0.38,12.87,0.38
		c11.55,0,24.53-1.31,33.22-11.01c7.91-8.82,11.85-25.32,3.57-38.5C1017.61,78.59,1006.83,72.77,995.79,72.77L995.79,72.77z"/>
</g>
<circle class="st7" cx="943.12" cy="114.06" r="8"/>
</svg>
