<?xml version="1.0" encoding="utf-8"?>
<!-- Generator: Adobe Illustrator 27.5.0, SVG Export Plug-In . SVG Version: 6.00 Build 0)  -->
<svg version="1.1" xmlns="http://www.w3.org/2000/svg" xmlns:xlink="http://www.w3.org/1999/xlink" x="0px" y="0px"
	 viewBox="0 0 1800 800" style="enable-background:new 0 0 1800 800;" xml:space="preserve">
<style type="text/css">
	.st0{display:none;}
	.st1{display:inline;fill:#FFFFFF;stroke:#000000;stroke-width:10;stroke-miterlimit:10;}
	.st2{display:inline;fill:#FFFFFF;stroke:#000000;stroke-width:10;stroke-linejoin:bevel;stroke-miterlimit:10;}
	.st3{display:inline;fill:none;stroke:#000000;stroke-width:10;stroke-miterlimit:10;}
	.st4{fill:#FFFFFF;stroke:#000000;stroke-width:10;stroke-miterlimit:10;}
	.st5{fill:none;stroke:#000000;stroke-width:10;stroke-miterlimit:10;}
	.st6{fill:#FF8D1A;}
	.st7{fill:#FFFFFF;}
	.st8{fill:#FF8D1A;stroke:#000000;stroke-width:10;stroke-miterlimit:10;}
</style>
<g id="图层_1" class="st0">
	<rect x="1002.96" y="316.39" class="st1" width="33.06" height="317.35"/>
	<rect x="758.6" y="316.39" class="st1" width="33.06" height="317.35"/>
	<polyline class="st1" points="725.69,407.12 725.69,442.9 1069.43,442.9 1069.43,408.15 	"/>
	<rect x="725.49" y="442.9" class="st1" width="33.06" height="317.35"/>
	<rect x="1036.19" y="443.06" class="st1" width="33.06" height="317.35"/>
	<rect x="758.1" y="38.91" class="st1" width="277.68" height="277.68"/>
	<path class="st2" d="M1075.47,429.77"/>
	<polyline class="st2" points="725.25,412.16 758.92,316.59 1036.1,316.59 1069.27,411.95 	"/>
	<line class="st3" x1="1069.43" y1="411.89" x2="724.49" y2="411.89"/>
	<path class="st1" d="M296,544"/>
</g>
<g id="图层_2">
	<path class="st4" d="M877,154c0.89-2.6,6.23-18.12,18-19c7.59-0.57,15.36,5.13,18,12c3.69,9.58-3.87,18.1-7,27
		c-10.32,29.36,32.01,50.36,41,98c4.78,25.33,0.98,62.68-23,79c-15.33,10.43-42.47,14.7-56,2c-29.83-28,26.3-119.95,10-169
		C876.97,180.9,872.26,167.78,877,154z"/>
	<path class="st5" d="M878,148.87c2.97,15.14,16.63,22.27,25,19.13c6.34-2.38,10.85-11.1,10-21"/>
	<path class="st5" d="M897,166c-0.73-13.53-0.16-33.83,7-57c5.08-16.44,11.99-29.51,18-39"/>
	<g>
		<path class="st6" d="M943.76,112.77c-4.22,0-8.36-1.16-12.28-3.45c-2.48-1.44-4.98-3.47-7.64-5.61
			c-5.24-4.23-11.19-9.02-16.77-9.02c-1.39,0-2.71,0.29-4.05,0.88c-5.95,2.63-9.2,5.83-12.08,8.64c-2.96,2.9-6.02,5.9-10.74,5.9
			c-0.71,0-1.43-0.07-2.16-0.21c-8.26-1.6-14.14-10.77-16.89-18.81c-2.86-8.37-3.81-19.7,2.09-26.4c2.86-3.25,6.79-4.84,11.99-4.84
			c2.71,0,5.55,0.42,8.3,0.82c2.7,0.4,5.49,0.81,8.08,0.81c3.57,0,6.14-0.75,8.34-2.45c5.48-4.22,5.73-12.79,5.98-21.09
			c0.27-9.35,0.55-19.02,8.73-23.36c2.26-1.2,4.89-1.81,7.81-1.81c11.29,0,26.05,9.42,26.53,20c0.29,6.4-4.44,9.89-8.25,12.7
			c-3.32,2.45-5.36,4.1-5.85,6.51c-0.67,3.32,3.11,5.71,11.29,9.99c10.49,5.5,24.86,13.03,20.68,31.15
			C964.2,104.69,954.7,112.77,943.76,112.77z"/>
		<path d="M922.47,17.77c9.24,0,21.21,8.07,21.53,15.23c0.34,7.46-12.2,9.03-14,18c-3.34,16.6,37.95,15.2,32,41
			c-2.19,9.48-9.69,15.77-18.24,15.77c-3.18,0-6.5-0.87-9.76-2.77c-7.12-4.15-16.4-15.31-26.92-15.31c-1.98,0-4.01,0.4-6.08,1.31
			c-12.85,5.69-15.13,14.12-20.79,14.12c-0.39,0-0.79-0.04-1.21-0.12c-11.3-2.19-20-27.91-12-37c2.13-2.42,4.98-3.14,8.24-3.14
			c4.88,0,10.69,1.62,16.38,1.62c3.97,0,7.89-0.79,11.39-3.48c14.1-10.85,2.27-37.77,14-44C918.6,18.15,920.47,17.77,922.47,17.77
			 M922.47,7.77c-3.75,0-7.17,0.81-10.16,2.4c-10.74,5.7-11.09,17.86-11.38,27.63c-0.21,7.13-0.42,14.5-4.03,17.27
			c-0.91,0.7-2.24,1.41-5.29,1.41c-2.22,0-4.72-0.37-7.36-0.75c-2.92-0.43-5.94-0.87-9.02-0.87c-6.63,0-11.93,2.2-15.74,6.53
			c-6.21,7.05-7.35,18.76-3.07,31.32c4.15,12.14,11.87,20.41,20.67,22.11c1.04,0.2,2.08,0.3,3.11,0.3c6.76,0,10.91-4.07,14.24-7.33
			c2.7-2.64,5.48-5.38,10.6-7.64c0.7-0.31,1.35-0.46,2.03-0.46c3.82,0,9.26,4.39,13.63,7.92c2.8,2.26,5.45,4.4,8.26,6.03
			c4.63,2.7,9.75,4.13,14.8,4.13c13.28,0,24.79-9.67,27.99-23.52c2.22-9.63-0.01-18.36-6.46-25.27c-4.84-5.18-11.18-8.5-16.77-11.43
			c-2.46-1.29-6.79-3.56-8.43-5.04c0.73-0.87,2.62-2.27,3.63-3.01c4-2.95,10.68-7.88,10.27-16.95c-0.3-6.6-4.46-13.01-11.7-18.06
			C936.14,10.22,928.92,7.77,922.47,7.77L922.47,7.77z"/>
	</g>
	<circle class="st7" cx="918.5" cy="72.5" r="9.5"/>
</g>
<g id="图层_3">
	<path class="st5" d="M859,91c6.91,6.92,19.24,21.25,25,43c2.9,10.94,3.32,20.66,3,28"/>
	<path class="st5" d="M941,118c-3.78-0.39-16.38-1.22-28,7c-18.88,13.35-17.11,37.79-17,39"/>
	<g>
		<path class="st6" d="M874.84,144.37c-8.45,0-17.3-2.09-24.29-5.72c-7.04-3.67-11.16-8.27-14.46-11.97c-3.51-3.92-4.94-5.3-7.2-5.3
			l-0.18,0c-2.85,0.09-4.86,2.27-7.91,5.82c-3.52,4.1-7.9,9.19-15.49,9.57c-0.29,0.01-0.58,0.02-0.87,0.02
			c-11.49,0-25.1-11.34-25.44-25.96c-0.24-10.59,6.89-21.11,16.96-25.03c2.54-0.99,5.18-1.49,7.87-1.49c4.41,0,8.18,1.29,11.52,2.43
			c2.32,0.79,4.51,1.54,6.18,1.54c0,0,0,0,0,0c0.8,0,1.46-0.17,2.12-0.55c1.66-0.95,2.41-4.33,4.76-15.93
			c0.7-3.44,1.52-7.52,2.56-12.37c5.02-23.52,6.91-27.92,11.27-31.84c5.29-4.76,13.36-7.59,21.58-7.59c8.34,0,15.21,2.91,18.37,7.79
			c3.5,5.41,1.45,10.61-1.65,18.49c-1.64,4.17-3.68,9.36-5.87,16.48c-4.42,14.4-9,29.29-5.26,33.12c0.48,0.49,1.32,1.05,3.59,1.05
			c2.14,0,4.75-0.49,7.51-1.01c3.25-0.61,6.61-1.25,9.98-1.25c4.97,0,8.89,1.4,11.98,4.29c8.41,7.86,7.28,24.07,0.65,33.31
			C897.59,139.96,887.29,144.37,874.84,144.37z"/>
		<path d="M863.81,25c6.22,0,11.84,1.91,14.17,5.5c3.31,5.11-1.93,10.68-8.1,30.79c-5.6,18.23-9.87,32.13-4.05,38.08
			c1.88,1.92,4.36,2.55,7.17,2.55c5.31,0,11.78-2.26,17.48-2.26c3.21,0,6.18,0.71,8.57,2.95c6.18,5.78,5.56,18.98,0,26.74
			c-5.02,6.99-14.4,10.02-24.2,10.02c-7.7,0-15.66-1.87-21.98-5.16c-13.22-6.88-15.09-17.83-23.97-17.83c-0.11,0-0.22,0-0.33,0
			c-10.44,0.31-12.66,14.86-23.5,15.39c-0.21,0.01-0.41,0.02-0.62,0.02c-9.03,0-20.18-9.5-20.44-21.08
			c-0.21-9.05,6.27-17.33,13.77-20.25c2.12-0.83,4.13-1.15,6.05-1.15c6.75,0,12.37,3.98,17.7,3.98c1.55,0,3.08-0.34,4.61-1.21
			c4.63-2.65,4.6-7.58,9.72-31.6c4.91-23.02,6.62-26.38,9.72-29.17C850.34,27.02,857.4,25,863.81,25 M863.81,15L863.81,15
			c-9.57,0-18.65,3.24-24.93,8.88c-5.61,5.05-7.77,10.85-12.82,34.52c-1.04,4.88-1.89,9.06-2.57,12.42
			c-1.08,5.36-2.05,10.11-2.77,12.36c-1.02-0.22-2.52-0.73-3.77-1.16c-3.52-1.2-7.9-2.7-13.14-2.7c-3.31,0-6.56,0.62-9.68,1.83
			c-11.96,4.65-20.44,17.19-20.14,29.8c0.19,8.03,3.73,15.79,9.98,21.84c5.92,5.73,13.37,9.01,20.46,9.01
			c0.37,0,0.75-0.01,1.12-0.03c9.73-0.48,15.33-7,19.03-11.31c1.35-1.57,3.38-3.93,4.21-4.07c0.77,0.49,2.38,2.29,3.57,3.62
			c3.39,3.79,8.04,8.98,15.88,13.07c7.79,4.06,17.23,6.29,26.6,6.29c14.07,0,25.85-5.17,32.33-14.19
			c7.86-10.94,9.26-30.01-1.3-39.87c-4.01-3.74-9.18-5.64-15.39-5.64c-3.84,0-7.59,0.71-10.91,1.33c-2.47,0.47-4.81,0.91-6.47,0.93
			c-0.11-1.08-0.11-3.35,0.75-7.61c1.11-5.51,3.19-12.27,5.59-20.09c2.13-6.94,4.14-12.03,5.74-16.12
			c3.27-8.3,6.09-15.47,1.19-23.04C882.23,18.67,874.01,15,863.81,15L863.81,15z"/>
	</g>
	<circle class="st7" cx="843.5" cy="102.5" r="10.5"/>
	<g>
		<path class="st6" d="M943.37,179.89c-10.44,0-23.74-6.81-26.89-16.95c-2.22-7.14,1.34-12.87,4.48-17.94
			c2.89-4.66,5.38-8.68,4.45-13.91c-0.72-4.05-3.12-6.56-5.67-9.21c-3.07-3.2-6.88-7.18-5.92-13.46
			c1.6-10.42,14.93-17.69,25.9-17.69c0.56,0,1.11,0.02,1.67,0.05c8.43,0.55,13.63,5.2,17.42,8.6c2.71,2.43,4.46,3.92,6.19,3.92
			c0.16,0,0.33-0.01,0.51-0.04c2.6-0.34,4.36-3.35,7.01-8.24c3.26-6.01,7.32-13.49,16.28-16.24c2.2-0.67,4.55-1.02,7-1.02
			c9.36,0,18.48,4.9,23.24,12.47c6.98,11.1,3.63,25.03-3.05,32.5c-7.38,8.24-19.04,9.35-29.48,9.35c-4.09,0-8.26-0.18-12.67-0.38
			c-6.15-0.27-10.4-0.89-13.5-1.34c-1.82-0.26-3.25-0.47-4.18-0.47c-0.62,0-0.7,0.06-0.94,0.25c-3.02,2.39-0.96,11.66,0.68,19.1
			c2.35,10.62,4.78,21.59-2.38,27.46C950.98,178.79,947.48,179.89,943.37,179.89z"/>
		<path d="M995.8,82.78c7.14,0,14.91,3.62,19,10.13c5.38,8.57,3.14,20.16-2.55,26.51c-5.66,6.32-14.96,7.68-25.76,7.68
			c-3.98,0-8.16-0.18-12.45-0.37c-9.92-0.44-14.71-1.82-17.91-1.82c-1.6,0-2.8,0.35-4.04,1.33c-10.71,8.49,8.02,38.6-1.76,46.61
			c-1.71,1.4-4.18,2.03-6.97,2.03c-8.4,0-19.72-5.72-22.12-13.43c-3.19-10.27,11.53-17.49,9.07-31.24
			c-1.97-11.07-12.75-13.32-11.56-21.03c1.09-7.07,11.41-13.45,20.96-13.45c0.45,0,0.9,0.01,1.34,0.04
			c12.36,0.8,15.79,12.52,23.94,12.52c0.38,0,0.76-0.03,1.16-0.08c10.84-1.42,10.5-20.48,24.1-24.66
			C992.01,83.04,993.88,82.78,995.8,82.78 M995.8,72.78L995.8,72.78c-2.95,0-5.8,0.42-8.47,1.24c-10.91,3.35-15.7,12.19-19.2,18.64
			c-0.94,1.74-2.29,4.22-3.23,5.35c-0.79-0.58-1.93-1.6-2.75-2.33c-4.09-3.66-10.28-9.2-20.43-9.86c-0.65-0.04-1.32-0.06-1.99-0.06
			c-13.27,0-28.83,8.81-30.84,21.93c-1.34,8.73,4.04,14.33,7.25,17.68c2.49,2.59,3.92,4.18,4.35,6.62
			c0.57,3.19-0.98,5.89-3.78,10.39c-3.33,5.38-7.9,12.74-5,22.05c3.93,12.64,19.5,20.46,31.67,20.46c5.27,0,9.88-1.49,13.31-4.3
			c9.54-7.82,6.65-20.88,4.09-32.41c-0.79-3.57-2.14-9.64-2.13-12.99c0.32,0.05,0.64,0.09,0.96,0.14c3.21,0.47,7.6,1.1,14,1.39
			c4.27,0.19,8.69,0.38,12.89,0.38c11.54,0,24.52-1.31,33.21-11.01c7.91-8.83,11.84-25.32,3.56-38.5
			C1017.62,78.59,1006.83,72.78,995.8,72.78L995.8,72.78z"/>
	</g>
	<circle class="st7" cx="943.12" cy="114.06" r="8"/>
</g>
<g id="图层_4">
	<path class="st5" d="M973,42c-15.01,15.27-32.84,36.38-49,64c-11.93,20.38-20.2,39.59-26,56"/>
	<g>
		<path class="st6" d="M990.68,104.55c-13.83,0-23.46-17.29-26.29-28.19c-1.63-6.29-1.36-11.32-1.17-14.99
			c0.14-2.62,0.19-4.36-0.26-4.75c-0.13-0.11-0.39-0.32-1.26-0.32c-1.51,0-3.65,0.62-5.91,1.27c-3.02,0.88-6.45,1.87-10.03,1.87
			c-3.13,0-5.99-0.78-8.48-2.31c-8.6-5.29-12.28-19.27-7.42-28.22c3.17-5.83,8.32-6.92,16.13-8.57c4.17-0.88,9.35-1.98,16.34-4.03
			c5.59-1.64,9.97-3.2,13.48-4.46c5.08-1.81,8.44-3.01,11.5-3.01c2.46,0,4.58,0.79,6.29,2.34c4.68,4.24,3.25,10.87,2.1,16.2
			c-0.65,3.01-1.63,7.57-0.49,8.7c0.11,0.11,0.3,0.3,1.3,0.3c0.98,0,2.22-0.2,3.55-0.41c1.67-0.27,3.57-0.57,5.55-0.57
			c3.27,0,6.02,0.83,8.4,2.52c11.31,8.06,7,30.94,0.33,44.6c-3.2,6.54-10.68,21.86-23.46,22.03L990.68,104.55z"/>
		<path d="M987.32,13.83c1.19,0,2.13,0.32,2.93,1.05c5.26,4.77-4.51,18.83,1.45,24.74c1.36,1.35,3.01,1.76,4.82,1.76
			c2.81,0,6.01-0.98,9.1-0.98c1.91,0,3.79,0.38,5.5,1.6c8.19,5.84,5,25.51-1.26,38.34c-2.8,5.74-9.33,19.1-19.03,19.22
			c-0.05,0-0.09,0-0.14,0c-9.83,0-18.63-13.59-21.45-24.44c-3.06-11.81,1.46-18.51-3.06-22.31c-1.3-1.09-2.82-1.5-4.48-1.5
			c-4.64,0-10.44,3.14-15.94,3.14c-2.01,0-3.99-0.42-5.86-1.57c-6.39-3.93-9.22-14.99-5.64-21.58c3.22-5.92,9.49-4.32,29.49-10.19
			C976.88,17.24,983.43,13.83,987.32,13.83 M987.32,3.83c-3.92,0-7.6,1.31-13.18,3.3c-3.46,1.23-7.76,2.77-13.21,4.37
			c-6.81,2-11.89,3.07-15.97,3.94c-8.17,1.73-15.22,3.22-19.49,11.08c-6.12,11.26-1.65,28.2,9.19,34.87
			c3.29,2.02,7.02,3.05,11.1,3.05c4.29,0,8.24-1.14,11.42-2.06c0.32-0.09,0.66-0.19,1.01-0.29c-0.18,3.75-0.3,9.08,1.37,15.53
			c1.83,7.07,5.46,14.37,9.95,20.01c6.21,7.8,13.53,11.93,21.18,11.93l0.26,0c15.86-0.2,24.29-17.46,27.89-24.83
			c3.84-7.85,6.4-17.11,7.04-25.41c1.15-14.95-4.24-22.09-8.95-25.46c-3.21-2.29-7.02-3.45-11.3-3.45c-2.02,0-3.92,0.25-5.53,0.5
			c0.17-0.88,0.36-1.77,0.51-2.47c1.27-5.88,3.18-14.78-3.63-20.96C995.14,5.81,991.97,3.83,987.32,3.83L987.32,3.83z"/>
	</g>
	<circle class="st7" cx="974.24" cy="45.89" r="5.22"/>
	<path class="st5" d="M822,379c28.58,13.18,51.56,14.83,67.05,14c47.38-2.54,70.27-30.72,119.67-28c18.77,1.03,33.85,6.11,43.28,10"
		/>
	<g>
		<path class="st6" d="M1031.25,407.46c-7.8,0-14.73-2.97-19.02-8.14c-4.9-5.91-7.62-15.94-3.02-22.87c3.19-4.8,7.98-5.46,11.84-6
			c3.48-0.48,5.71-0.88,7.75-2.91c3.33-3.31,4.68-9.83,2.93-14.23c-0.87-2.21-2.32-3.28-3.99-4.52c-2.01-1.5-5.06-3.76-5.15-8.03
			c-0.06-2.91,1.27-5.78,3.97-8.53c5.48-5.6,15.92-9.99,23.77-9.99c3.97,0,7.21,1.05,9.62,3.12c4.46,3.83,3.99,9.08,3.54,14.16
			c-0.43,4.81-0.96,10.79,1.93,18.28c1.59,4.13,3.77,9.79,7.9,11.32c0.74,0.28,1.52,0.41,2.36,0.41c1.98,0,4.15-0.74,6.25-1.46
			c2.28-0.77,4.63-1.58,7.07-1.58c2.3,0,4.33,0.7,6.03,2.08c6.19,5.03,3.65,15.41,2.28,19.64c-0.5,1.54-5.22,15.16-16.14,16.92
			c-0.74,0.12-1.49,0.18-2.23,0.18h0c-6.31,0-10.86-4.11-14.87-7.74c-2.57-2.33-5.23-4.73-7.13-4.73c-0.18,0-0.35,0.02-0.53,0.06
			c-0.63,0.14-0.89,0.37-2.27,2.49c-1.58,2.45-3.75,5.8-8.53,8.49C1041.48,406.18,1036.39,407.46,1031.25,407.46z"/>
		<path d="M1050.32,327.23c2.56,0,4.8,0.57,6.36,1.91c5.38,4.62-2.13,14.4,4.06,30.45c1.86,4.82,4.58,11.9,10.83,14.21
			c1.39,0.52,2.76,0.72,4.1,0.72c5.14,0,9.77-3.04,13.33-3.04c1.06,0,2.02,0.27,2.87,0.96c4.19,3.41,0.99,13.25,0.68,14.21
			c-0.25,0.77-4.14,12.24-12.18,13.53c-0.49,0.08-0.96,0.12-1.43,0.12c-8.57,0-14.18-12.47-22-12.47c-0.52,0-1.06,0.06-1.6,0.18
			c-5.54,1.21-4.76,7.33-12.18,11.5c-3.35,1.88-7.61,2.95-11.89,2.95c-5.73,0-11.5-1.91-15.17-6.33
			c-3.68-4.44-5.86-12.16-2.71-16.91c3.92-5.91,12.36-1.58,18.94-8.12c4.9-4.87,6.49-13.49,4.06-19.62
			c-2.65-6.7-8.71-6.96-8.8-10.83C1027.45,334.82,1040.99,327.23,1050.32,327.23 M1050.32,317.23L1050.32,317.23
			c-9.18,0-20.94,4.94-27.34,11.49c-4.57,4.68-5.46,9.18-5.39,12.14c0.15,6.72,4.89,10.24,7.17,11.93c1.6,1.19,2.01,1.55,2.32,2.35
			c1.03,2.6,0.15,6.9-1.81,8.85c-0.84,0.84-1.8,1.07-4.91,1.5c-4.07,0.56-10.88,1.51-15.32,8.19c-6,9.04-2.86,21.34,3.34,28.82
			c5.24,6.33,13.58,9.95,22.87,9.95c5.98,0,11.95-1.51,16.8-4.24c5.34-3.01,8.11-6.83,9.81-9.42c0.93,0.74,2.01,1.72,2.84,2.47
			c4.22,3.81,9.99,9.03,18.23,9.03c1.01,0,2.02-0.08,3.02-0.24c13.55-2.18,19.12-17.3,20.1-20.31c3.58-11.01,2.17-20.14-3.88-25.06
			c-2.58-2.1-5.75-3.2-9.18-3.2c-3.27,0-6.15,0.98-8.69,1.84c-1.72,0.59-3.49,1.19-4.64,1.19c-0.32,0-0.49-0.05-0.62-0.1
			c-2.01-0.74-3.93-5.74-4.97-8.43c-2.47-6.41-2.03-11.3-1.61-16.04c0.48-5.44,1.15-12.89-5.26-18.4
			C1060.9,319.58,1056.8,317.23,1050.32,317.23L1050.32,317.23z"/>
	</g>
	<circle class="st7" cx="1052.62" cy="375.82" r="7.44"/>
</g>
<g id="图层_6">
	<path class="st8" d="M338,595c7.28-8.92,1.06-18.24,6-33c7.73-23.07,34.08-33.62,50-40c9.14-3.66,111.93-44.83,184,8
		c39.36,28.85,43.52,66.65,91,80c20.35,5.72,29.43,1.54,40,11c25.15,22.51,22.44,89.78-17,124c-38.83,33.69-103.97,29.99-115,9
		c-6.31-12.02,7.95-24.48,0-40c-8.74-17.06-38.1-25.71-51-16c-13.83,10.41,1.61,34.12-14,54c-13.03,16.61-41.85,23.06-57,13
		c-15.12-10.04-8.61-31.18-21-36c-13.54-5.27-24.98,18.57-57,25c-5.61,1.13-33.4,6.04-42-7c-8.19-12.42,25.2-35.23,18-49
		c-3.52-6.73-14.22-7.55-20-8c-30.57-2.36-46.9,23.79-57,18c-10.45-5.99-9.13-43.27,10-56c20.23-13.46,53.13,5.33,55,1
		c2.7-6.23-67.5-40.75-64-50C279.71,595.83,323.14,613.21,338,595z"/>
	<path class="st8" d="M1197,697c0.05-3.92-6.51-6.07-12.62-9.78c-17.98-10.9-30.33-34.11-29.38-49.22c1.72-27.45,47.74-34.91,46-52
		c-2.19-21.49-76.97-29.36-76-37c0.67-5.23,35.02,3.43,67-15c24.83-14.31,29.47-34.13,40-32c19.44,3.93,16.86,74.22,28,75
		c8.23,0.58,8.04-37.92,35-70c22.85-27.2,64.04-48.39,88-36c25.98,13.44,24.01,62.42,34,62c7.75-0.32,4.37-29.66,22-43
		c21.9-16.57,70.02-3.8,97,25c29.25,31.22,9.89,55.91,37,88c31.87,37.72,71.64,19.03,99,56c25.71,34.73,17.86,88.07,4,93
		c-12.41,4.41-30.23-29.75-47-24c-12.06,4.14-9.13,23.99-22,29c-13.2,5.14-22.53-13.31-46-20c-32.4-9.24-44.32,17.43-82,13
		c-33.84-3.98-36.12-26.89-63-26c-38.43,1.28-63.99,49.1-73,43c-6.71-4.55,7.3-31.23,0-36c-5.05-3.3-15.19,7.24-37,21
		c-16.66,10.52-44.98,28.39-54,21c-8.82-7.22,8.34-32.45-1-41c-10.71-9.81-38.74,18.38-65,7c-10.27-4.45-19.54-14.64-18-22
		C1170.35,705.81,1196.9,704.87,1197,697z"/>
</g>
<g id="图层_5">
	<g>
		<path class="st6" d="M1278.79,731.97c-5.23,0-9.84-1.32-13.33-3.83c-10.2-7.3-9-22.58-7.94-36.06c0.77-9.79,1.64-20.89-2.74-23.51
			c-0.77-0.46-1.69-0.69-2.8-0.69c-3.46,0-7.97,2.09-11.95,3.93c-4.17,1.93-7.76,3.59-11.18,3.59c0,0,0,0,0,0
			c-3.06,0-4.99-1.35-6.07-2.48c-4.47-4.67-2.33-13.09,0.25-19.34c3.92-9.49,14.29-25.63,28.29-25.96c0.14,0,0.28,0,0.42,0
			c8,0,13.78,5.37,18.88,10.11c4.11,3.81,7.99,7.42,12.04,7.42h0c0.37,0,0.74-0.03,1.13-0.08c3.11-0.46,6.18-2.76,9.14-6.85
			l0.84-1.16l1.32-0.54c5.13-2.1,10.4-3.17,15.67-3.17c11.85,0,21.94,5.45,25.7,13.89c5.41,12.1-3.72,28.18-15.29,35.04
			c-6.93,4.11-13.61,4.22-18.49,4.29c-1.79,0.03-4.49,0.07-5.11,0.48c-0.54,0.92,2.5,5.89,3.8,8.02c3.64,5.96,8.16,13.37,5.39,21.16
			C1303.29,725.95,1289.54,731.96,1278.79,731.97z"/>
		<path d="M1251.72,632.62c12.06,0,18.89,17.52,30.92,17.52c0.61,0,1.22-0.04,1.86-0.14c5.61-0.82,9.73-5.09,12.46-8.87
			c4.73-1.94,9.42-2.8,13.78-2.8c10.03,0,18.29,4.55,21.14,10.93c4.29,9.61-3.83,23.1-13.27,28.7c-11.17,6.63-21.83,0.8-25.27,6.43
			c-4.51,7.38,12.52,19.42,8.7,30.15c-2.5,7.03-13.56,12.41-23.24,12.41c-3.92,0-7.61-0.88-10.42-2.89
			c-15.49-11.09,3.37-51.19-11.02-59.8c-1.66-0.99-3.47-1.39-5.37-1.39c-8.2,0-17.91,7.52-23.14,7.52c-1,0-1.83-0.28-2.46-0.93
			c-5.51-5.76,9.13-36.46,25.05-36.84C1251.52,632.62,1251.62,632.62,1251.72,632.62 M1251.72,622.62c-0.18,0-0.36,0-0.54,0.01
			c-14.5,0.35-26.92,14.84-32.79,29.05c-4.51,10.93-4.25,19.47,0.76,24.71c2.48,2.59,5.92,4.02,9.69,4.02
			c4.52,0,8.78-1.97,13.28-4.05c3.34-1.54,7.5-3.47,9.85-3.47c0.07,0,0.13,0,0.18,0.01c0.22,0.42,0.78,1.79,0.95,5.15
			c0.2,3.87-0.18,8.62-0.57,13.65c-0.53,6.77-1.08,13.78-0.38,20.31c0.99,9.18,4.49,15.98,10.4,20.21
			c4.35,3.11,9.97,4.76,16.24,4.76c12.73,0,28.43-7.13,32.66-19.06c3.57-10.04-1.87-18.94-5.84-25.44
			c-0.18-0.29-0.37-0.61-0.57-0.94c5.01-0.16,11.71-0.83,18.66-4.95c13.66-8.1,23.87-26.67,17.3-41.38
			c-4.57-10.23-16.45-16.85-30.27-16.85c-5.92,0-11.84,1.19-17.57,3.54l-2.64,1.08l-1.67,2.31c-2.08,2.87-4.14,4.59-5.81,4.84
			c-0.14,0.02-0.27,0.03-0.4,0.03c-2.09,0-5.57-3.23-8.64-6.08C1268.51,628.96,1261.68,622.62,1251.72,622.62L1251.72,622.62z"/>
	</g>
	<g>
		<path class="st6" d="M1336.17,656.77c-6.71,0-11.95-1.72-15.58-5.12c-4.67-4.37-5.09-9.99-5.42-14.51
			c-0.3-4.1-0.59-6.01-2.08-7.08c-0.72-0.52-1.53-0.75-2.64-0.75c-2.42,0-5.54,1.1-8.84,2.27c-4.11,1.46-8.37,2.96-12.8,2.96
			c-3.11,0-5.94-0.77-8.41-2.28c-5.16-3.15-8.85-9.68-9.89-17.45c-1.03-7.72,0.79-14.92,4.87-19.24c4.04-4.29,9.24-4.84,13.32-4.84
			c1.2,0,2.41,0.05,3.57,0.1c1.15,0.05,2.23,0.09,3.3,0.09c3.54,0,5.68-0.54,7.38-1.87c5.9-4.59,7.56-17.5,3.47-27.09
			c-1.85-4.33-4.68-7.21-7.17-9.74c-3.08-3.13-6.57-6.68-5-11.71c2.32-7.42,13.18-8.48,23.56-8.51c5.13-0.41,9.8-0.62,13.89-0.62
			c9.92,0,23.52,1.02,26.97,9.79c2.43,6.19-1.57,11.49-5.8,17.11c-4.33,5.74-9.71,12.89-10.89,23.28c-0.33,2.93-1,13.27,4.41,23.02
			c5.02,9.07,12.75,12.91,18.95,16c5.69,2.84,11.58,5.77,11.67,12.35c0.05,3.35-1.53,6.67-4.7,9.88
			C1364.71,650.51,1348.5,656.77,1336.17,656.77z"/>
		<path d="M1331.69,536.38c15.77,0,20.96,3.18,22.31,6.62c3.13,7.97-14.58,16.65-17,38c-0.26,2.31-1.43,14.39,5,26
			c10.25,18.51,29.89,17.9,30,26c0.12,8.36-20.65,18.77-35.83,18.77c-4.96,0-9.32-1.11-12.17-3.77c-6.61-6.18-1.02-16.99-8-22
			c-1.69-1.22-3.57-1.69-5.55-1.69c-6.65,0-14.6,5.24-21.64,5.24c-2.03,0-3.98-0.43-5.8-1.55c-8.29-5.07-10.49-22.11-4-29
			c2.59-2.75,6-3.27,9.68-3.27c2.22,0,4.55,0.19,6.87,0.19c3.67,0,7.31-0.47,10.45-2.92c8.35-6.49,9.55-22.33,5-33
			c-4.41-10.35-13.36-13.65-12-18c0.88-2.82,5.75-4.98,19-5C1323.27,536.57,1327.8,536.38,1331.69,536.38 M1331.69,526.38v10V526.38
			L1331.69,526.38c-4.18,0-8.92,0.21-14.1,0.62c-12.13,0.05-24.86,1.57-28.13,12.01c-2.47,7.89,2.96,13.41,6.21,16.71
			c2.29,2.33,4.66,4.74,6.14,8.2c3.33,7.82,1.69,18.36-1.94,21.18c-0.52,0.4-1.44,0.82-4.32,0.82c-0.96,0-2-0.04-3.09-0.09
			c-1.21-0.05-2.47-0.1-3.77-0.1c-4.69,0-11.54,0.66-16.96,6.41c-5.1,5.41-7.41,14.13-6.18,23.34c1.26,9.39,5.72,17.06,12.24,21.05
			c3.28,2,6.98,3.02,11.02,3.02c5.29,0,10.17-1.73,14.47-3.25c2.34-0.83,4.95-1.75,6.6-1.95c0.14,0.89,0.24,2.2,0.31,3.16
			c0.35,4.81,0.89,12.09,6.99,17.79c4.52,4.23,11.09,6.46,18.99,6.46c13.72,0,31.16-6.78,39.7-15.44
			c5.16-5.23,6.18-10.21,6.14-13.46c-0.14-9.63-8.41-13.75-14.45-16.76c-5.88-2.93-12.54-6.24-16.81-13.95
			c-4.68-8.45-4.1-17.47-3.81-20.03c1.02-9.04,5.75-15.3,9.91-20.83c4.42-5.86,9.91-13.16,6.46-21.95
			C1358.74,527.72,1343.07,526.38,1331.69,526.38L1331.69,526.38z"/>
	</g>
	<g>
		<path class="st6" d="M357.46,722.79c-16.29,0-34.45-14.51-37.38-29.86c-1.67-8.78,1.82-15.37,4.37-20.19
			c1.05-1.99,2.49-4.71,2.12-5.4c-0.27-0.51-1.87-1.38-6.16-1.38c-5.67,0-13.53,1.45-21.84,2.99c-10.08,1.86-20.5,3.79-29.89,3.79
			c0,0,0,0-0.01,0c-11.09,0-18.79-2.8-23.54-8.56c-4.27-5.18-6.08-12.76-5.08-21.34c1.19-10.18,6.13-19.69,12.91-24.83
			c5.11-3.87,10.43-4.65,17.36-4.65c3.89,0,8.66,0.27,14.96,0.65c7.18,0.43,13.42,0.83,18.85,1.17c13.02,0.82,21.61,1.37,26.89,1.37
			c4.43,0,5.67-0.41,5.97-0.55c1.26-1.81,1.41-6.92-2.25-15.54c-5.31-12.5-14.29-22.55-18.02-24.33c-0.61,1.54-1.17,4.65-1.54,6.64
			c-1.21,6.68-2.71,14.99-9.82,17.03c-0.9,0.26-1.85,0.39-2.8,0.39c-5.27,0-10.82-3.83-17.47-12.05l-0.58-0.72l-0.29-0.88
			c-5.94-18.41-1.03-37.78,12.51-49.34c7.54-6.43,17.49-9.98,28.02-9.98c7.73,0,15.43,1.92,21.67,5.42
			c19.08,10.67,23.61,34.85,30.47,71.44c2.46,13.1,3.76,23.73,4.8,32.27c1.59,13.03,2.65,21.63,6.12,23
			c0.44,0.17,0.88,0.26,1.36,0.26c3.66,0,9.17-4.78,14.49-9.4c8.38-7.28,17.88-15.52,29.75-15.52c1.49,0,2.99,0.14,4.46,0.4
			c9.15,1.66,18.6,8.74,24.67,18.48c6.11,9.81,8.03,21.04,5.25,30.81c-4.94,17.36-22.96,27.73-37.53,27.73
			c-0.91,0-1.83-0.04-2.72-0.12c-11.77-1.03-19.17-8.54-25.11-14.58c-4-4.06-7.45-7.57-10.65-7.57c-0.3,0-0.61,0.03-0.93,0.08
			c-3.59,0.63-5.69,4.84-8.72,11.68c-3.37,7.59-7.55,17.04-17.68,20.17C362.29,722.45,359.93,722.79,357.46,722.79z"/>
		<path d="M324.77,532.22c7.02,0,13.81,1.75,19.23,4.78c16.69,9.34,21.12,31.3,28,68c7.08,37.75,4.5,55.26,14,59
			c1.05,0.41,2.11,0.61,3.19,0.61c12.27,0,26.02-24.93,44.24-24.93c1.17,0,2.36,0.1,3.57,0.32c15.38,2.79,31.42,23.93,26,43
			c-4.09,14.38-19.39,24.1-32.72,24.1c-0.77,0-1.53-0.03-2.28-0.1c-18.24-1.59-24.55-22.16-36.2-22.16c-0.59,0-1.18,0.05-1.8,0.16
			c-13.24,2.35-11.46,27.2-27,32c-1.75,0.54-3.61,0.79-5.54,0.79c-13.41,0-29.9-12.32-32.46-25.79c-2.5-13.11,9.49-20.43,6-27
			c-1.58-2.97-5.39-4.03-10.57-4.03c-13.08,0-34.92,6.77-51.73,6.77c-8.39,0-15.52-1.68-19.69-6.74c-8.11-9.82-3.76-30.84,7-39
			c3.64-2.76,7.47-3.64,14.34-3.64c3.8,0,8.53,0.27,14.66,0.64c24.87,1.49,38.4,2.54,46.03,2.54c6.37,0,8.63-0.73,9.97-2.54
			c8.49-11.53-15.06-48.14-25.01-48.14c-0.35,0-0.68,0.04-0.99,0.14c-6.18,1.82-3.2,21.76-11,24c-0.46,0.13-0.94,0.2-1.42,0.2
			c-4.17,0-9.12-4.67-13.58-10.2c-5.31-16.47-0.86-33.88,11-44C307.2,534.85,316.16,532.22,324.77,532.22 M324.77,522.22
			c-11.72,0-22.82,3.97-31.27,11.18c-15.08,12.88-20.59,34.34-14.02,54.68l0.57,1.77l1.17,1.45c4.83,5.97,12.29,13.91,21.36,13.91
			c1.43,0,2.83-0.2,4.18-0.59c9.25-2.66,11.67-11.99,13.01-19.06c2.19,2.56,4.73,6.07,7.21,10.45c4.08,7.23,5.53,12.65,5.8,15.51
			c-0.49,0.02-1.07,0.03-1.75,0.03c-5.12,0-13.65-0.54-26.58-1.36c-5.43-0.34-11.67-0.74-18.86-1.17
			c-6.39-0.38-11.23-0.66-15.26-0.66c-7.74,0-14.17,0.96-20.38,5.67c-7.83,5.93-13.52,16.75-14.86,28.23
			c-1.16,9.95,1.04,18.86,6.19,25.1c5.76,6.98,14.73,10.37,27.41,10.37c9.85,0,20.5-1.97,30.8-3.87c7.73-1.43,15.06-2.78,20.25-2.89
			c-2.72,5.16-6.49,12.78-4.56,22.9c3.38,17.75,23.54,33.92,42.29,33.92c2.97,0,5.83-0.42,8.49-1.24
			c12.3-3.8,17.19-14.85,20.77-22.92c1.33-3.01,2.59-5.85,3.89-7.63c0.39-0.54,0.9-1.11,1.13-1.15c0.04-0.01,0.05-0.01,0.06-0.01
			c1.31,0.21,5.07,4.02,7.09,6.07c6.17,6.27,14.63,14.86,28.24,16.05c1.03,0.09,2.09,0.14,3.15,0.14c8.73,0,17.81-3.01,25.58-8.48
			c8.26-5.82,14.22-13.95,16.76-22.88c3.16-11.12,1.04-23.81-5.81-34.82c-6.9-11.07-17.37-18.83-28.02-20.76
			c-1.77-0.32-3.57-0.48-5.35-0.48c-13.74,0-24.44,9.29-33.03,16.75c-3.07,2.67-8.01,6.96-10.52,7.97
			c-1.28-2.95-2.3-11.25-3.2-18.65c-1.05-8.61-2.36-19.33-4.85-32.59c-6.87-36.61-11.83-63.07-32.95-74.88
			C341.91,524.37,333.34,522.22,324.77,522.22L324.77,522.22z"/>
	</g>
	<g>
		<g>
			<path class="st6" d="M689.27,784.09c-17.05,0-29.63-4.72-35.41-13.29c-6.69-9.92-2.42-21.36,1.71-32.41
				c3.72-9.95,7.23-19.36,3.05-26.98c-2.92-5.34-10.18-7.72-23.52-7.72c-4.38,0-8.97,0.25-13.42,0.48
				c-4.38,0.23-8.51,0.45-12.41,0.45c-8.67,0-18.04-1-21.74-8.38c-4.1-8.17-2.06-21.76,5.06-33.82
				c8.1-13.72,20.57-21.89,34.22-22.42c0.25-0.01,0.5-0.01,0.74-0.01c12.4,0,20.85,11.87,27.63,21.41
				c2.82,3.96,7.53,10.58,9.5,10.79c1.12-0.34,2.78-6.01,3.58-8.74c2.31-7.89,5.18-17.72,14.69-22.01c2.72-1.23,5.73-1.85,8.94-1.85
				c2.99,0,6.2,0.55,9.56,1.62c29.43,8.32,51.05,15.73,64.24,22.02c9.05,4.31,19.31,10.3,18.28,18.4
				c-1,7.82-10.55,10.14-22.66,13.08c-12.26,2.98-27.51,6.68-30.56,15.86c-2.06,6.2,2.32,12.46,7.38,19.71
				c5.53,7.92,11.8,16.9,8.65,27.18C741.68,774.13,713.53,784.09,689.27,784.09z"/>
			<path d="M691.88,644.59c2.93,0,5.74,0.64,8.12,1.41c63.25,17.88,79.83,28.44,79,35c-1.33,10.42-46.21,7.54-53,28
				c-5.6,16.88,20.95,30.83,16,47c-4.3,14.05-30.33,23.09-52.73,23.09c-13.72,0-26.07-3.39-31.27-11.09c-10.66-15.8,15.4-40,5-59
				c-4.67-8.53-15.78-10.32-27.9-10.32c-8.76,0-18.05,0.94-25.83,0.94c-8.39,0-15-1.09-17.27-5.62c-6.57-13.1,7.92-47.94,35-49
				c0.18-0.01,0.37-0.01,0.55-0.01c17.33,0,27,32.2,37.12,32.2c0.44,0,0.89-0.06,1.34-0.19c8.52-2.47,5.53-24.92,19-31
				C687.26,644.98,689.61,644.59,691.88,644.59 M691.88,634.59L691.88,634.59c-3.93,0-7.63,0.77-11,2.3
				c-11.61,5.24-15.11,17.23-17.43,25.17c-0.14,0.48-0.3,1.02-0.46,1.57c-1.29-1.68-2.64-3.59-3.74-5.12
				c-7.06-9.92-16.73-23.51-31.71-23.51c-0.31,0-0.62,0.01-0.94,0.02c-15.38,0.6-29.34,9.67-38.33,24.87
				c-8.07,13.67-10.12,28.82-5.22,38.6c5.58,11.13,20.04,11.13,26.21,11.13c4.04,0,8.23-0.22,12.68-0.46
				c4.38-0.23,8.9-0.47,13.15-0.47c10.99,0,17.25,1.68,19.13,5.12c3.08,5.62-0.05,13.98-3.35,22.83c-4.14,11.09-9.3,24.9-1.17,36.96
				c6.74,9.99,20.79,15.5,39.56,15.5c12.54,0,26-2.56,36.93-7.02c13.66-5.57,22.43-13.58,25.36-23.14
				c3.86-12.61-3.46-23.09-9.33-31.5c-4.83-6.92-7.91-11.72-6.74-15.28c2.17-6.55,17.11-10.17,26.99-12.57
				c5.27-1.28,10.25-2.49,14.32-4.11c7.3-2.92,11.38-7.36,12.12-13.2c1.62-12.72-14.29-20.31-21.09-23.54
				c-13.62-6.49-34.87-13.79-64.95-22.29C699.06,635.21,695.36,634.59,691.88,634.59L691.88,634.59z"/>
		</g>
		<g>
			<circle class="st7" cx="694" cy="709" r="13"/>
		</g>
	</g>
	<g>
		<circle class="st7" cx="363" cy="667" r="13"/>
	</g>
	<g>
		<g>
			<path class="st6" d="M1562.51,766.03c-0.37,0-0.74-0.02-1.11-0.07c-6.88-0.83-9.24-8.27-11.33-14.83
				c-1.16-3.67-3.11-9.81-5.13-10.24c-0.07-0.02-0.14-0.02-0.21-0.02c-1.58,0-4.66,3.52-6.91,6.09
				c-4.31,4.92-9.68,11.05-17.46,11.05c0,0,0,0,0,0c-0.18,0-0.37,0-0.55-0.01c-9.79-0.37-18.86-10.41-23.5-20.19
				c-4.86-10.24-4.96-19.65-0.3-25.82c2.4-3.18,6.33-4.79,11.67-4.79c3.88,0,8.05,0.78,12.09,1.54c2.9,0.54,5.65,1.06,7.71,1.16
				c-0.36-0.63-0.76-1.3-1.12-1.88c-2.63-4.36-6.61-10.95-7.35-20.64c-0.37-4.86-0.88-11.51,3.07-16.49
				c3.45-4.35,9.46-6.55,17.87-6.55c19.39,0,50.63,12.59,51.05,27.52c0.17,6.18-4.38,9.85-8.4,13.1c-4.5,3.63-7.26,6.15-7.62,10.46
				c-0.23,2.74,0.68,4.42,2.44,7.41c1.96,3.32,4.4,7.45,4.57,14.04c0.26,9.67-4.55,19.06-9.43,24.07
				C1569.33,764.27,1565.85,766.03,1562.51,766.03C1562.51,766.03,1562.51,766.03,1562.51,766.03z"/>
			<path d="M1539.95,669.34c18.22,0,45.75,11.87,46.05,22.66c0.23,8.09-14.97,10.55-16,23c-0.74,8.9,6.72,11.39,7,22
				c0.32,11.77-8.45,24.03-14.49,24.03c-0.17,0-0.34-0.01-0.51-0.03c-7.68-0.93-6.67-23-16-25c-0.43-0.09-0.84-0.13-1.26-0.14
				c-8.19,0-13.96,17.14-24.38,17.14c-0.12,0-0.24,0-0.36-0.01c-12.82-0.49-28.43-26.84-20-38c1.59-2.11,4.38-2.81,7.68-2.81
				c6.52,0,15.07,2.72,20.49,2.72c2.32,0,4.06-0.5,4.83-1.92c2.37-4.38-7.84-10.79-9-26c-0.34-4.44-0.73-9.56,2-13
				C1528.6,670.72,1533.73,669.34,1539.95,669.34 M1539.95,659.34L1539.95,659.34c-10.01,0-17.34,2.84-21.79,8.45
				c-5.16,6.51-4.54,14.61-4.13,19.97c0.48,6.31,2.21,11.48,4.1,15.59c-3.38-0.61-7-1.15-10.45-1.15c-6.99,0-12.26,2.28-15.66,6.78
				c-5.82,7.71-5.91,19-0.23,30.98c4.9,10.33,15.12,22.56,27.82,23.04c0.25,0.01,0.5,0.01,0.75,0.01c10.06,0,16.51-7.37,21.23-12.76
				c0.62-0.71,1.38-1.57,2.11-2.37c0.6,1.57,1.18,3.41,1.61,4.76c2.29,7.2,5.42,17.07,15.49,18.28c0.56,0.07,1.13,0.1,1.7,0.1
				c4.72,0,9.44-2.28,13.64-6.6c6.85-7.04,11.11-17.91,10.84-27.7c-0.21-7.89-3.25-13.04-5.26-16.45c-1.64-2.79-1.86-3.33-1.77-4.45
				c0.19-2.25,1.9-3.86,5.77-6.98c4.18-3.38,10.5-8.48,10.26-17.13c-0.26-9.15-7.89-17.49-22.06-24.14
				C1562.96,662.42,1550.25,659.34,1539.95,659.34L1539.95,659.34z"/>
		</g>
		<g>
			<circle class="st7" cx="1549" cy="715" r="13"/>
		</g>
	</g>
	<g>
		<g>
			<path class="st6" d="M1147.32,689.15c-9.91,0-28.44-27.03-35.23-41.75c-5.82-12.62-6.43-21.33-1.89-26.65
				c3.2-3.74,7.71-4.17,10.83-4.17c2.17,0,4.45,0.24,6.86,0.49c2.59,0.27,5.27,0.55,7.98,0.55c5.42,0,9.63-1.18,13.27-3.72
				c4.28-2.98,7.53-7.71,9.67-14.07c-2.8-12.07-1.02-24.32,4.97-33.83c4.38-6.95,10.69-11.66,17.29-12.92
				c1.26-0.24,2.56-0.36,3.86-0.36c15.42,0,31.9,17.08,32.07,33.22c0.1,9.24-5.26,16.11-9.17,21.12c-0.63,0.81-1.38,1.77-2,2.63
				c1.64-0.17,3.69-0.57,5.83-0.98c3.99-0.77,8.52-1.64,13.02-1.64c5.46,0,9.82,1.28,13.32,3.93c10.15,7.65,10.96,25.27,8.58,38.05
				c-2.7,14.45-9.13,24.46-17.22,26.76c-1.17,0.33-2.36,0.5-3.54,0.5c-6.25,0-10.93-4.34-16.35-9.36
				c-6.71-6.22-14.33-13.28-27.14-14.99c-1.96-0.26-4.02-0.4-6.1-0.4c-10.31,0-18.58,3.09-22.1,8.26
				c-3.42,5.01-2.14,11.44-1.12,16.6c0.86,4.33,1.93,9.72-2.78,12.06C1149.33,688.92,1148.36,689.15,1147.32,689.15
				C1147.32,689.15,1147.32,689.15,1147.32,689.15z"/>
			<path d="M1184.93,557.73c12.99,0,26.94,15.35,27.07,28.27c0.14,13.55-14.94,21.8-12,27c0.75,1.32,2.29,1.79,4.36,1.79
				c4.97,0,12.99-2.71,20.33-2.71c3.79,0,7.4,0.72,10.31,2.92c14.05,10.59,7.26,51.95-7,56c-0.74,0.21-1.47,0.31-2.18,0.31
				c-10.38,0-18.32-21.03-42.82-24.31c-2.12-0.28-4.4-0.44-6.77-0.44c-9.85,0-20.98,2.73-26.23,10.44c-7.46,10.93,1.37,25.32-2,27
				c-0.2,0.1-0.43,0.15-0.68,0.15c-8.1,0-43.32-48.45-33.32-60.15c1.6-1.88,4.04-2.42,7.03-2.42c4.13,0,9.31,1.03,14.84,1.03
				c5.27,0,10.86-0.94,16.13-4.62c6.89-4.8,10.24-12.17,12-18c-5.64-21.44,5.63-39.65,18-42
				C1182.97,557.82,1183.95,557.73,1184.93,557.73 M1184.93,547.73v10V547.73L1184.93,547.73L1184.93,547.73
				c-1.62,0-3.24,0.15-4.8,0.45c-7.96,1.51-15.46,7.04-20.58,15.16c-6.46,10.24-8.57,23.27-5.93,36.16
				c-1.76,4.67-4.22,8.13-7.33,10.3c-2.8,1.95-6.01,2.82-10.41,2.82c-2.45,0-5-0.26-7.46-0.52c-2.55-0.26-4.95-0.51-7.38-0.51
				c-2.37,0-9.57,0-14.63,5.92c-5.94,6.95-5.57,17.41,1.13,31.96c4.15,9,10.59,19.26,17.67,28.13
				c11.64,14.58,17.71,16.55,22.11,16.55c1.82,0,3.55-0.4,5.14-1.19c1.57-0.78,6.66-3.93,6.33-11.63c-0.08-1.91-0.47-3.84-0.87-5.88
				c-1.07-5.4-1.73-9.77,0.35-12.81c2.52-3.69,9.57-6.07,17.97-6.07c1.86,0,3.69,0.12,5.44,0.35c11.24,1.5,17.93,7.7,24.4,13.7
				c5.67,5.26,11.54,10.7,19.75,10.7c1.65,0,3.3-0.23,4.91-0.69c9.95-2.83,17.72-14.29,20.77-30.65
				c2.77-14.86,1.47-33.94-10.49-42.96c-4.34-3.27-9.84-4.93-16.33-4.93c-2.61,0-5.17,0.25-7.62,0.61c2.72-4.53,5-10.11,4.93-16.8
				c-0.09-8.72-4.26-18.1-11.43-25.73C1203.14,552.26,1193.79,547.73,1184.93,547.73L1184.93,547.73z"/>
		</g>
		<g>
			<circle class="st7" cx="1184" cy="621" r="13"/>
		</g>
	</g>
	<g>
		<g>
			<path class="st6" d="M1486,567c-7.1,0-10.61-7.22-13.72-13.58c-2.21-4.54-4.96-10.18-7.74-10.44c-0.08-0.01-0.15-0.01-0.23-0.01
				c-2.03,0-4.64,2.65-6.94,4.99c-3,3.05-6.11,6.2-10.38,6.2c-0.88,0-1.75-0.14-2.58-0.42c-5.91-1.98-6.27-8.59-6.58-14.43
				c-0.31-5.79-0.67-12.36-4.65-17.1c-4.11-4.89-10.47-5.65-16.08-6.32c-5.55-0.66-11.85-1.42-13.83-7.31
				c-1.01-2.99-0.47-6.38,1.6-10.05c5.6-9.93,23.61-22.9,44.05-27.43c5.85-1.3,12.06-1.95,18.46-1.95
				c17.85,0,37.29,5.43,40.46,17.57c1.84,7.02-2.56,12.87-6.45,18.02c-3.93,5.22-7.65,10.16-6.48,16.31
				c0.51,2.65,1.65,4.25,3.1,6.26c1.99,2.77,4.47,6.22,4.97,12.26c0.65,7.9-2.39,17-7.57,22.62C1492.53,565.34,1489.28,567,1486,567
				L1486,567z"/>
			<path d="M1467.37,474.17c17.36,0,33.38,5.27,35.63,13.83c2.67,10.21-15.93,18.63-13,34c1.53,8.02,7.28,9.26,8,18
				c0.85,10.31-6.04,22-12,22c0,0,0,0,0,0c-8.36-0.01-10.36-23.02-21-24c-0.23-0.02-0.46-0.03-0.68-0.03
				c-7.45,0-12.46,11.19-17.32,11.19c-0.33,0-0.66-0.05-0.99-0.16c-5.96-2,0.23-19.03-9-30c-9.61-11.42-26.78-5.41-29-12
				c-2.61-7.75,17.89-25.66,42-31C1455.63,474.75,1461.58,474.17,1467.37,474.17 M1467.38,464.17v10V464.17
				c-6.76,0-13.34,0.7-19.54,2.07c-19.86,4.4-40.2,17.23-47.33,29.85c-3.49,6.18-3.01,11.08-1.99,14.1
				c2.99,8.88,12.01,9.96,17.98,10.67c6.05,0.72,10.21,1.43,12.85,4.57c2.91,3.46,3.2,8.89,3.49,14.15
				c0.34,6.31,0.86,15.84,9.99,18.9c1.35,0.45,2.75,0.68,4.17,0.68c6.36,0,10.56-4.27,13.94-7.69c0.83-0.84,2.05-2.08,3.01-2.88
				c1.26,1.73,2.88,5.05,3.84,7.02c3.37,6.92,7.99,16.39,18.21,16.39c3.29,0,8.23-1.11,13.1-6.4c6.07-6.59,9.64-17.21,8.87-26.42
				c-0.61-7.43-3.79-11.85-5.89-14.77c-1.39-1.93-1.96-2.77-2.25-4.28c-0.72-3.78,1.64-7.16,5.56-12.36
				c4.34-5.76,9.74-12.94,7.29-22.3C1508.56,469.74,1485.7,464.17,1467.38,464.17L1467.38,464.17z"/>
		</g>
		<g>
			<circle class="st7" cx="1461" cy="513" r="13"/>
		</g>
	</g>
	<g>
		<ellipse class="st7" cx="1321.85" cy="612.93" rx="11.15" ry="11.07"/>
	</g>
	<g>
		<g>
			<path class="st6" d="M1530.68,647.33c-8.01,0-21.58-11.48-26.42-25.73c-2.02-5.94-1.68-9.91-1.35-13.74
				c0.3-3.55,0.62-7.22-0.8-13.81c-1.11-5.15-2.53-8.66-3.79-11.75c-1.83-4.49-3.55-8.73-2.18-14.46
				c1.59-6.64,6.76-9.36,10.53-11.35c2.9-1.53,4.19-2.32,4.44-3.51c0.53-2.53-1.9-5.9-3.85-8.62c-2.23-3.1-5.29-7.36-2.24-11.38
				c0.9-1.19,2.64-2.61,5.79-2.61c2.95,0,7.04,1.26,13.26,4.08l0.31,0.14l0.29,0.18c18.22,11.49,31.32,20.6,38.93,27.08
				c6.16,5.24,11.51,10.85,8.92,16.3c-1.29,2.73-4,4.11-8.05,4.11c-1.85,0-3.92-0.24-6.32-0.52c-2.73-0.32-5.81-0.68-8.84-0.68
				c-5.45,0-9.24,1.15-11.92,3.62c-5.55,5.11-5.46,15.29-5.39,24.28c0.09,10.49,2.48,18.4,4.06,23.63
				c1.65,5.46,3.21,10.61-1.3,13.59C1533.59,646.94,1532.22,647.33,1530.68,647.33z"/>
			<path d="M1510.8,535.37c1.78,0,5.08,0.86,11.2,3.63c39.45,24.88,47.49,33.86,46,37c-0.45,0.94-1.71,1.26-3.53,1.26
				c-3.56,0-9.26-1.2-15.16-1.2c-5.44,0-11.05,1.02-15.3,4.94c-7.18,6.61-7.08,18.33-7,28c0.17,20.16,8.15,30.92,5,33
				c-0.34,0.22-0.79,0.33-1.32,0.33c-4.92,0-17.24-9.27-21.68-22.33c-3.39-9.98,1.12-12.46-2-27c-2.83-13.17-7.74-16.76-6-24
				c2.06-8.6,13.44-7.55,15-15c1.68-8.03-8.96-15.41-7-18C1509.27,535.64,1509.79,535.37,1510.8,535.37 M1510.8,525.37
				L1510.8,525.37c-5.47,0-8.47,2.88-9.77,4.6c-1.3,1.71-3.97,6.38-0.77,12.73c0.82,1.63,1.85,3.06,2.94,4.58
				c0.7,0.97,1.96,2.73,2.6,3.99c-0.49,0.27-1.03,0.56-1.47,0.79c-4.09,2.16-10.94,5.77-13.06,14.61
				c-1.75,7.3,0.46,12.72,2.41,17.51c1.18,2.9,2.52,6.2,3.54,10.92c1.26,5.86,0.99,9.01,0.71,12.34c-0.35,4.14-0.75,8.84,1.6,15.78
				c2.49,7.35,7.23,14.51,13.32,20.18c3.59,3.34,10.69,8.94,17.83,8.94c2.5,0,4.87-0.69,6.84-1.99c1.87-1.24,6.12-4.94,5.04-12.44
				c-0.3-2.07-0.95-4.25-1.71-6.76c-1.59-5.25-3.76-12.45-3.84-22.22c-0.06-7.55-0.14-16.95,3.78-20.56
				c1.68-1.54,4.46-2.29,8.53-2.29c2.74,0,5.55,0.33,8.26,0.64c2.45,0.29,4.76,0.55,6.9,0.55c8.06,0,11.33-4.37,12.57-6.97
				c4.59-9.67-5.4-18.16-10.2-22.25c-7.9-6.72-20.82-15.72-39.5-27.5l-0.58-0.37l-0.63-0.28
				C1519.13,526.72,1514.54,525.37,1510.8,525.37L1510.8,525.37z"/>
		</g>
		<g>
			<ellipse class="st7" cx="1521.85" cy="571.93" rx="11.15" ry="11.07"/>
		</g>
	</g>
	<g>
		<g>
			<path class="st6" d="M1243.68,575.22c-1.04,0-2.06-0.14-3.02-0.4c-6.55-1.82-8.34-8.56-9.91-14.51
				c-1.56-5.9-3.03-11.47-7.91-13.8c-1.92-0.92-4.38-1.38-7.34-1.38c-4.76,0-9.29,1.19-11.23,1.7c-3.71,0.98-5.95,2.15-7.93,3.17
				c-2.17,1.13-4.22,2.2-6.92,2.2c-0.92,0-1.85-0.13-2.77-0.39c-7.64-2.14-12.03-11.78-13.58-20.09
				c-1.85-9.91-0.01-18.03,4.93-21.73c1.95-1.46,4.29-2.2,6.95-2.2c4.17,0,8.55,1.83,12.78,3.6c3.52,1.47,7.16,2.99,9.66,2.99l0,0
				c0.95,0,1.39-0.23,1.66-0.42c1.55-1.14,2.64-5.61,1.08-14.77c-5.61-17.79-1.73-35.22,8.9-39.78c1.71-0.73,3.55-1.1,5.49-1.1
				c10.58,0,21.75,11.35,26.68,18.99c7.01,10.86,10.94,28.14,3,40.43c-2.35,3.64-5.12,5.84-7.28,7.45c1.44,0.4,3.18,0.78,4.54,1.08
				c7.02,1.54,15.76,3.44,19.08,10.67c3.51,7.65-1.1,16.8-4.16,21.58C1261.05,566.82,1251.96,575.22,1243.68,575.22
				C1243.68,575.22,1243.68,575.22,1243.68,575.22z"/>
			<path d="M1224.52,463.3c8.02,0,17.79,9.44,22.48,16.7c6.31,9.77,9.48,24.97,3,35c-4.23,6.54-10.41,7.55-10,11
				c0.76,6.34,21.76,3.77,26,13c4.64,10.1-12.22,31.22-22.32,31.22c-0.59,0-1.15-0.07-1.68-0.22c-8.34-2.31-4.25-21.91-17-28
				c-2.92-1.39-6.27-1.87-9.5-1.87c-5.41,0-10.46,1.33-12.5,1.87c-8.03,2.11-10.43,5.2-13.58,5.2c-0.45,0-0.92-0.06-1.42-0.2
				c-9.4-2.63-14.53-27.37-7-33c1.14-0.85,2.48-1.2,3.96-1.2c6.44,0,15.54,6.59,22.44,6.59c1.69,0,3.25-0.4,4.61-1.39
				c4.6-3.36,4.43-11.81,3-20c-5.32-16.51-1.4-30.83,6-34C1222.12,463.52,1223.3,463.3,1224.52,463.3 M1224.52,453.3L1224.52,453.3
				L1224.52,453.3c-2.62,0-5.13,0.51-7.47,1.51c-13.11,5.62-18.12,25.12-11.8,45.54c0.75,4.55,0.7,7.26,0.52,8.74
				c-1.8-0.5-4.3-1.55-6.12-2.31c-4.69-1.96-9.53-3.98-14.71-3.98c-3.72,0-7.15,1.1-9.95,3.19c-6.6,4.94-9.1,14.65-6.86,26.65
				c0.89,4.75,4.75,20.53,17.15,23.99c1.36,0.38,2.75,0.57,4.12,0.57c3.93,0,6.87-1.53,9.23-2.76c1.83-0.95,3.72-1.94,6.89-2.77
				c1.75-0.46,5.84-1.54,9.96-1.54c2.75,0,4.34,0.48,5.19,0.89c2.59,1.24,3.75,4.99,5.23,10.56c1.73,6.53,4.09,15.46,13.41,18.05
				c1.39,0.39,2.86,0.58,4.36,0.58c10.86,0,21.28-10.25,26.91-19.02c6.24-9.73,7.84-19.1,4.5-26.37
				c-3.56-7.74-11.21-10.69-18.07-12.43c0.47-0.61,0.93-1.27,1.39-1.96c9.15-14.15,4.86-33.69-3-45.86
				C1250.3,466.67,1238.05,453.3,1224.52,453.3L1224.52,453.3z"/>
		</g>
		<g>
			<circle class="st7" cx="1221.77" cy="522.93" r="11.07"/>
		</g>
	</g>
	<g>
		<g>
			<path class="st6" d="M1384.51,553.04c-5.72,0-8.82-5.45-12.09-11.22c-3.4-5.99-7.25-12.77-13.33-13.91
				c-0.58-0.11-1.18-0.16-1.76-0.16c-3.58,0-6.92,2.06-10.44,4.25c-3.68,2.28-7.48,4.64-11.94,4.64c-1.73,0-3.41-0.36-5-1.08
				c-4.89-2.2-8.66-7.57-10.33-14.71c-1.47-6.29-1.32-15.11,3.52-21.02c4.22-5.14,9.94-5.69,14.99-6.17
				c4.73-0.45,9.21-0.88,13.74-4.55c5.08-4.12,7.01-9.68,8.42-13.75c3.16-9.13,1.87-16.52,0.83-22.46
				c-0.99-5.66-2.01-11.51,2.55-15.62c2.33-2.1,5.59-3.17,9.67-3.17c13.5,0,35.31,11.79,35.67,25.75
				c0.18,6.93-4.76,11.01-9.11,14.61c-4.13,3.41-8.03,6.63-8.95,12.32c-0.57,3.48,0.31,5.36,2.05,9.1c1.67,3.6,3.75,8.08,4.95,15.28
				c2.28,13.72-0.04,29.68-5.39,37.12c-1.91,2.66-4.18,4.22-6.75,4.63C1385.37,553,1384.94,553.04,1384.51,553.04z"/>
			<path d="M1373.33,439.12c11.29,0,30.4,10.51,30.67,20.88c0.25,9.56-15.68,11.74-18,26c-1.5,9.25,4.64,11.82,7,26
				c2.75,16.51-1.93,35.02-8,36c-0.17,0.03-0.33,0.04-0.49,0.04c-6.71,0-10.09-22.35-24.51-25.04c-0.92-0.17-1.81-0.25-2.67-0.25
				c-9.25,0-15.77,8.89-22.38,8.89c-0.98,0-1.96-0.19-2.95-0.64c-7.81-3.52-11.23-20.4-5-28c6.02-7.34,17.01-1.1,28-10
				c6.2-5.02,8.51-11.7,10-16c6.5-18.76-3.59-30.96,2-36C1368.44,439.7,1370.67,439.12,1373.33,439.12 M1373.33,429.12v10V429.12
				L1373.33,429.12L1373.33,429.12c-6.68,0-10.77,2.42-13.03,4.46c-6.61,5.96-5.18,14.19-4.13,20.2c0.99,5.65,2.11,12.06-0.63,19.96
				c-1.28,3.69-2.87,8.28-6.84,11.5c-3.36,2.72-6.76,3.04-11.07,3.45c-5.42,0.52-12.84,1.23-18.37,7.98
				c-5.09,6.21-6.79,15.68-4.52,25.33c2.03,8.68,6.83,15.28,13.15,18.13c2.24,1.01,4.62,1.52,7.06,1.52c5.88,0,10.5-2.86,14.57-5.39
				c2.9-1.8,5.65-3.5,7.81-3.5c0.28,0,0.55,0.03,0.84,0.08c3.8,0.71,7.18,6.67,9.9,11.46c3.48,6.13,7.8,13.75,16.44,13.75
				c0.69,0,1.39-0.06,2.08-0.17c2.7-0.43,6.63-1.94,10.02-6.65c6.14-8.55,8.78-25.73,6.26-40.86c-1.31-7.87-3.64-12.9-5.35-16.57
				c-1.69-3.65-1.94-4.36-1.65-6.19c0.59-3.66,3-5.8,7.2-9.27c4.71-3.89,11.17-9.23,10.92-18.59c-0.21-8.21-5.85-16.21-15.86-22.53
				C1390.1,432.14,1380.83,429.12,1373.33,429.12L1373.33,429.12z"/>
		</g>
		<g>
			<circle class="st7" cx="1369" cy="508" r="13"/>
		</g>
	</g>
	<g>
		<g>
			<path class="st6" d="M1402.88,471.64c-0.31,0-0.62-0.01-0.94-0.02c-8.71-0.46-18.34-7.3-25.13-17.84
				c-8.09-12.58-9.96-26.84-5.13-39.13c7.19-18.31,26.64-26.51,42.71-26.51c8.13,0,14.93,2.1,19.14,5.92
				c4.14,3.74,5.25,8.58,6.15,12.47c0.88,3.81,1.42,5.58,2.98,6.48c0.79,0.46,1.77,0.69,2.98,0.69h0c2.64,0,7.54-1.12,15.86-6.44
				l1.23-0.79l1.46,0c11.99,0,22.63,6.99,26.5,17.4c2.82,7.59,1.7,16.62-3,24.17c-3.86,6.19-9.35,10.2-14.7,10.74
				c-0.42,0.04-0.83,0.06-1.23,0.06c0,0,0,0,0,0c-7.04,0-11.15-5.76-14.79-10.84c-3.16-4.42-6.14-8.59-10.38-9.17
				c-0.35-0.05-0.69-0.07-1.03-0.07c-5.74,0-11.55,7.33-17.17,14.41C1421.19,462.25,1413.74,471.64,1402.88,471.64
				C1402.89,471.64,1402.89,471.64,1402.88,471.64z"/>
			<path d="M1414.39,393.14c6.66,0,12.46,1.61,15.79,4.62c6.23,5.63,3.11,15.57,9.96,19.57c1.65,0.96,3.52,1.37,5.5,1.37
				c6.08,0,13.24-3.83,18.55-7.22c0.01,0,0.01,0,0.02,0c9.96,0,18.67,5.75,21.8,14.15c4.79,12.86-5.26,27.36-13.51,28.19
				c-0.25,0.03-0.5,0.04-0.74,0.04c-9.32,0-12.25-18.27-24.48-19.97c-0.58-0.08-1.15-0.12-1.72-0.12
				c-16.41,0-25.89,32.88-42.68,32.88c-0.23,0-0.45-0.01-0.68-0.02c-14.73-0.78-35-26.94-25.88-50.15
				C1382.71,400.25,1400.42,393.14,1414.39,393.14 M1414.39,383.14v10V383.14L1414.39,383.14c-17.78,0-39.32,9.18-47.37,29.68
				c-5.42,13.81-3.39,29.72,5.58,43.67c7.64,11.87,18.78,19.59,29.07,20.13c0.41,0.02,0.81,0.03,1.21,0.03
				c13.27,0,21.85-10.82,29.42-20.37c4.19-5.28,9.93-12.52,13.25-12.52c0.11,0,0.23,0.01,0.35,0.02c2.11,0.29,4.71,3.92,7,7.13
				c3.9,5.46,9.25,12.93,18.85,12.93c0.57,0,1.16-0.03,1.73-0.09c6.88-0.69,13.78-5.58,18.45-13.07c5.51-8.85,6.8-19.52,3.44-28.55
				c-4.6-12.36-17.12-20.66-31.17-20.66h-2.92l-2.48,1.58c-7.97,5.1-11.86,5.65-13.16,5.65c-0.08,0-0.15,0-0.21-0.01
				c-0.3-0.78-0.63-2.25-0.87-3.29c-0.94-4.09-2.36-10.26-7.67-15.06C1431.75,385.7,1423.76,383.14,1414.39,383.14L1414.39,383.14z"
				/>
		</g>
		<g>
			<circle class="st7" cx="1406.19" cy="431.07" r="13"/>
		</g>
	</g>
	<g>
		<g>
			<path class="st6" d="M1116.05,787.21c-12.45,0-25.18-7.94-29.6-18.46c-1.98-4.72-1.74-8.79-1.57-11.49
				c0.02-0.3,0.04-0.64,0.05-0.97c-3.07,0.72-8.6,4.31-12.76,7.01c-6.81,4.42-13.24,8.59-18.68,8.59c0,0,0,0,0,0
				c-2.01,0-3.79-0.54-5.31-1.6c-6.79-4.78-4.14-17.2-2.69-22.32c0.98-3.43,6.38-20.58,16.96-21.21c0.19-0.01,0.38-0.02,0.56-0.02
				c4.32,0,7.34,2.86,9.77,5.15c2.29,2.17,3.8,3.48,5.51,3.48c0,0,0.13,0,0.2,0c1.71-0.09,3.4-1.37,4.72-2.72
				c2.4-17.23,12.91-27.46,22.04-27.46c0.33,0,0.65,0.01,0.97,0.04c4.59,0.36,9,3.34,12.42,8.37c4.7,6.92,6.38,15.83,4.27,22.7
				c-1.81,5.9-6.03,9.27-8.91,11.52c2.23,0.5,5.29,0.91,7.6,1.21c9.32,1.24,19.88,2.64,22.76,10.55c1.14,3.14,0.79,6.79-1.01,10.57
				c-3.2,6.69-10.45,12.94-18.06,15.56C1122.36,786.69,1119.25,787.2,1116.05,787.21L1116.05,787.21z"/>
			<path d="M1105.25,710.18c0.19,0,0.38,0.01,0.57,0.02c8.01,0.64,15.28,14.92,12.31,24.61c-2.57,8.35-11.79,10.14-11.08,14.15
				c1.23,6.96,29.17,2.85,32.61,12.31c2.23,6.12-6.36,16.38-16,19.69c-2.5,0.86-5.07,1.25-7.62,1.25c-10.94,0-21.54-7.18-24.99-15.4
				c-3.02-7.19,0.65-12.26-2.46-14.77c-0.76-0.61-1.7-0.89-2.78-0.89c-8.18,0-24.36,15.73-32.33,15.73c-0.93,0-1.75-0.21-2.43-0.69
				c-6.75-4.75,2.43-33.91,11.69-34.46c0.09-0.01,0.18-0.01,0.27-0.01c5.07,0,8.22,8.63,15.28,8.63c0.15,0,0.3,0,0.46-0.01
				c3.92-0.2,7.05-2.96,9.23-5.54C1089.58,719.73,1098.36,710.18,1105.25,710.18 M1105.25,700.18L1105.25,700.18L1105.25,700.18
				c-6.67,0-13.44,3.87-18.57,10.6c-4.05,5.32-6.83,11.94-8.13,19.32c-0.05,0.03-0.09,0.07-0.14,0.09
				c-0.62-0.46-1.54-1.33-2.19-1.94c-2.75-2.6-6.9-6.52-13.2-6.52c-0.28,0-0.57,0.01-0.86,0.03c-13.6,0.81-19.87,19.21-21.47,24.83
				c-3.75,13.18-2.11,23.05,4.62,27.78c2.34,1.65,5.17,2.52,8.18,2.52c6.92,0,13.95-4.56,21.4-9.4c1.46-0.95,3.33-2.16,5.16-3.27
				c0.28,1.97,0.82,4.15,1.79,6.46c5.16,12.27,19.86,21.53,34.21,21.53c3.75,0,7.41-0.6,10.86-1.79
				c8.79-3.02,17.21-10.31,20.95-18.13c3.03-6.34,2.32-11.35,1.2-14.43c-3.64-9.99-14.84-12.16-24.59-13.5
				c1.29-1.85,2.43-4.03,3.22-6.6c2.54-8.26,0.61-18.85-4.91-26.97c-4.29-6.31-10.03-10.06-16.16-10.54
				C1106.17,700.19,1105.71,700.18,1105.25,700.18L1105.25,700.18z"/>
		</g>
		<g>
			<circle class="st7" cx="1097.83" cy="745.88" r="8"/>
		</g>
	</g>
	<g>
		<circle class="st7" cx="1280" cy="665" r="11"/>
	</g>
	<g>
		<g>
			<path class="st6" d="M1474.7,665.25c-1.11,0-2.18-0.16-3.19-0.47c-5.6-1.74-7.16-7.2-8.41-11.58c-1.17-4.11-2.04-6.68-4.16-7.63
				c-0.53-0.24-1.05-0.35-1.64-0.35c-2.04,0-4.61,1.32-7.34,2.71c-3.44,1.75-7.33,3.74-11.66,3.74c-1.82,0-3.59-0.36-5.25-1.06
				c-5.04-2.13-9.08-7.48-11.08-14.67c-1.92-6.93-2.15-16.84,2.98-23.88c2.91-3.99,7.96-6.21,18.03-10.63
				c3.04-1.33,5.61-2.36,7.88-3.26c3-1.19,7.11-2.82,7.33-3.57c0.14-0.49-0.14-1.99-2.13-4.5l-1.8-2.29l1.1-2.7
				c7.95-19.46,14.78-28.14,22.16-28.14c0.39,0,0.74,0.03,1.06,0.06c4.61,0.55,8.81,4.67,11.83,11.58
				c4.65,10.65,6.21,26.87-1.38,37.32c-2.62,3.61-5.79,5.74-8.1,7.29c-0.21,0.14-0.43,0.29-0.65,0.44c1.32,0.57,3.12,1.17,4.47,1.62
				c6.21,2.08,13.94,4.66,16.86,11.82c3.33,8.16-1.59,17.43-4.81,22.23C1491.5,657.25,1482.6,665.24,1474.7,665.25
				C1474.7,665.25,1474.7,665.25,1474.7,665.25z"/>
			<path d="M1477.53,561.97c0.17,0,0.33,0.01,0.47,0.03c8.29,0.99,16.57,27.81,7,41c-4.46,6.15-11.2,7.13-11,11
				c0.34,6.44,19.14,5.53,23,15c4.45,10.91-12.71,31.25-22.3,31.25c-0.6,0-1.17-0.08-1.7-0.25c-6.4-1.99-3.67-15.25-12-19
				c-1.24-0.56-2.47-0.79-3.7-0.79c-6.44,0-12.72,6.45-19,6.45c-1.1,0-2.2-0.2-3.3-0.66c-8.73-3.69-12.5-22.08-6-31
				c2.11-2.9,6.74-4.93,16-9c11.22-4.93,16.78-5.81,18-10c0.97-3.32-1.32-6.86-3-9C1469.21,564.45,1474.98,561.97,1477.53,561.97
				 M1477.53,551.97L1477.53,551.97c-9.83,0-17.85,9.35-26.79,31.25l-2.2,5.39l3.05,3.87c-0.84,0.35-1.74,0.7-2.57,1.03
				c-2.19,0.87-4.92,1.95-8.04,3.33c-10.89,4.78-16.36,7.18-20.06,12.27c-6.18,8.48-5.99,20.11-3.76,28.17
				c2.41,8.67,7.49,15.2,13.95,17.93c2.28,0.96,4.7,1.45,7.19,1.45c5.53,0,10.19-2.38,13.93-4.29c1.35-0.69,3.47-1.77,4.61-2.08
				c0.5,0.95,1.08,2.98,1.45,4.27c1.33,4.65,3.55,12.44,11.73,14.99c1.49,0.46,3.06,0.7,4.67,0.7c10.4,0,20.65-9.76,26.26-18.11
				c6.53-9.71,8.41-19.27,5.3-26.91c-3.04-7.46-9.89-11.02-15.79-13.24c0.89-0.92,1.78-1.95,2.62-3.11
				c8.74-12.04,7.11-30.34,1.91-42.26c-4.82-11.03-11.26-14-15.81-14.54C1478.64,552.01,1478.08,551.97,1477.53,551.97
				L1477.53,551.97z"/>
		</g>
		<g>
			<circle class="st7" cx="1459.77" cy="621.93" r="11.07"/>
		</g>
	</g>
	<g>
		<path class="st6" d="M459.7,708.95c-0.39,0-0.78-0.01-1.18-0.04c-6.03-0.46-12.29-4.59-16.75-11.04
			c-4.43-6.41-6.09-13.64-4.43-19.35c2.01-6.9,8.04-9.68,12.88-11.91c3.89-1.79,7.25-3.34,8.7-6.44c3.17-6.78-1.24-19.03-9.24-25.7
			c-3.61-3.02-7.44-4.29-10.82-5.41c-4.17-1.39-8.9-2.96-9.78-8.15c-1.31-7.67,7.88-13.55,17.11-18.3
			c14.51-8.96,25.02-13.31,32.13-13.31c3.43,0,6.27,0.97,8.43,2.88c4.98,4.4,3.84,10.95,2.62,17.87c-1.24,7.08-2.78,15.9,0.9,25.68
			c1.04,2.76,5.15,12.27,14.4,18.49c7.37,4.96,14.78,5.64,21.69,5.64c0.85,0,1.67-0.01,2.46-0.02c0.77-0.01,1.52-0.02,2.23-0.02
			c4.03,0,10.77,0,13.78,5.7c2.42,4.58,1.32,10.94-3.17,18.41c-7.27,12.07-21.96,24.56-33.96,24.56c-1.59,0-3.14-0.21-4.58-0.62
			c-6.15-1.76-9.08-6.58-11.43-10.45c-2.13-3.52-3.26-5.09-5.08-5.36c-0.19-0.03-0.39-0.04-0.58-0.04c-2.67,0-5.72,3.22-8.95,6.63
			C472.53,703.48,467.34,708.95,459.7,708.95z"/>
		<path d="M478.32,594.3c2.41,0,4.02,0.66,5.12,1.63c6.41,5.67-5.41,21.46,2.15,41.57c0.82,2.18,5.27,13.46,16.28,20.88
			c8.8,5.92,17.51,6.49,24.49,6.49c1.67,0,3.25-0.03,4.7-0.03c4.57,0,7.93,0.33,9.36,3.04c4.84,9.14-17.37,35.63-32.71,35.63
			c-1.11,0-2.18-0.14-3.21-0.43c-8.7-2.49-8.64-14.66-17.14-15.95c-0.45-0.07-0.89-0.1-1.32-0.1c-9.86,0-15.59,16.93-26.36,16.93
			c-0.26,0-0.53-0.01-0.8-0.03c-9.69-0.74-19.41-14.91-16.76-24c2.71-9.29,16.79-7.96,21.31-17.63c4.48-9.58-1.65-24.23-10.56-31.66
			c-8.64-7.21-18.11-6.07-18.88-10.57c-0.5-2.91,2.85-7.05,14.64-13.1C464.19,597.35,473.12,594.3,478.32,594.3 M478.32,584.3
			L478.32,584.3c-8.15,0-19.14,4.44-34.59,13.95c-10.78,5.56-21.42,12.71-19.58,23.5c1.39,8.15,8.74,10.59,13.13,12.05
			c3.1,1.03,6.31,2.1,9.2,4.51c6.53,5.44,9.86,15.58,7.91,19.75c-0.63,1.35-2.89,2.46-6.27,4.02c-5.15,2.37-12.94,5.96-15.59,15.05
			c-2.08,7.14-0.17,15.96,5.11,23.59c5.39,7.79,12.85,12.59,20.48,13.18c0.52,0.04,1.04,0.06,1.56,0.06
			c9.8,0,16.29-6.86,21.04-11.86c1.41-1.49,3.62-3.82,4.98-4.75c0.53,0.73,1.22,1.86,1.72,2.68c2.5,4.13,6.29,10.36,14.32,12.66
			c1.9,0.54,3.9,0.82,5.96,0.82c8.84,0,17.09-5.04,22.46-9.27c6.18-4.87,11.93-11.33,15.78-17.7c6.89-11.43,5.6-19,3.31-23.33
			c-4.42-8.36-13.73-8.36-18.2-8.36c-0.73,0-1.5,0.01-2.29,0.02c-0.78,0.01-1.58,0.02-2.41,0.02c-5.7,0-12.34-0.37-18.9-4.79
			c-8.02-5.4-11.6-13.69-12.51-16.1c-3.2-8.51-1.85-16.24-0.65-23.06c1.27-7.23,2.84-16.23-4.24-22.48
			C487.93,586.55,484.16,584.3,478.32,584.3L478.32,584.3z"/>
	</g>
	<g>
		<ellipse class="st7" cx="477.86" cy="674.09" rx="11.15" ry="11.07"/>
	</g>
	<g>
		<g>
			<path class="st6" d="M397.09,642.26c-17.8,0-39.68-13.1-43.99-34.27c-2.42-11.9,1.01-24.29,9.68-34.9
				c8.06-9.87,19.14-16.25,28.22-16.25c0.96,0,1.9,0.07,2.8,0.22c5.51,0.89,9.08,4.34,11.95,7.12c2.52,2.44,4.04,3.82,5.83,3.82
				l0.19,0c1.79-0.08,6.61-1.72,12.68-15.07l0.6-1.33l1.22-0.8c4.88-3.17,10.45-4.85,16.11-4.85c5.78,0,11.17,1.74,15.6,5.03
				c6.5,4.83,10.47,13.02,10.63,21.91c0.13,7.29-2.29,13.65-6.49,17.01c-2.21,1.77-4.85,2.67-7.82,2.67c-3.86,0-7.73-1.52-11.48-3
				c-3.48-1.37-7.09-2.79-10.21-2.79c-1.29,0-2.43,0.24-3.49,0.74c-5.63,2.63-6.52,12.01-7.47,21.93
				c-1.08,11.34-2.31,24.2-12.15,29.87C406.17,641.25,401.88,642.26,397.09,642.26z"/>
			<path d="M442.38,550.96c4.57,0,9.01,1.36,12.62,4.04c11.02,8.19,10.47,25.82,4,31c-1.41,1.13-2.99,1.58-4.7,1.58
				c-6.16,0-13.99-5.79-21.69-5.79c-1.89,0-3.77,0.35-5.61,1.21c-16.19,7.58-4.56,43.11-20,52c-2.64,1.52-6.08,2.26-9.91,2.26
				c-14.68,0-35.14-10.88-39.09-30.26c-4.9-24.04,18.87-45.15,33-45.15c0.69,0,1.36,0.05,2,0.15c8.14,1.31,10.98,11.01,18.58,11.01
				c0.14,0,0.28,0,0.42-0.01c7.76-0.36,13.54-10.38,17-18C433.16,552.3,437.84,550.96,442.38,550.96 M442.39,540.96L442.39,540.96
				c-6.63,0-13.14,1.96-18.83,5.65l-2.45,1.59l-1.21,2.66c-4.13,9.1-7.21,11.46-8.16,12.01c-0.67-0.5-1.76-1.54-2.52-2.28
				c-3.01-2.92-7.57-7.33-14.63-8.47c-1.16-0.19-2.37-0.28-3.59-0.28c-10.52,0-23.11,7.1-32.09,18.09
				c-9.63,11.8-13.44,25.67-10.71,39.06c2.3,11.31,9.28,21.48,19.64,28.63c8.86,6.12,19.53,9.63,29.25,9.63
				c5.74,0,10.75-1.21,14.9-3.6c12.08-6.96,13.5-21.8,14.64-33.73c0.66-6.94,1.57-16.46,4.61-17.88c0.28-0.13,0.67-0.27,1.37-0.27
				c2.17,0,5.33,1.24,8.38,2.44c4.18,1.64,8.51,3.35,13.31,3.35c4.08,0,7.87-1.3,10.95-3.77c5.4-4.32,8.52-12.17,8.36-21
				c-0.19-10.43-4.92-20.08-12.65-25.83C455.67,543.04,449.25,540.96,442.39,540.96L442.39,540.96z"/>
		</g>
		<g>
			<circle class="st7" cx="391" cy="603" r="13"/>
		</g>
	</g>
	<g>
		<g>
			<path class="st6" d="M572.18,736.87c-9.29,0-17.94-4.25-21.04-10.33c-3.54-6.95,0.77-13.54,4.23-18.84
				c2.97-4.54,5.77-8.84,4.78-13c-1.44-6.04-10.44-8.82-19.96-11.76c-10.89-3.36-23.23-7.17-26.79-17.95
				c-2.73-8.26,0.13-19.7,7.46-29.83c8.75-12.1,21.34-19.05,34.53-19.05h0.12c13.41,0.04,26.07,7.3,34.73,19.92
				c7.2,10.48,9.91,22.35,6.9,30.25c-1.99,5.21-6.09,8.01-9.4,10.26c-3.23,2.2-4.68,3.35-4.96,5.12
				c-0.28,1.77,0.34,6.83,12.19,15.47l1.18,0.86l0.53,1.36c4.35,11.16,1.7,23.62-6.6,31.01
				C585.38,734.56,579.02,736.87,572.18,736.87z"/>
			<path d="M555.4,621.1c0.03,0,0.07,0,0.1,0c25.73,0.08,41.93,30.4,36.97,43.39c-2.99,7.85-13.38,8.55-14.62,16.38
				c-1.22,7.67,7.42,15.36,14.18,20.29c3.62,9.28,1.42,19.5-5.27,25.46c-4.17,3.72-9.49,5.24-14.59,5.24
				c-7.41,0-14.35-3.23-16.58-7.6c-4.52-8.87,12.36-18.41,9.42-30.73c-4.14-17.39-41.29-13.2-46.87-30.12
				C513.54,649.43,530.51,621.1,555.4,621.1 M555.4,611.1L555.4,611.1c-14.82,0-28.88,7.7-38.59,21.12
				c-8.25,11.41-11.38,24.56-8.16,34.32c4.37,13.24,18.62,17.64,30.06,21.17c6.67,2.06,15.8,4.87,16.57,8.14
				c0.49,2.07-1.95,5.81-4.1,9.11c-3.73,5.7-9.36,14.32-4.5,23.84c3.98,7.81,14.23,13.06,25.49,13.06c8.07,0,15.61-2.76,21.24-7.77
				c9.85-8.78,13.04-23.47,7.93-36.56l-1.06-2.72l-2.36-1.72c-8.07-5.89-9.76-9.39-10.11-10.42c0.63-0.56,1.87-1.41,2.74-2
				c3.47-2.36,8.71-5.93,11.25-12.61c3.63-9.53,0.78-22.89-7.45-34.86c-9.61-13.99-23.77-22.04-38.84-22.09L555.4,611.1L555.4,611.1
				z"/>
		</g>
		<g>
			<circle class="st7" cx="552.73" cy="654.23" r="13"/>
		</g>
	</g>
	<g>
		<g>
			<path class="st6" d="M531.45,647.3c-2.25,0-4.25-0.53-5.93-1.58c-6.02-3.76-5.19-11.74-4.46-18.78
				c0.52-5.02,1.17-11.27-1.05-12.95c-0.35-0.27-0.99-0.62-2.48-0.62c-1.83,0-4.07,0.54-6.24,1.06c-2.41,0.58-4.69,1.13-6.93,1.13
				c-3.79,0-5.97-1.67-7.12-3.07c-3.97-4.81-0.78-10.61,2.04-15.72c2.8-5.08,5.97-10.84,5.09-16.97
				c-0.91-6.32-5.9-10.33-10.31-13.87c-4.36-3.5-9.31-7.47-7.88-13.51c2.15-9.12,17.19-12.36,30.54-12.36
				c6.72,0,17.03,0.82,28.03,4.7c23.15,8.17,46.43,29.34,41.75,44.41c-2.15,6.93-8.98,9.56-15,11.89
				c-6.1,2.35-11.86,4.57-14.12,10.42c-0.97,2.52-0.84,4.48-0.68,6.96c0.23,3.4,0.51,7.64-2.27,13.04
				C549.94,640.18,539.63,647.3,531.45,647.3z"/>
			<path d="M516.72,545.04c8.28,0,17.58,1.31,26.37,4.41c21.74,7.67,42.14,26.93,38.64,38.21c-3.13,10.08-23.37,7.39-29.01,21.98
				c-2.94,7.62,1.28,11.71-2.73,19.51c-3.89,7.56-12.71,13.15-18.53,13.15c-1.26,0-2.38-0.26-3.29-0.82
				c-7.09-4.42,3.38-25.02-5.13-31.47c-1.6-1.22-3.5-1.64-5.5-1.64c-4.55,0-9.65,2.19-13.18,2.19c-1.37,0-2.51-0.33-3.27-1.26
				c-4-4.84,10.26-16.03,8.23-30.22c-2.12-14.77-19.87-18.75-18.27-25.52C492.22,548.6,503.07,545.04,516.72,545.04 M516.72,535.04
				L516.72,535.04c-7.41,0-31.85,1.17-35.41,16.21c-2.16,9.12,4.93,14.8,9.61,18.56c4.75,3.81,7.91,6.61,8.49,10.67
				c0.64,4.48-1.98,9.24-4.52,13.85c-3.05,5.53-7.65,13.89-1.52,21.32c1.51,1.83,4.94,4.89,10.98,4.89c2.83,0,5.51-0.64,8.1-1.26
				c1.37-0.33,2.89-0.69,4.08-0.85c0.16,2.14-0.22,5.81-0.45,7.98c-0.8,7.65-1.89,18.13,6.78,23.54c2.49,1.55,5.38,2.34,8.58,2.34
				c10.03,0,22.07-8.16,27.43-18.58c3.41-6.63,3.05-12.06,2.81-15.65c-0.16-2.37-0.2-3.39,0.35-4.82c1.39-3.59,5.18-5.21,11.26-7.55
				c6.73-2.6,15.11-5.83,17.98-15.07c2.84-9.16-1.57-20.02-12.43-30.59c-8.78-8.55-20.6-15.84-32.43-20.02
				C537.18,536.76,526.91,535.04,516.72,535.04L516.72,535.04z"/>
		</g>
		<g>
			<circle class="st7" cx="532.86" cy="586.67" r="13"/>
		</g>
	</g>
	<g>
		<g>
			<path class="st6" d="M611.79,636.32c-1.1,0-2.19-0.12-3.22-0.35c-8.01-1.83-10.53-9.36-13.19-17.33
				c-2.9-8.68-6.19-18.53-16.6-26.18c-5.36-3.94-13.85-8.15-21.62-8.15c-2.63,0-4.94,0.5-6.89,1.5c-5.41,2.75-7.38,9-8.96,14.02
				c-1.36,4.33-2.91,9.25-7.99,9.25l-0.25,0c-4.06-0.16-8.66-3.12-12.03-23.85c-0.8-4.93-7.37-48.39,9.46-54.77
				c1.24-0.47,2.56-0.71,3.9-0.71c4.73,0,8.94,2.9,13.39,5.98c5.12,3.54,10.92,7.54,18.02,7.54c0,0,0,0,0,0
				c0.7,0,1.42-0.04,2.14-0.12c5.19-0.56,10.31-3.15,15.24-7.7c5.69-20.36,22.21-31.33,35.21-31.33c2.37,0,4.65,0.35,6.77,1.03
				c6.88,2.23,12.56,8.12,15.98,16.6c4.05,10.05,3.96,21.62-0.25,29.49c-4.36,8.15-12.35,11.6-18.19,14.12
				c-0.94,0.41-2.06,0.89-3.02,1.35c1.65,0.68,3.89,1.4,5.59,1.94c8.02,2.58,18,5.78,22,14.66c3.65,8.09,1.35,19.54-6.32,31.41
				C634,625.45,622.29,636.32,611.79,636.32z"/>
			<path d="M618.39,509.09c1.83,0,3.59,0.26,5.23,0.79c13.29,4.3,19.41,26.71,12.86,38.97c-6.39,11.95-23.58,11.94-23.5,17.92
				c0.1,7.07,24.13,6.14,29.74,18.57c6.9,15.28-16.24,45.98-30.93,45.98c-0.72,0-1.43-0.07-2.11-0.23
				c-11.7-2.67-6.66-27.02-27.94-42.67c-6.48-4.76-15.94-9.12-24.58-9.12c-3.24,0-6.36,0.61-9.16,2.04
				c-11.74,5.98-10.97,22.72-14.68,22.72c-0.02,0-0.03,0-0.05,0c-7.27-0.29-15.84-63.33-1-68.96c0.7-0.27,1.41-0.39,2.13-0.39
				c7.6,0,16.55,13.52,31.41,13.52c0.87,0,1.76-0.05,2.68-0.14c8.35-0.9,14.82-5.76,19.17-10.02
				C592.28,519.5,606.8,509.09,618.39,509.09 M618.39,499.09L618.39,499.09c-8.43,0-17.15,3.55-24.55,9.98
				c-7.01,6.1-12.17,14.2-15.06,23.57c-3.79,3.25-7.61,5.1-11.38,5.5c-0.54,0.06-1.08,0.09-1.6,0.09c-5.54,0-10.22-3.23-15.18-6.66
				c-4.89-3.38-9.94-6.87-16.23-6.87c-1.95,0-3.86,0.35-5.67,1.04c-12.39,4.7-13.8,21.74-14.27,27.34c-0.8,9.61-0.2,21.6,1.64,32.9
				c1.01,6.2,2.32,11.63,3.78,15.71c1.07,2.97,4.31,12,12.99,12.34l0.2,0.01l0.25,0c2.17,0,7.55-0.71,10.73-7.24
				c0.82-1.69,1.41-3.54,2.02-5.5c1.65-5.25,3.18-9.4,6.46-11.07c1.24-0.63,2.79-0.95,4.62-0.95c5.41,0,12.73,2.82,18.66,7.18
				c9.13,6.72,12.02,15.37,14.82,23.74c2.7,8.09,6.07,18.17,16.82,20.62c1.4,0.32,2.85,0.48,4.33,0.48
				c13.23,0,26.24-12.88,33.37-23.92c8.61-13.32,11.04-26.51,6.68-36.18c-3.81-8.45-11.65-12.59-18.93-15.3
				c4.56-2.66,9.24-6.46,12.4-12.36c4.95-9.26,5.13-22.18,0.47-33.71c-3.98-9.87-10.76-16.79-19.07-19.48
				C624.08,499.52,621.29,499.09,618.39,499.09L618.39,499.09z"/>
		</g>
		<g>
			<circle class="st7" cx="595.11" cy="566.1" r="13"/>
		</g>
	</g>
	<g>
		<g>
			<path class="st6" d="M191.98,763.1c-0.73,0-1.44-0.11-2.12-0.34c-5.24-1.74-5.28-7.61-5.31-13.83c-0.04-7-0.09-15.7-5.44-20.25
				c-2.79-2.37-6.76-3.48-12.48-3.48c-4.03,0-8.22,0.55-12.28,1.08c-10.4,1.36-17.96,4.69-22.96,6.9c-3.64,1.61-6.05,2.67-8.48,2.67
				c0,0,0,0,0,0c-2.06,0-3.89-0.82-5.16-2.3c-1.12-1.31-2.27-3.72-1.42-7.74c1.45-6.87,9.26-19.32,22.09-25.51
				c5.65-2.73,9.63-2.87,13.48-3.01c3.56-0.13,7.24-0.27,13.62-2.47c4.98-1.72,8.29-3.57,11.21-5.2c3.89-2.17,7.25-4.04,12-4.04
				c0.68,0,1.38,0.04,2.09,0.12c6.78,0.77,10.11,5.57,12.55,9.07c1.87,2.69,2.82,3.88,4.02,3.98c0.1,0.01,0.2,0.01,0.29,0.01
				c2.5,0,5.43-2.71,7.79-4.88c2.59-2.39,4.82-4.45,7.9-4.45c1.1,0,2.17,0.29,3.12,0.84c5.34,3.1,3.35,11.13,0.86,19.09l-0.1,0.33
				l-0.15,0.31C203.95,759.04,197.28,763.1,191.98,763.1z"/>
			<path d="M188.72,690.58c0.49,0,0.99,0.03,1.52,0.09c8.79,1,9.13,12.42,16.71,13.07c0.24,0.02,0.48,0.03,0.72,0.03
				c7.28,0,12.78-9.33,15.7-9.33c0.22,0,0.42,0.05,0.6,0.16c1.08,0.63,1.75,3.22-1.4,13.27c-18.89,40.03-27,50.24-30.59,50.24
				c-0.19,0-0.37-0.03-0.54-0.09c-4.73-1.57,2.53-23.26-9.1-33.14c-4.26-3.62-9.88-4.67-15.72-4.67c-4.36,0-8.83,0.59-12.93,1.12
				c-17.34,2.27-26.95,9.52-30.79,9.52c-0.58,0-1.04-0.17-1.36-0.55c-2.7-3.17,5.26-18.86,19.04-25.5c9.49-4.58,12.5-0.4,26.56-5.27
				C178.96,695.45,182.37,690.58,188.72,690.58 M188.72,680.58c-6.05,0-10.31,2.38-14.44,4.68c-2.74,1.53-5.84,3.26-10.41,4.84
				c-5.66,1.96-8.82,2.08-12.16,2.2c-4.16,0.15-8.87,0.33-15.46,3.51c-13.53,6.52-22.88,19.8-24.82,28.99
				c-1.27,6.02,0.67,9.86,2.51,12.02c2.23,2.62,5.42,4.06,8.97,4.06c3.49,0,6.58-1.36,10.5-3.09c5.02-2.21,11.9-5.25,21.59-6.51
				c3.9-0.51,7.92-1.04,11.63-1.04c4.41,0,7.43,0.75,9.24,2.29c3.6,3.06,3.65,10.81,3.68,16.47c0.02,2.7,0.03,5.26,0.38,7.56
				c1.12,7.51,5.72,10.1,8.36,10.98c1.19,0.4,2.43,0.6,3.7,0.6c7.11,0,12.33-5.88,17.98-14.72c5.6-8.74,12.68-22.24,21.65-41.26
				l0.29-0.62l0.21-0.66c1.72-5.48,2.58-9.52,2.73-12.7c0.34-7.46-3.52-10.85-5.85-12.2c-1.7-0.99-3.65-1.51-5.63-1.51
				c-5.04,0-8.36,3.07-11.3,5.77c-0.88,0.81-2.47,2.28-3.65,3.07c-0.33-0.45-0.68-0.96-0.96-1.36c-2.64-3.8-7.06-10.15-16.09-11.18
				C190.48,680.63,189.59,680.58,188.72,680.58L188.72,680.58z"/>
		</g>
		<g>
			
				<ellipse transform="matrix(0.9926 -0.1216 0.1216 0.9926 -85.1213 28.3637)" class="st7" cx="189.87" cy="711.72" rx="11.07" ry="11.15"/>
		</g>
	</g>
	<g>
		<g>
			<path class="st6" d="M488.24,607.01c-23.96,0-59.77-13.07-63.67-34.36c-2.15-11.78,6.34-20.54,14.56-29.01
				c7.4-7.63,14.38-14.83,13.61-23.49c-0.9-10.16-16.86-16.15-30.93-21.44c-14.79-5.55-27.56-10.35-28.11-20.95
				c-0.35-6.74,3.45-14.83,10.43-22.18c9.58-10.09,22.54-16.12,34.68-16.12c4.63,0,9.14,0.85,13.42,2.53
				c11.93,4.67,14.97,19.26,17.42,30.98c0.99,4.76,2.66,12.72,4.37,13.69c1.3-0.02,4.73-4.12,6.78-6.57
				c5.28-6.31,11.84-14.16,22.28-14.28l0.23,0c5.73,0,11.39,2.42,16.81,7.21c23.63,19.42,40.46,34.88,50.02,45.92
				c6.56,7.58,13.56,17.18,9.37,24.18c-2.88,4.82-8.92,4.82-10.9,4.82c0,0,0,0,0,0c-4.22,0-9.5-0.93-15.1-1.91
				c-6.33-1.12-13.52-2.38-19.82-2.38c-6.95,0-11.71,1.52-14.53,4.66c-4.37,4.85-2.87,12.35-1.14,21.02
				c1.89,9.47,4.04,20.21-2.97,28.37C509.82,603.79,500.55,607.01,488.24,607.01C488.25,607.01,488.25,607.01,488.24,607.01z"/>
			<path d="M438.81,444.46c3.84,0,7.74,0.67,11.59,2.18c17.18,6.73,11.82,43.5,22.9,44.95c0.23,0.03,0.45,0.04,0.68,0.04
				c8.45,0,14.76-20.66,29.16-20.83c0.06,0,0.12,0,0.18,0c5.59,0,10.28,3.1,13.57,6.01c50.78,41.74,61.74,58.06,58.34,63.73
				c-1.05,1.75-3.4,2.38-6.61,2.38c-8.37,0-22.61-4.29-34.92-4.29c-7.3,0-13.92,1.51-18.24,6.31c-11.89,13.22,6.84,36.64-4.18,49.47
				c-4.53,5.28-13.09,7.58-23.01,7.58c-23.85,0-55.65-13.26-58.75-30.26c-3.43-18.75,30.15-30.47,28.23-52.05
				c-2.15-24.25-58.18-25.98-59.03-42.21C398.05,465.1,417.5,444.46,438.81,444.46 M438.81,434.46c-13.48,0-27.8,6.61-38.3,17.68
				c-7.92,8.34-12.22,17.78-11.8,25.89c0.36,6.87,4.66,12.71,12.78,17.36c5.26,3.01,11.72,5.44,18.57,8.01
				c11.43,4.29,27.09,10.17,27.71,17.2c0.57,6.38-5.65,12.79-12.22,19.57c-8.24,8.5-18.5,19.08-15.89,33.39
				c2.03,11.09,11.66,21.29,27.1,28.72c12.69,6.1,28.2,9.74,41.49,9.74c13.8,0,24.38-3.82,30.6-11.06c8.59-10,6.09-22.53,4.08-32.6
				c-1.65-8.28-2.55-13.91-0.05-16.7c1.79-1.99,5.43-3,10.81-3c5.87,0,12.83,1.22,18.96,2.3c5.81,1.02,11.31,1.99,15.96,1.99
				c7.21,0,12.32-2.44,15.2-7.25c6.58-11.01-4.95-24.33-9.88-30.02c-9.88-11.41-26.42-26.61-50.56-46.46
				c-6.35-5.57-13.09-8.4-20.05-8.4l-0.3,0c-12.73,0.15-20.75,9.73-26.05,16.07c-0.32,0.39-0.68,0.81-1.05,1.25
				c-0.51-2.06-0.98-4.35-1.37-6.19c-2.55-12.22-6.05-28.95-20.49-34.61C449.19,435.43,444.07,434.46,438.81,434.46L438.81,434.46z"
				/>
		</g>
		<g>
			<circle class="st7" cx="486.13" cy="532.13" r="13"/>
		</g>
	</g>
	<g>
		<g>
			<path class="st6" d="M622.91,733.42c-4.99,0-8.54-1.43-10.55-4.24c-3.82-5.34,0.16-11.23,4-16.92
				c3.85-5.71,8.21-12.17,6.52-18.13c-1.2-4.22-5.03-6.59-9.09-9.11c-4.66-2.89-10.45-6.48-10.72-13.59
				c-0.17-4.45,1.99-9.23,6.06-13.47c5.31-5.52,12.63-8.95,19.08-8.95c1.32,0,2.6,0.14,3.82,0.42c6.48,1.49,9.52,6.37,12.19,10.67
				c2.51,4.04,4.88,7.85,10.18,10.28c2.86,1.31,6,1.95,9.57,1.95c0,0,0,0,0,0c2.4,0,4.57-0.28,6.48-0.52
				c9.58-1.23,15.62-5.68,20.48-9.25c3.92-2.88,7.3-5.37,11.48-5.37c1.25,0,2.48,0.24,3.65,0.7c8.91,3.52,10.38,17.82,10.62,22.12
				c0.57,10.26-1.88,23.89-10.67,28.54c-1.9,1.01-3.96,1.52-6.13,1.52c0,0,0,0,0,0c-3.88,0-7.5-1.61-11-3.17
				c-3.5-1.56-7.11-3.17-10.9-3.17c-1.39,0-2.74,0.21-4.11,0.63c-3.36,1.04-4.66,2.66-7.24,5.88c-2.48,3.1-5.56,6.95-11.48,11.23
				C645.42,728.51,632.16,733.42,622.91,733.42z"/>
			<path d="M628.23,654.01c0.92,0,1.83,0.09,2.7,0.29c9.25,2.12,8.56,14.74,21.41,20.63c4.1,1.87,8.12,2.4,11.65,2.4
				c2.72,0,5.16-0.31,7.12-0.57c17.98-2.31,24.92-14.58,31.32-14.58c0.61,0,1.21,0.11,1.81,0.35c9.5,3.75,10.77,35.59-0.55,41.59
				c-1.25,0.66-2.51,0.93-3.79,0.93c-6.19,0-13-6.34-21.91-6.34c-1.78,0-3.64,0.25-5.59,0.86c-8.96,2.77-8.52,9.41-20.17,17.84
				c-9.61,6.94-21.77,11-29.32,11c-3.11,0-5.44-0.69-6.48-2.15c-4.15-5.81,15.37-19.06,11.27-33.51
				c-3.38-11.88-19.28-12.4-19.62-21.52C607.78,663.46,618.99,654.01,628.23,654.01 M628.23,644.01L628.23,644.01
				c-7.77,0-16.47,4.02-22.69,10.48c-5.03,5.22-7.68,11.31-7.46,17.13c0.37,9.77,8.02,14.51,13.09,17.65
				c3.87,2.4,6.27,3.98,6.91,6.22c1.06,3.72-2.78,9.4-5.86,13.97c-1.84,2.73-3.58,5.31-4.78,8c-3.2,7.21-0.84,12.26,0.85,14.63
				c2.07,2.89,6.28,6.33,14.62,6.33c10.37,0,24.5-5.18,35.17-12.9c6.47-4.68,9.93-9,12.46-12.16c2.51-3.14,3.04-3.68,4.81-4.23
				c0.89-0.28,1.76-0.41,2.64-0.41c2.73,0,5.71,1.33,8.87,2.74c3.79,1.69,8.1,3.61,13.04,3.61c3,0,5.85-0.71,8.47-2.1
				c10.86-5.75,14-20.94,13.32-33.24c-0.36-6.47-2.42-22.01-13.77-26.49c-1.76-0.7-3.61-1.05-5.49-1.05
				c-5.82,0-10.2,3.22-14.44,6.34c-4.62,3.4-9.86,7.25-18.15,8.32c-1.77,0.23-3.77,0.48-5.85,0.48c-2.84,0-5.29-0.49-7.49-1.5
				c-3.93-1.8-5.73-4.7-8.02-8.37c-2.87-4.62-6.81-10.95-15.32-12.91C631.58,644.2,629.92,644.01,628.23,644.01L628.23,644.01z"/>
		</g>
		<g>
			<circle class="st7" cx="645.13" cy="694.15" r="13"/>
		</g>
	</g>
	<g>
		<g>
			<path class="st6" d="M618.21,687.75c-5.46,0-11.68-3.11-16.64-8.31c-4.85-5.08-7.47-11.14-7.21-16.62
				c0.32-6.64,4.59-10.49,8.35-13.89c3.53-3.19,6.87-6.2,8.32-11.84c1.63-6.34-0.14-11.96-1.44-16.06
				c-2.9-9.21-8.35-14.37-12.72-18.52c-4.17-3.95-8.48-8.04-7.27-14.06c2.16-10.76,20.11-15.77,31.56-15.77
				c8.46,0,14.79,2.37,18.31,6.86c4.28,5.46,2.75,11.68,1.4,17.16c-1.28,5.2-2.49,10.11,0.16,15.23c1.62,3.13,3.44,4.12,7.07,6.08
				c3.49,1.89,7.83,4.25,13.08,9.31c10.01,9.65,17.67,23.85,17.81,33.01c0.05,3.28-0.84,5.88-2.66,7.74
				c-1.11,1.14-3.08,2.49-6.2,2.49c-3.38,0-6.99-1.59-11.17-3.44c-4.52-2-9.64-4.26-14.21-4.26c-1.78,0-3.34,0.34-4.78,1.04
				c-3.94,1.93-5.6,6.12-7.36,10.55c-2.02,5.09-4.53,11.43-11.48,12.96C620.2,687.64,619.21,687.75,618.21,687.75z"/>
			<path d="M621.16,577.67c6.13,0,11.64,1.46,14.38,4.95c5.9,7.52-5.59,18.78,1.05,31.61c4.31,8.33,10.77,6.72,21.12,16.7
				c12.05,11.62,19.34,29.26,15.04,33.67c-0.67,0.69-1.56,0.98-2.61,0.98c-5.46,0-15.56-7.7-25.38-7.7c-2.37,0-4.71,0.45-6.98,1.55
				c-11.1,5.43-8.79,21.16-17.71,23.12c-0.6,0.13-1.22,0.19-1.86,0.19c-8.28,0-19.29-10.58-18.85-19.69
				c0.46-9.48,13-11.03,16.52-24.72c1.98-7.72-0.14-14.47-1.51-18.81c-5.97-18.93-21.34-22.72-19.86-30.09
				C595.82,582.88,609.58,577.67,621.16,577.67 M621.16,567.67v10V567.67L621.16,567.67c-13.49,0-33.72,6.14-36.46,19.79
				c-1.75,8.73,4.31,14.48,8.73,18.68c4.16,3.95,8.88,8.42,11.39,16.4c1.17,3.72,2.64,8.36,1.36,13.31
				c-1.08,4.18-3.61,6.47-6.82,9.37c-4.04,3.65-9.58,8.64-10,17.36c-0.33,6.84,2.8,14.24,8.58,20.31
				c5.89,6.18,13.46,9.86,20.26,9.86c1.36,0,2.71-0.14,4-0.43c9.55-2.09,12.86-10.46,15.06-16c1.68-4.23,2.81-6.88,4.9-7.9
				c0.75-0.37,1.57-0.54,2.59-0.54c3.52,0,8.13,2.04,12.19,3.83c4.5,1.99,8.75,3.86,13.19,3.86c3.79,0,7.26-1.42,9.78-4
				c1.91-1.96,4.17-5.51,4.08-11.31c-0.16-10.52-8.3-25.89-19.34-36.54c-5.75-5.54-10.61-8.18-14.17-10.11
				c-3.53-1.92-4.16-2.34-5.01-3.99c-1.7-3.29-1.05-6.44,0.25-11.74c1.46-5.94,3.46-14.07-2.32-21.44
				C638.9,570.71,631.21,567.67,621.16,567.67L621.16,567.67z"/>
		</g>
		<g>
			<circle class="st7" cx="636.06" cy="642.03" r="13"/>
		</g>
	</g>
	<g>
		<g>
			<path class="st6" d="M502.92,783.98c-5.25,0-9.63-1.37-13.02-4.06c-8.16-6.47-6.92-17.15-5.82-26.57
				c0.75-6.46,1.53-13.15-1.29-15.51c-0.91-0.76-2.18-1.13-3.87-1.13c-7.34,0-19.25,6.57-30.76,12.92
				c-13.58,7.49-26.4,14.56-36.84,14.56c-4.03,0-7.5-1.07-10.32-3.18c-5.49-4.11-8.54-12.33-8.39-22.54
				c0.15-10.41,4.05-25.18,14.51-32.55c4.3-3.03,9.37-4.51,15.48-4.51c4.45,0,9.02,0.76,13.44,1.5c4.32,0.72,8.79,1.47,13.02,1.47
				c5.23,0,9.43-1.14,13.22-3.58c5.96-3.83,10.29-10.6,12.88-20.11l0.13-0.49l0.23-0.45c8.29-16.43,24-27.04,40.02-27.04
				c5.64,0,10.86,1.4,15.1,4.05c12.9,8.07,18.16,29.68,10.83,44.46c-4.38,8.82-12.49,13.57-18.6,16.74
				c0.28,0.02,0.56,0.04,0.83,0.05c9.35,0.58,22.16,1.37,27.58,10.41c7.22,12.04-3.67,29.98-12.75,39.1
				C528.9,777.21,514.25,783.97,502.92,783.98z"/>
			<path d="M515.55,657.71c4.64,0,8.95,1.11,12.45,3.29c11.32,7.08,14.96,25.99,9,38c-6.97,14.04-25.9,16.33-25,21
				c1.09,5.63,28.06-0.58,35,11c5.4,9.01-3.77,24.73-12,33c-8.48,8.52-21.79,14.98-32.08,14.98c-3.87,0-7.32-0.91-9.92-2.98
				c-11.58-9.18,3.11-33.53-7-42c-1.92-1.6-4.32-2.3-7.08-2.3c-17.43,0-49.48,27.48-67.6,27.48c-2.81,0-5.28-0.66-7.32-2.18
				c-10.4-7.79-7.93-37.18,6-47c3.85-2.71,8.1-3.59,12.6-3.59c8.27,0,17.39,2.97,26.47,2.97c5.39,0,10.76-1.04,15.93-4.37
				c8.83-5.68,12.92-15.34,15-23C488.25,665.64,503.12,657.71,515.55,657.71 M515.55,647.71L515.55,647.71
				c-17.89,0-35.35,11.69-44.48,29.79l-0.46,0.9l-0.27,0.98c-2.25,8.28-5.87,14.07-10.76,17.22c-2.99,1.92-6.23,2.78-10.52,2.78
				c-3.82,0-7.89-0.68-12.2-1.4c-4.62-0.77-9.4-1.57-14.26-1.57c-7.18,0-13.19,1.77-18.36,5.42c-12,8.46-16.46,24.98-16.63,36.56
				c-0.17,11.83,3.61,21.53,10.39,26.61c3.7,2.78,8.18,4.18,13.31,4.18c11.72,0,25.09-7.38,39.25-15.18
				c9.93-5.48,22.29-12.3,28.35-12.3c0.27,0,0.46,0.02,0.6,0.03c0.66,1.97-0.05,8.03-0.4,11.03c-1.13,9.65-2.67,22.87,7.68,31.07
				c4.24,3.36,9.82,5.14,16.13,5.14c12.76,0,28.5-7.2,39.17-17.92c8.76-8.8,22.85-29.57,13.49-45.2
				c-4.1-6.84-11.18-9.88-18.32-11.35c3.33-2.89,6.44-6.5,8.7-11.07c3.9-7.86,4.91-17.87,2.78-27.46
				c-2.3-10.34-7.78-18.67-15.44-23.46C528.27,649.37,522.13,647.71,515.55,647.71L515.55,647.71z"/>
		</g>
		<g>
			<circle class="st7" cx="486" cy="718" r="13"/>
		</g>
	</g>
	<g>
		<g>
			<path class="st6" d="M538.23,574.16c-14.6,0-31.54-7.79-33.44-20.38c-1.26-8.37,7-14.15,14.29-19.25
				c1.96-1.37,4.64-3.25,6.24-4.7c-0.7-0.18-1.48-0.37-2.14-0.52c-4.96-1.17-12.45-2.93-19.89-9.18c-3.73-3.13-8.84-7.42-9.64-13.72
				c-0.63-4.98,1.47-10.26,6.26-15.69c10.4-11.8,32.28-22.54,45.9-22.54c4.7,0,8.41,1.22,11.01,3.63
				c4.54,4.19,3.98,10.02,3.49,15.16c-0.55,5.76-0.68,9.49,2.15,12.76c1.8,2.08,3.64,2.61,7,3.43c3.74,0.92,8.4,2.07,13.24,6.55
				c7.65,7.09,10.86,17.94,10.61,25.02c-0.16,4.49-1.62,7.97-4.21,10.05c-1.65,1.32-3.72,2.02-5.99,2.02
				c-4.02,0-8.15-2.09-12.54-4.3c-3.47-1.75-7.41-3.74-9.86-3.74c-0.69,0-0.95,0.17-1.05,0.24c-1.3,0.86-0.92,5.76-0.64,9.33
				c0.52,6.7,1.16,15.04-4.71,20.6C550.72,572.35,545.15,574.16,538.23,574.16z"/>
			<path d="M545.81,473.17c3.24,0,5.9,0.71,7.62,2.3c5.94,5.49-2.93,18.08,5.25,27.52c5.85,6.75,12.84,3.16,20.62,10.38
				c8.88,8.23,11.42,23.69,6.67,27.51c-0.8,0.65-1.77,0.92-2.86,0.92c-5.9,0-15.4-8.03-22.39-8.03c-1.38,0-2.67,0.31-3.81,1.07
				c-7.65,5.06,2.09,22.78-6.03,30.47c-2.8,2.66-7.46,3.85-12.66,3.85c-12.06,0-27.04-6.46-28.49-16.13
				c-1.5-9.96,23.81-18.01,21.65-24.99c-1.47-4.76-13.19-1.94-24.88-11.75c-3.41-2.86-7.34-6.16-7.89-10.52
				C496.87,492.1,529.07,473.17,545.81,473.17 M545.81,463.17L545.81,463.17c-15.07,0-38.28,11.33-49.65,24.24
				c-5.78,6.56-8.29,13.16-7.47,19.62c1.05,8.24,7.27,13.46,11.39,16.92c4.85,4.07,9.75,6.45,14.01,7.97
				c-7.3,5.2-15.8,12.2-14.24,22.6c1.16,7.69,6.68,14.47,15.55,19.08c6.81,3.54,15.13,5.56,22.84,5.56c8.22,0,14.98-2.28,19.53-6.59
				c7.6-7.2,6.83-17.27,6.26-24.62c-0.07-0.94-0.16-2.08-0.22-3.17c1.54,0.67,3.26,1.54,4.53,2.18c4.71,2.38,9.58,4.83,14.79,4.83
				c3.42,0,6.58-1.08,9.12-3.12c2.62-2.11,5.81-6.21,6.08-13.78c0.3-8.45-3.36-20.66-12.21-28.86c-5.79-5.37-11.6-6.8-15.44-7.74
				c-3.14-0.77-3.68-1-4.42-1.85c-1.48-1.71-1.43-4.06-0.95-9.01c0.51-5.35,1.28-13.43-5.07-19.31
				C556.66,464.83,551.81,463.17,545.81,463.17L545.81,463.17z"/>
		</g>
		<g>
			<circle class="st7" cx="544" cy="518" r="13"/>
		</g>
	</g>
	<g>
		<g>
			<path class="st6" d="M868.2,733.45c-10.99,0-27.71-6.91-28.87-17.75c-0.78-7.29,5.62-12.05,11.27-16.26
				c3.65-2.72,8.2-6.1,7.98-8.42c-0.18-1.92-3.48-5.13-12.16-8.47c-18.17-4.25-31.18-16.48-29.68-27.94
				c1.66-12.69,20.38-18.12,31.79-18.55c0.54-0.02,1.08-0.03,1.62-0.03c12.79,0,28.47,5.59,34.68,18.07
				c1.93,3.88,2.41,7.38,2.7,10.06c1.08-1.03,2.3-2.34,3.25-3.36c4.58-4.92,10.29-11.04,17.58-11.04c0.44,0,0.89,0.02,1.33,0.07
				c9.11,0.96,15.8,11.34,19.02,20.74c1.37,4.01,5.32,17.6-1.66,24.3c-2.06,1.98-4.73,2.98-7.93,2.98c-3.08,0-6.25-0.9-9.6-1.85
				c-3.33-0.95-6.78-1.92-9.93-1.92c-2.35,0-4.25,0.54-5.97,1.69c-3.76,2.52-6.86,7.95-9.19,16.14c-1.05,3.69-1.19,6.21-1.31,8.44
				c-0.16,2.98-0.35,6.35-3.39,9.26C877.08,732.11,873.09,733.45,868.2,733.45z"/>
			<path d="M850.15,641.02c11.37,0,25.1,5.04,30.2,15.3c3.47,6.97,1.19,12.81,4.36,14.21c0.36,0.16,0.74,0.24,1.13,0.24
				c5.62,0,13.39-16.01,22.51-16.01c0.27,0,0.54,0.01,0.81,0.04c11.7,1.23,21.73,29.44,14.42,36.45c-1.2,1.15-2.72,1.59-4.47,1.59
				c-5.18,0-12.4-3.77-19.54-3.78c-2.98,0-5.95,0.66-8.75,2.53c-7.2,4.82-10.29,15.68-11.22,18.92c-2.61,9.14-0.35,12.59-3.35,15.45
				c-1.81,1.73-4.71,2.47-8.06,2.47c-9.73,0-23.15-6.32-23.9-13.28c-0.98-9.1,20.22-14.6,19.25-24.63
				c-0.55-5.67-7.9-9.83-15.67-12.78c-16.92-3.85-27.23-14.52-26.19-22.5c1.19-9.12,17.07-13.82,27.02-14.2
				C849.19,641.03,849.67,641.02,850.15,641.02 M850.15,631.02c-0.61,0-1.22,0.01-1.81,0.03c-13.56,0.52-34.48,7.05-36.56,22.9
				c-1.85,14.14,12.36,28.4,33.16,33.38c4.3,1.68,6.6,3.1,7.79,4.01c-1.36,1.29-3.6,2.96-5.11,4.08
				c-6.05,4.5-14.34,10.67-13.25,20.8c0.72,6.66,5.64,12.71,13.87,17.04c6.17,3.24,13.64,5.18,19.97,5.18
				c6.2,0,11.38-1.81,14.97-5.25c4.47-4.27,4.74-9.28,4.92-12.59c0.11-2.06,0.23-4.19,1.13-7.34c2.62-9.2,5.62-12.32,7.17-13.36
				c0.62-0.42,1.49-0.84,3.18-0.84c2.46,0,5.57,0.88,8.57,1.73c3.54,1,7.19,2.04,10.97,2.04c5.66,0,9.32-2.38,11.4-4.37
				c8.86-8.51,5-23.48,2.93-29.53c-3.72-10.86-11.78-22.89-23.23-24.09c-0.61-0.06-1.23-0.1-1.85-0.1c-7.59,0-13.47,4.7-18.06,9.3
				c-0.29-0.72-0.61-1.45-0.98-2.19C882.15,637.47,864.48,631.02,850.15,631.02L850.15,631.02z"/>
		</g>
		<g>
			<circle class="st7" cx="872.78" cy="684.65" r="11.07"/>
		</g>
	</g>
	<g>
		<g>
			<path class="st6" d="M944,759.07c-10.67,0-26.32-5.8-27.57-15.26c-0.71-5.38,3.31-8.84,6.24-11.36c2.63-2.26,4.23-3.76,4.21-5.45
				c-0.02-1.73-1.83-3.27-4.81-5.62c-3.68-2.89-8.25-6.48-8.46-12.75c-0.14-4.2,1.87-8.67,5.67-12.59
				c5.09-5.27,12.51-8.67,18.9-8.67c1.18,0,2.33,0.11,3.42,0.33c4.35,0.87,7.95,4.05,15.13,10.39c2.15,1.9,3.95,3.61,5.4,4.99
				c1.9,1.81,4.04,3.84,4.93,4.22c0.17-0.12,1.02-0.69,2.13-2.88l1.32-2.6l2.91-0.13c2.36-0.11,4.6-0.16,6.67-0.16
				c14.87,0,22.36,2.67,24.3,8.64c0.78,2.39,0.88,6.38-3.04,11.77c-5.4,7.43-17.04,15.32-27.97,15.32c-1.43,0-2.83-0.13-4.17-0.4
				c-3.54-0.7-6.24-2.21-8.28-3.44c0.07,0.92,0.18,1.9,0.27,2.71c0.6,5.43,1.43,12.88-3.33,17.97
				C954.86,757.35,950.06,759.07,944,759.07z"/>
			<path d="M938.18,692.37c0.84,0,1.66,0.07,2.45,0.23c3.03,0.6,6.28,3.48,12.79,9.24c7.4,6.55,10.23,10.49,13.62,10.49
				c0.22,0,0.45-0.02,0.68-0.05c2.94-0.44,4.88-3.5,5.94-5.59c2.36-0.11,4.5-0.16,6.45-0.16c16.49,0,19.01,3.52,19.55,5.18
				c2.05,6.31-13.1,20.55-26.25,20.55c-1.09,0-2.16-0.1-3.21-0.3c-5.54-1.09-8.69-4.92-11.34-4.92c-0.41,0-0.81,0.09-1.21,0.3
				c-4.9,2.59,2.59,16.93-3.41,23.35c-2.22,2.38-6,3.37-10.23,3.37c-9.75,0-21.87-5.27-22.61-10.91
				c-0.75-5.71,10.57-8.36,10.49-16.21c-0.08-8.37-13.01-10.47-13.28-18.48C918.36,701.01,929.21,692.37,938.18,692.37
				 M938.18,682.37c-7.8,0-16.42,3.9-22.5,10.19c-4.74,4.9-7.25,10.67-7.07,16.23c0.29,8.6,6.35,13.36,10.37,16.52
				c0.66,0.52,1.52,1.19,2.19,1.78c-0.55,0.52-1.23,1.11-1.76,1.57c-3.15,2.71-9,7.75-7.94,15.81c1.69,12.79,19.97,19.6,32.52,19.6
				c7.48,0,13.54-2.26,17.54-6.55c4.51-4.83,5.29-10.86,5.12-16.11c0.51,0.14,1.04,0.26,1.59,0.37c1.66,0.33,3.39,0.49,5.14,0.49
				c12.72,0,25.73-8.74,32.01-17.38c5.16-7.1,4.89-12.75,3.75-16.25c-3.48-10.72-17.36-12.1-29.06-12.1c-2.15,0-4.47,0.06-6.9,0.17
				l-5.82,0.26l-1.44,2.84c-0.12-0.12-0.24-0.23-0.36-0.34c-1.48-1.41-3.32-3.15-5.53-5.11c-7.6-6.72-11.79-10.42-17.46-11.55
				C941.17,682.51,939.68,682.37,938.18,682.37L938.18,682.37z"/>
		</g>
		<g>
			<circle class="st7" cx="946.32" cy="719.11" r="9.52"/>
		</g>
	</g>
	<g>
		<g>
			<path class="st6" d="M1247.59,675.37c-1.11,0-2.18-0.16-3.19-0.47c-5.6-1.74-7.16-7.2-8.41-11.58c-1.17-4.11-2.04-6.68-4.16-7.63
				c-0.53-0.24-1.05-0.35-1.64-0.35c-2.04,0-4.61,1.32-7.34,2.71c-3.44,1.75-7.33,3.74-11.66,3.74c-1.82,0-3.59-0.36-5.25-1.06
				c-5.04-2.13-9.08-7.48-11.08-14.67c-1.92-6.93-2.15-16.84,2.98-23.88c2.91-3.99,7.96-6.21,18.02-10.63
				c3.05-1.34,5.62-2.36,7.89-3.26c3-1.19,7.12-2.83,7.33-3.57c0.14-0.49-0.14-1.99-2.13-4.5l-1.8-2.29l1.1-2.7
				c7.94-19.46,14.78-28.14,22.16-28.14c0.39,0,0.74,0.03,1.07,0.06c4.61,0.55,8.81,4.67,11.83,11.58
				c4.65,10.65,6.21,26.87-1.38,37.32c-2.62,3.61-5.79,5.74-8.1,7.29c-0.21,0.14-0.43,0.29-0.65,0.44c1.32,0.57,3.12,1.17,4.47,1.62
				c6.21,2.08,13.94,4.66,16.86,11.82c3.33,8.16-1.59,17.43-4.81,22.23C1264.39,667.38,1255.49,675.37,1247.59,675.37
				C1247.59,675.37,1247.59,675.37,1247.59,675.37z"/>
			<path d="M1250.42,572.1c0.17,0,0.33,0.01,0.47,0.03c8.29,0.99,16.57,27.81,7,41c-4.46,6.15-11.2,7.13-11,11
				c0.34,6.44,19.14,5.53,23,15c4.45,10.91-12.71,31.25-22.3,31.25c-0.6,0-1.17-0.08-1.7-0.25c-6.4-1.99-3.67-15.25-12-19
				c-1.24-0.56-2.47-0.79-3.7-0.79c-6.44,0-12.72,6.45-19,6.45c-1.1,0-2.2-0.2-3.3-0.66c-8.73-3.69-12.5-22.08-6-31
				c2.11-2.9,6.74-4.93,16-9c11.22-4.93,16.78-5.81,18-10c0.97-3.32-1.32-6.86-3-9C1242.1,574.57,1247.87,572.1,1250.42,572.1
				 M1250.42,562.1L1250.42,562.1c-9.83,0-17.85,9.35-26.79,31.25l-2.2,5.39l3.05,3.87c-0.84,0.35-1.74,0.7-2.57,1.03
				c-2.19,0.87-4.92,1.95-8.04,3.32c-10.89,4.78-16.36,7.18-20.06,12.27c-6.18,8.48-5.99,20.11-3.76,28.17
				c2.41,8.67,7.49,15.2,13.95,17.93c2.28,0.96,4.7,1.45,7.19,1.45c5.53,0,10.19-2.38,13.93-4.29c1.35-0.69,3.47-1.77,4.61-2.08
				c0.5,0.95,1.08,2.98,1.45,4.27c1.33,4.65,3.55,12.44,11.73,14.99c1.49,0.46,3.06,0.7,4.67,0.7c10.4,0,20.65-9.76,26.26-18.11
				c6.53-9.71,8.41-19.27,5.3-26.91c-3.04-7.46-9.89-11.02-15.79-13.24c0.89-0.92,1.78-1.95,2.62-3.11
				c8.74-12.04,7.11-30.34,1.91-42.26c-4.82-11.03-11.26-14-15.81-14.54C1251.53,562.13,1250.97,562.1,1250.42,562.1L1250.42,562.1z
				"/>
		</g>
		<g>
			<circle class="st7" cx="1232.66" cy="632.05" r="11.07"/>
		</g>
	</g>
	<g>
		<g>
			<path class="st6" d="M1316.44,719.88c-5.37,0-11.02-3.34-15.5-9.15c-3.92-5.09-7.42-13.14-5.49-20.49
				c1.69-6.43,6.66-9.31,11.05-11.85c4.12-2.38,8-4.64,10.59-9.85c2.91-5.86,2.34-11.72,1.93-16.01c-0.93-9.61-5.18-15.79-8.6-20.76
				c-3.26-4.73-6.62-9.63-4.19-15.27c3.98-9.22,19.16-9.93,23.72-9.93c10.27,0,22.73,3.04,26.91,11.57
				c3.05,6.23,0.26,11.99-2.2,17.08c-2.33,4.82-4.53,9.37-3,14.93c0.93,3.39,2.51,4.74,5.65,7.42c3.02,2.57,6.77,5.78,10.86,11.83
				c7.79,11.52,12.33,26.99,10.57,35.99c-0.63,3.21-2.05,5.58-4.21,7.02c-1.34,0.9-2.92,1.37-4.57,1.37c-4.05,0-7.83-2.73-12.22-5.9
				c-4.8-3.46-10.24-7.39-15.48-7.39c-0.84,0-1.64,0.1-2.44,0.3c-4.25,1.07-6.75,4.82-9.39,8.8c-3.03,4.56-6.8,10.24-13.92,10.29
				H1316.44z"/>
			<path d="M1329.95,611.57c9.5,0,19.49,2.8,22.42,8.77c4.21,8.59-9.37,17.21-5.53,31.14c2.49,9.04,9.14,8.81,17.19,20.72
				c9.38,13.87,12.84,32.64,7.72,36.06c-0.54,0.36-1.14,0.52-1.79,0.52c-5.87,0-15.99-13.29-27.7-13.29c-1.2,0-2.42,0.14-3.65,0.45
				c-11.98,3-13,18.88-22.12,18.94c-0.02,0-0.03,0-0.05,0c-8.56,0-18.65-13.89-16.16-23.37c2.41-9.18,15-8.09,21.29-20.76
				c3.54-7.14,2.86-14.18,2.43-18.71c-1.91-19.76-16.16-26.65-13.18-33.56C1312.76,613.97,1321.14,611.57,1329.95,611.57
				 M1329.95,601.57L1329.95,601.57c-14.23,0-24.81,4.84-28.31,12.95c-3.53,8.18,1.21,15.06,4.66,20.08
				c3.25,4.73,6.94,10.08,7.74,18.4c0.38,3.89,0.84,8.72-1.43,13.3c-1.92,3.87-4.88,5.58-8.62,7.75
				c-4.71,2.73-11.16,6.46-13.38,14.91c-2.03,7.73,0.35,17.01,6.37,24.82c5.44,7.05,12.53,11.1,19.46,11.1l0.12,0
				c9.77-0.06,14.75-7.56,18.05-12.52c2.52-3.79,4.18-6.15,6.44-6.71c0.4-0.1,0.8-0.15,1.22-0.15c3.63,0,8.58,3.57,12.55,6.44
				c4.88,3.52,9.49,6.85,15.15,6.85c2.64,0,5.18-0.76,7.35-2.21c2.27-1.52,5.22-4.53,6.34-10.22c2.02-10.33-2.74-27.05-11.33-39.76
				c-4.47-6.61-8.68-10.21-11.76-12.83c-3.06-2.61-3.58-3.16-4.08-4.94c-0.98-3.57,0.31-6.52,2.69-11.43
				c2.66-5.5,6.31-13.04,2.19-21.46C1354.81,602.61,1335.66,601.57,1329.95,601.57L1329.95,601.57z"/>
		</g>
		<g>
			<circle class="st7" cx="1340.54" cy="678.56" r="13"/>
		</g>
	</g>
	<g>
		<g>
			<path class="st6" d="M967.75,678.71c-6.63,0-14.3-4.09-20.03-10.67c-6.06-6.97-8.76-15.33-7.61-23.54
				c2.37-16.91,19.64-25.91,31.19-25.91c3.11,0,5.8,0.61,8.02,1.82c3.71,2.03,5.38,5.38,6.59,7.83c0.81,1.62,1.38,2.7,1.9,2.86
				c0.13,0.04,0.26,0.06,0.42,0.06l0,0c0.74,0,3.58-0.45,9.15-6.23l1.01-1.05l1.42-0.34c1.67-0.4,3.39-0.61,5.09-0.61
				c6.77,0,12.94,3.16,16.49,8.44c3.28,4.89,4.03,11.44,2,17.53c-1.7,5.08-5.01,8.91-8.87,10.25c-1.03,0.36-2.1,0.54-3.18,0.54
				c-4.33,0-7.6-2.84-10.48-5.34c-2.22-1.93-4.52-3.93-6.51-3.93c-0.11,0-0.22,0-0.33,0.02c-3.15,0.31-5.7,5.79-8.17,11.1
				c-3.36,7.22-7.17,15.41-15.44,16.93C969.56,678.63,968.66,678.71,967.75,678.71z"/>
			<path d="M971.3,623.58c2.19,0,4.13,0.4,5.62,1.21c4.89,2.67,4.41,9.57,9.45,11.09c0.61,0.18,1.24,0.27,1.87,0.27
				c4.48,0,9.37-4.26,12.75-7.76c1.31-0.32,2.63-0.47,3.93-0.47c5.03,0,9.7,2.3,12.33,6.23c5.08,7.56,0.83,18.47-4.36,20.27
				c-0.52,0.18-1.03,0.26-1.54,0.26c-5.32,0-9.81-9.27-16.99-9.27c-0.27,0-0.54,0.01-0.82,0.04c-11.81,1.15-12.4,25.95-24.03,28.09
				c-0.56,0.1-1.15,0.15-1.76,0.15c-9.8,0-24.85-13.09-22.68-28.52C947,631.39,961.6,623.59,971.3,623.58 M971.3,613.58
				L971.3,613.58c-7.17,0-15.35,2.81-21.88,7.51c-7.95,5.72-13.02,13.79-14.27,22.7c-1.36,9.67,1.76,19.44,8.79,27.52
				c6.65,7.64,15.76,12.39,23.8,12.39c1.22,0,2.42-0.11,3.57-0.32c10.81-1.99,15.58-12.25,19.07-19.74
				c1.14-2.45,2.94-6.33,4.26-7.91c0.87,0.58,2.12,1.67,2.95,2.39c3.19,2.77,7.56,6.57,13.76,6.57c1.64,0,3.26-0.28,4.82-0.82
				c5.31-1.85,9.79-6.86,11.97-13.39c2.52-7.54,1.55-15.73-2.59-21.9c-4.48-6.67-12.19-10.65-20.64-10.65
				c-2.1,0-4.21,0.25-6.26,0.74l-2.84,0.68l-2.03,2.1c-1.65,1.72-2.95,2.82-3.91,3.53c-1.39-2.71-3.67-6.51-8.15-8.96
				C978.76,614.4,975.26,613.58,971.3,613.58L971.3,613.58z"/>
		</g>
		<g>
			<circle class="st7" cx="966.59" cy="650" r="8.63"/>
		</g>
	</g>
	<g>
		<g>
			<path class="st6" d="M1130.32,738.15c-9.92,0-28.46-27.05-35.24-41.78c-5.8-12.6-6.42-21.3-1.87-26.62
				c3.2-3.74,7.71-4.17,10.83-4.17c2.17,0,4.45,0.24,6.86,0.49c2.59,0.27,5.27,0.55,7.98,0.55c5.42,0,9.63-1.18,13.27-3.72
				c4.28-2.98,7.53-7.71,9.67-14.07c-2.81-12.07-1.02-24.32,4.97-33.82c4.38-6.95,10.69-11.66,17.29-12.92
				c1.26-0.24,2.56-0.36,3.86-0.36c15.42,0,31.9,17.08,32.07,33.22c0.1,9.24-5.26,16.11-9.17,21.12c-0.63,0.81-1.38,1.77-2,2.63
				c1.64-0.17,3.69-0.57,5.83-0.98c3.99-0.77,8.52-1.64,13.02-1.64c5.46,0,9.82,1.28,13.32,3.92c10.15,7.65,10.96,25.28,8.58,38.05
				c-2.7,14.45-9.13,24.46-17.22,26.75c-1.17,0.33-2.36,0.5-3.54,0.5c-6.25,0-10.93-4.34-16.35-9.36
				c-6.72-6.22-14.33-13.28-27.14-14.99c-1.96-0.26-4.02-0.4-6.1-0.4c-10.31,0-18.58,3.09-22.1,8.26
				c-3.42,5.01-2.14,11.44-1.12,16.6c0.86,4.33,1.93,9.71-2.78,12.06C1132.33,737.92,1131.35,738.15,1130.32,738.15z"/>
			<path d="M1167.93,606.73c12.99,0,26.94,15.35,27.07,28.27c0.14,13.55-14.94,21.8-12,27c0.75,1.32,2.29,1.79,4.36,1.79
				c4.97,0,12.99-2.71,20.33-2.71c3.79,0,7.4,0.72,10.31,2.92c14.05,10.59,7.26,51.95-7,56c-0.74,0.21-1.47,0.31-2.18,0.31
				c-10.38,0-18.32-21.03-42.82-24.31c-2.12-0.28-4.4-0.44-6.77-0.44c-9.85,0-20.98,2.73-26.23,10.44c-7.46,10.93,1.37,25.32-2,27
				c-0.2,0.1-0.43,0.15-0.68,0.15c-8.1,0-43.32-48.45-33.32-60.15c1.6-1.88,4.04-2.42,7.03-2.42c4.13,0,9.31,1.03,14.84,1.03
				c5.27,0,10.86-0.94,16.13-4.62c6.89-4.8,10.24-12.17,12-18c-5.64-21.44,5.63-39.65,18-42
				C1165.97,606.82,1166.95,606.73,1167.93,606.73 M1167.93,596.73v10V596.73L1167.93,596.73L1167.93,596.73
				c-1.62,0-3.24,0.15-4.8,0.45c-7.96,1.51-15.46,7.04-20.58,15.16c-6.46,10.24-8.57,23.27-5.93,36.16
				c-1.76,4.67-4.22,8.13-7.33,10.3c-2.8,1.95-6.01,2.82-10.41,2.82c-2.45,0-5-0.26-7.46-0.52c-2.55-0.26-4.95-0.51-7.38-0.51
				c-2.37,0-9.57,0-14.63,5.92c-5.94,6.95-5.57,17.41,1.13,31.96c4.15,9,10.59,19.26,17.67,28.13
				c11.64,14.58,17.71,16.55,22.11,16.55c1.82,0,3.55-0.4,5.14-1.19c1.57-0.78,6.66-3.93,6.33-11.63c-0.08-1.91-0.47-3.84-0.87-5.88
				c-1.07-5.4-1.73-9.77,0.35-12.81c2.52-3.69,9.57-6.07,17.97-6.07c1.86,0,3.69,0.12,5.44,0.35c11.24,1.5,17.93,7.7,24.4,13.7
				c5.67,5.26,11.54,10.7,19.75,10.7c1.65,0,3.3-0.23,4.91-0.69c9.95-2.83,17.72-14.29,20.77-30.65
				c2.77-14.86,1.47-33.94-10.49-42.96c-4.34-3.27-9.84-4.93-16.33-4.93c-2.61,0-5.17,0.25-7.62,0.61c2.72-4.53,5-10.11,4.93-16.8
				c-0.09-8.72-4.26-18.1-11.43-25.73C1186.14,601.26,1176.79,596.73,1167.93,596.73L1167.93,596.73z"/>
		</g>
		<g>
			<circle class="st7" cx="1167" cy="670" r="13"/>
		</g>
	</g>
	<g>
		<g>
			<path class="st6" d="M1432,656c-7.1,0-10.61-7.22-13.72-13.58c-2.21-4.54-4.96-10.18-7.74-10.44c-0.08-0.01-0.15-0.01-0.23-0.01
				c-2.03,0-4.64,2.65-6.94,4.99c-3,3.05-6.11,6.2-10.38,6.2c-0.88,0-1.75-0.14-2.58-0.42c-5.91-1.98-6.27-8.59-6.58-14.43
				c-0.31-5.79-0.67-12.36-4.65-17.09c-4.11-4.89-10.47-5.65-16.08-6.32c-5.55-0.66-11.85-1.42-13.83-7.3
				c-1.01-2.99-0.47-6.38,1.6-10.05c5.6-9.93,23.61-22.9,44.05-27.43c5.85-1.3,12.06-1.95,18.45-1.95
				c17.85,0,37.29,5.43,40.46,17.57c1.84,7.02-2.56,12.87-6.45,18.02c-3.93,5.22-7.65,10.16-6.48,16.31
				c0.51,2.65,1.65,4.25,3.1,6.26c1.99,2.77,4.47,6.22,4.97,12.26c0.65,7.9-2.39,17-7.57,22.62C1438.53,654.34,1435.28,656,1432,656
				L1432,656z"/>
			<path d="M1413.37,563.17c17.36,0,33.38,5.27,35.63,13.83c2.67,10.21-15.93,18.63-13,34c1.53,8.02,7.28,9.26,8,18
				c0.85,10.31-6.04,22-12,22c0,0,0,0,0,0c-8.36-0.01-10.36-23.02-21-24c-0.23-0.02-0.46-0.03-0.68-0.03
				c-7.45,0-12.46,11.19-17.32,11.19c-0.33,0-0.66-0.05-0.99-0.16c-5.96-2,0.23-19.03-9-30c-9.61-11.42-26.78-5.41-29-12
				c-2.61-7.75,17.89-25.66,42-31C1401.63,563.75,1407.58,563.17,1413.37,563.17 M1413.38,553.17v10V553.17
				c-6.76,0-13.34,0.7-19.54,2.07c-19.86,4.4-40.2,17.23-47.33,29.85c-3.49,6.18-3.01,11.08-1.99,14.1
				c2.99,8.88,12.01,9.96,17.98,10.67c6.05,0.72,10.21,1.43,12.85,4.57c2.91,3.46,3.2,8.89,3.49,14.15
				c0.34,6.31,0.86,15.84,9.99,18.9c1.35,0.45,2.75,0.68,4.17,0.68c6.36,0,10.56-4.27,13.94-7.69c0.83-0.84,2.05-2.08,3.01-2.88
				c1.26,1.73,2.88,5.05,3.84,7.02c3.37,6.92,7.99,16.39,18.21,16.39c3.29,0,8.23-1.11,13.1-6.4c6.07-6.59,9.64-17.21,8.87-26.42
				c-0.61-7.43-3.79-11.85-5.89-14.77c-1.39-1.93-1.96-2.77-2.25-4.28c-0.72-3.78,1.64-7.16,5.56-12.36
				c4.34-5.76,9.74-12.94,7.29-22.3C1454.56,558.74,1431.7,553.17,1413.38,553.17L1413.38,553.17z"/>
		</g>
		<g>
			<circle class="st7" cx="1407" cy="602" r="13"/>
		</g>
	</g>
	<g>
		<g>
			<path class="st6" d="M1246.01,613.96c-6.85-0.23-14.06-5.21-19.79-13.67c-5.83-8.62-11.1-22.96-6.74-35
				c3.74-10.34,13.02-14.75,21.99-19.03c8.59-4.09,16.7-7.95,20.31-16.76c2.69-6.56,2.37-14.58-0.95-23.86l-0.17-0.48l-0.07-0.5
				c-2.03-14.16,1.55-28.05,9.83-38.1c6.1-7.41,14.19-11.9,22.19-12.3c0.41-0.02,0.82-0.03,1.23-0.03
				c14.95,0,30.73,14.43,33.11,30.28c1.46,9.74-2.47,18.28-5.67,24.38c0.24-0.15,0.48-0.29,0.71-0.43
				c6.31-3.85,14.16-8.64,21.87-8.64c2.4,0,4.66,0.47,6.71,1.39c12.81,5.74,14.16,26.68,11.94,39.35
				c-3.16,17.99-16.98,38.04-31.78,38.04c-0.34,0-0.67-0.01-1.01-0.03c-10.39-0.63-15.49-10.1-19.98-18.46
				c-3.08-5.73-6.27-11.66-9.94-11.98c-0.12-0.01-0.25-0.02-0.37-0.02c-6.77,0-14.82,16.36-21.28,29.51
				c-9.19,18.69-17.87,36.33-31.63,36.33C1246.35,613.97,1246.18,613.96,1246.01,613.96z"/>
			<path d="M1293.85,459.23c13.03,0,26.22,13.09,28.16,26.03c2.33,15.5-11.89,28.22-8.47,31.53c0.37,0.36,0.85,0.52,1.44,0.52
				c5.17,0,18.2-12.49,28.89-12.49c1.62,0,3.19,0.29,4.67,0.95c9.59,4.3,11.07,22.43,9.06,33.93c-2.8,15.98-14.96,33.91-26.86,33.91
				c-0.24,0-0.47-0.01-0.71-0.02c-14.75-0.89-16.64-29.27-29.79-30.43c-0.27-0.02-0.54-0.04-0.8-0.04
				c-20.01-0.01-31.88,65.85-52.92,65.85c-0.11,0-0.23,0-0.34-0.01c-12.99-0.44-27.79-25.94-21.99-41.97
				c6.3-17.4,33.82-15.1,42.23-35.59c3.98-9.71,1.81-19.97-0.87-27.45c-3.57-24.91,12.18-43.93,27.33-44.7
				C1293.2,459.24,1293.53,459.23,1293.85,459.23 M1293.85,449.23c-0.49,0-0.99,0.01-1.48,0.04c-9.4,0.48-18.81,5.62-25.8,14.12
				c-9.17,11.14-13.15,26.44-10.92,41.99l0.14,1l0.34,0.95c2.89,8.08,3.24,14.9,1.03,20.28c-2.88,7.02-9.81,10.32-17.84,14.14
				c-9.42,4.49-20.1,9.57-24.54,21.84c-5,13.81,0.81,29.91,7.3,39.5c6.63,9.8,15.29,15.58,23.76,15.87
				c0.23,0.01,0.45,0.01,0.68,0.01c16.88,0,26.66-19.89,36.12-39.13c3.46-7.04,7.04-14.31,10.52-19.64
				c3.42-5.23,5.51-6.64,6.19-6.99c1.66,1.24,4.56,6.62,5.99,9.27c4.6,8.56,10.91,20.28,24.08,21.08c0.43,0.03,0.88,0.04,1.31,0.04
				c8.76,0,17.57-5.31,24.83-14.95c5.88-7.82,10.21-17.74,11.88-27.23c2.14-12.23,1.81-37.33-14.82-44.78
				c-2.7-1.21-5.65-1.82-8.76-1.82c-4.43,0-8.73,1.23-12.75,2.98c1.06-4.27,1.54-9,0.79-14.02
				C1329.14,465.37,1311.36,449.23,1293.85,449.23L1293.85,449.23z"/>
		</g>
		<g>
			<circle class="st7" cx="1291.08" cy="530.04" r="13"/>
		</g>
	</g>
	<g>
		<g>
			<path class="st6" d="M1444.25,726.35c-5.78,0-14.39-2.68-20.59-8.66c-3.31-3.2-4.46-5.97-5.47-8.43
				c-0.88-2.13-1.79-4.33-4.54-7.69c-2.18-2.66-4.08-4.29-5.76-5.72c-2.58-2.21-5.26-4.5-6.33-8.89c-1.28-5.21,1.34-8.96,3.07-11.44
				c0.49-0.71,1.23-1.76,1.35-2.21c-0.35-1.01-2.83-2.28-4.18-2.96c-2.45-1.25-6.54-3.34-5.75-7.88c1-5.74,8.5-6.12,13.46-6.37
				l0.34-0.02l0.34,0.03c37.29,3.25,43.68,6.59,43.88,12.85c0.16,4.9-4.49,6.65-8.6,8.2c-4.14,1.56-9.3,3.5-10.69,7.29
				c-1.52,4.15,1.66,10.2,4.22,15.05c3.21,6.11,6.87,9.89,9.54,12.64c2.7,2.79,6.07,6.27,3.7,10.51
				C1451.31,724.35,1449.15,726.35,1444.25,726.35z"/>
			<path d="M1409.77,661.1c31.59,2.75,39.24,5.68,39.32,8.03c0.11,3.38-15.43,3.87-18.99,13.61c-2.28,6.23,1.43,13.28,4.49,19.1
				c6.38,12.13,14.55,16.14,13.3,18.38c-0.41,0.73-1.75,1.13-3.63,1.13c-4.43,0-11.86-2.19-17.11-7.26
				c-5.15-4.97-3.2-7.88-9.62-15.69c-5.81-7.08-9.89-7.72-11.1-12.63c-1.43-5.84,5.77-8.75,4.39-13.73
				c-1.48-5.38-10.21-6.52-9.83-8.7C1401.13,662.5,1402.62,661.46,1409.77,661.1 M1409.95,651.07l-0.69,0.03
				c-4.18,0.21-7.22,0.66-9.55,1.4c-6.69,2.13-8.23,7.08-8.58,9.11c-0.74,4.22,1.05,8.36,4.77,11.07c1.1,0.8,2.22,1.39,3.32,1.95
				c-1.84,2.98-3.94,7.63-2.5,13.5c1.46,5.95,5.05,9.03,7.94,11.5c1.59,1.36,3.24,2.78,5.14,5.1c2.28,2.78,2.94,4.39,3.78,6.43
				c1.14,2.76,2.55,6.2,6.62,10.12c7.21,6.95,17.28,10.07,24.06,10.07c7.71,0,11.05-3.91,12.36-6.24c0.81-1.46,3.15-6.66-1.02-12.51
				c-0.97-1.36-2.12-2.54-3.45-3.92c-2.46-2.54-5.83-6.02-8.71-11.49c-1.64-3.13-4.7-8.94-3.95-11.01c0.6-1.64,5.43-3.45,7.75-4.33
				c1.83-0.69,3.56-1.34,5.15-2.21c6.25-3.43,6.76-8.72,6.69-10.83c-0.08-2.52-1.11-7.22-7.04-10.37c-2.12-1.12-4.83-2.05-8.53-2.91
				c-7.02-1.64-17.77-3.07-32.88-4.39L1409.95,651.07L1409.95,651.07z"/>
		</g>
		<g>
			
				<ellipse transform="matrix(0.8889 -0.4581 0.4581 0.8889 -154.2334 726.0504)" class="st7" cx="1419.93" cy="681.04" rx="7.58" ry="7.53"/>
		</g>
	</g>
	<g>
		<g>
			<path class="st6" d="M1593.06,721.49c-15.15,0-32.21-5.51-36.16-17.82c-3.19-9.92,3.79-18.1,9.95-25.32
				c4.22-4.95,8.59-10.07,7.56-13.61c-1.93-6.6-20.45-8.19-35.34-9.47c-21.01-1.8-40.86-3.51-45.52-16.77
				c-2.27-6.47-0.25-15,5.56-23.4c5.92-8.56,17.37-18.67,30.17-18.98c0.19,0,0.39-0.01,0.58-0.01c10.68,0,18.03,6.91,25.13,13.59
				c6.93,6.52,13.47,12.67,22.99,12.85l0.41,0c6.96,0,14.18-3.21,21.48-9.55l0.38-0.33l0.44-0.25c7.92-4.47,16.64-6.83,25.21-6.83
				c15.03,0,28.44,7.39,33.38,18.38c6.23,13.88-1.41,34.76-15.73,42.97c-4.78,2.74-10.31,4.07-16.9,4.07
				c-2.82,0-5.51-0.24-7.87-0.51c0.23,0.17,0.45,0.34,0.66,0.51c7.45,5.68,17.66,13.46,17.13,24c-0.7,14.02-19.72,22.88-32.34,25.4
				C1600.69,721.13,1596.94,721.49,1593.06,721.49z"/>
			<path d="M1529.84,601.12c18.18,0,26.07,26.04,48.03,26.44c0.17,0,0.34,0,0.5,0c10.27,0,18.86-5.65,24.76-10.78
				c7.67-4.33,15.52-6.19,22.76-6.19c13.45,0,24.77,6.43,28.82,15.43c5.47,12.18-2.03,29.92-13.65,36.59
				c-4.65,2.67-9.71,3.41-14.42,3.41c-5.94,0-11.32-1.18-14.67-1.18c-1.76,0-2.95,0.33-3.37,1.32
				c-2.23,5.29,23.64,15.12,22.97,28.61c-0.52,10.5-16.89,18.46-28.33,20.75c-3.24,0.65-6.69,0.97-10.18,0.97
				c-13.97,0-28.43-5.1-31.4-14.35c-4.52-14.07,21.24-26.13,17.54-38.8c-5.8-19.86-73.8-6.16-80.94-26.49
				c-4.31-12.26,14.09-35.31,31.13-35.72C1529.54,601.12,1529.69,601.12,1529.84,601.12 M1529.84,591.12L1529.84,591.12
				L1529.84,591.12c-0.23,0-0.47,0-0.7,0.01c-14.68,0.35-27.58,11.61-34.16,21.14c-6.72,9.73-8.97,19.9-6.16,27.9
				c5.73,16.31,28.13,18.23,49.81,20.09c7.81,0.67,15.89,1.36,22.12,2.68c6.11,1.29,8.18,2.72,8.76,3.23
				c-0.55,2-4.51,6.65-6.47,8.94c-6.3,7.4-14.94,17.52-10.9,30.09c4.73,14.71,23.96,21.29,40.92,21.29c4.21,0,8.3-0.39,12.14-1.16
				c12.17-2.44,35.44-11.86,36.35-30.06c0.4-7.96-3.79-14.42-8.9-19.61c4.96-0.63,9.37-2.08,13.37-4.37
				c7.61-4.36,14.02-12.12,17.59-21.27c3.84-9.87,3.92-19.84,0.22-28.09c-5.82-12.96-20.71-21.33-37.94-21.33
				c-9.43,0-19,2.59-27.67,7.48l-0.88,0.5l-0.76,0.66c-6.36,5.52-12.48,8.33-18.2,8.33c-0.11,0-0.22,0-0.32,0
				c-7.59-0.14-13.18-5.4-19.65-11.49C1550.95,599.07,1542.51,591.12,1529.84,591.12L1529.84,591.12z"/>
		</g>
		<g>
			<circle class="st7" cx="1588.09" cy="650.04" r="13"/>
		</g>
	</g>
	<g>
		<g>
			<path class="st6" d="M1478.92,788.98c-5.25,0-9.63-1.36-13.02-4.06c-8.16-6.47-6.92-17.15-5.82-26.57
				c0.75-6.46,1.53-13.15-1.29-15.51c-0.91-0.76-2.18-1.13-3.87-1.13c-7.34,0-19.25,6.57-30.76,12.92
				c-13.58,7.49-26.4,14.56-36.84,14.56c-4.03,0-7.5-1.07-10.32-3.18c-5.49-4.11-8.55-12.33-8.39-22.54
				c0.15-10.41,4.05-25.18,14.51-32.55c4.3-3.03,9.37-4.51,15.48-4.51c4.45,0,9.02,0.76,13.44,1.5c4.32,0.72,8.79,1.47,13.03,1.47
				c5.23,0,9.43-1.14,13.22-3.58c5.96-3.83,10.29-10.6,12.88-20.11l0.13-0.49l0.23-0.45c8.29-16.43,24-27.04,40.02-27.04
				c5.64,0,10.86,1.4,15.1,4.05c12.9,8.07,18.16,29.68,10.83,44.46c-4.38,8.82-12.49,13.57-18.6,16.74
				c0.28,0.02,0.56,0.04,0.83,0.05c9.35,0.58,22.16,1.37,27.58,10.41c7.22,12.04-3.67,29.98-12.75,39.1
				C1504.9,782.21,1490.25,788.97,1478.92,788.98z"/>
			<path d="M1491.55,662.71c4.64,0,8.95,1.11,12.45,3.29c11.32,7.08,14.96,25.99,9,38c-6.97,14.04-25.9,16.33-25,21
				c1.09,5.63,28.06-0.58,35,11c5.4,9.01-3.77,24.73-12,33c-8.48,8.52-21.79,14.98-32.08,14.98c-3.87,0-7.32-0.91-9.92-2.98
				c-11.58-9.18,3.11-33.53-7-42c-1.92-1.6-4.32-2.3-7.08-2.3c-17.43,0-49.48,27.48-67.6,27.48c-2.81,0-5.28-0.66-7.32-2.18
				c-10.4-7.79-7.93-37.18,6-47c3.85-2.71,8.1-3.59,12.6-3.59c8.27,0,17.39,2.97,26.47,2.97c5.39,0,10.76-1.04,15.93-4.37
				c8.83-5.68,12.92-15.34,15-23C1464.25,670.64,1479.12,662.71,1491.55,662.71 M1491.55,652.71L1491.55,652.71
				c-17.89,0-35.35,11.69-44.48,29.79l-0.46,0.9l-0.27,0.98c-2.25,8.28-5.87,14.07-10.76,17.22c-2.99,1.92-6.23,2.78-10.52,2.78
				c-3.82,0-7.89-0.68-12.2-1.4c-4.62-0.77-9.4-1.57-14.26-1.57c-7.18,0-13.19,1.77-18.36,5.42c-12,8.46-16.46,24.98-16.63,36.56
				c-0.17,11.83,3.61,21.53,10.39,26.61c3.7,2.78,8.18,4.18,13.31,4.18c11.72,0,25.09-7.38,39.25-15.18
				c9.93-5.48,22.29-12.3,28.35-12.3c0.27,0,0.46,0.02,0.6,0.03c0.66,1.97-0.05,8.03-0.4,11.03c-1.13,9.65-2.67,22.87,7.68,31.07
				c4.24,3.36,9.82,5.14,16.13,5.14c12.76,0,28.5-7.2,39.17-17.92c8.76-8.8,22.85-29.57,13.49-45.2
				c-4.1-6.84-11.18-9.88-18.32-11.35c3.33-2.89,6.44-6.5,8.7-11.07c3.9-7.86,4.91-17.87,2.78-27.46
				c-2.3-10.34-7.78-18.67-15.44-23.46C1504.27,654.37,1498.13,652.71,1491.55,652.71L1491.55,652.71z"/>
		</g>
		<g>
			<circle class="st7" cx="1462" cy="723" r="13"/>
		</g>
	</g>
	<g>
		<g>
			<path class="st6" d="M1623.36,809.3c-9.55,0-21-7.26-26.93-14.09c-4.25-4.89-6.15-9.87-5.51-14.4c0.97-6.8,7.05-9.96,11.94-12.5
				c4.4-2.28,7.32-3.96,7.91-6.44c0.68-2.88-5.37-7.78-9.38-11.03c-5.82-4.72-11.83-9.59-10.07-15.98
				c1.95-7.06,11.89-13.02,21.7-13.02c5.03,0,9.59,1.59,13.21,4.61c5.62,4.69,4.7,12.59,4.03,18.35c-0.07,0.6-0.15,1.32-0.22,2.02
				c2.74-1.68,6.13-3.75,10.28-3.75c1.23,0,2.45,0.19,3.61,0.56c3.18,1.02,5.81,3.29,7.84,6.77c18.99,30.25,19.94,38.26,15.06,42.45
				c-0.88,0.75-2.39,1.65-4.62,1.65c-3.08,0-6.2-1.69-10.14-3.82c-3.58-1.94-8.03-4.35-11.05-4.35c-0.84,0-1.28,0.2-1.54,0.34
				c-1.31,0.75-1.72,3.23-2.18,6.93c-0.6,4.75-1.34,10.66-6.69,13.86C1628.57,808.68,1626.13,809.3,1623.36,809.3z"/>
			<path d="M1613.03,726.83c3.52,0,7.06,0.99,10.01,3.45c6.48,5.41-1.17,20.57,3.43,22.8c0.35,0.17,0.72,0.24,1.1,0.24
				c3.23,0,7.75-5.26,12.76-5.26c0.69,0,1.38,0.1,2.08,0.32c2.47,0.79,4.07,2.84,5.09,4.6c15.98,25.44,18.37,34.1,16.08,36.07
				c-0.36,0.31-0.81,0.44-1.36,0.44c-4.23,0-13.69-8.17-21.19-8.17c-1.42,0-2.78,0.29-4.01,0.99c-7.07,4.01-2.34,16.88-8.97,20.85
				c-1.3,0.78-2.9,1.13-4.69,1.13c-10.95,0-28.84-13.27-27.49-22.79c1.22-8.62,17.48-8.85,19.77-18.48
				c2.57-10.82-21.47-19.68-19.49-26.84C1597.39,731.73,1605.19,726.83,1613.03,726.83 M1613.03,716.83
				c-12.08,0-23.97,7.48-26.52,16.68c-0.94,3.39-0.97,8.64,4.21,14.44c2.14,2.39,4.87,4.61,7.52,6.76c2.05,1.66,5.57,4.52,7.07,6.4
				c-1.16,0.88-3.33,2-4.76,2.74c-5.28,2.74-13.26,6.89-14.59,16.24c-0.85,6.01,1.46,12.36,6.68,18.38
				c6.82,7.86,19.56,15.81,30.7,15.81c3.69,0,6.99-0.86,9.82-2.55c7.44-4.45,8.43-12.32,9.08-17.53c0.09-0.75,0.21-1.71,0.35-2.55
				c2.13,0.72,5.22,2.39,7.08,3.4c4.39,2.37,8.17,4.43,12.52,4.43c2.98,0,5.7-0.99,7.87-2.86c7.43-6.38,3.15-16.74,1.54-20.64
				c-2.75-6.65-7.84-15.88-15.58-28.2c-3.32-5.64-7.58-7.97-10.59-8.94c-1.66-0.53-3.39-0.8-5.14-0.8c-1.62,0-3.15,0.23-4.56,0.6
				c0.07-5.44-1.03-11.65-6.32-16.06C1624.92,718.83,1619.25,716.83,1613.03,716.83L1613.03,716.83z"/>
		</g>
		<g>
			<circle class="st7" cx="1626.16" cy="772.52" r="5.94"/>
		</g>
	</g>
	<path class="st5" d="M1701.54,727.08c3.74,18.96-4.86,37.95-17.61,45.16c-8.14,4.6-16.16,3.37-19.86,2.47"/>
	<path class="st5" d="M1512,791c5.53-0.61,58.58-7.29,77-48c2.79-6.16,5.55-14.8,6-26"/>
	<path class="st5" d="M1280,766c0.92-13.48,9.31-25.01,21-29c14.78-5.05,32.64,2.71,40,19"/>
	<path class="st5" d="M1440,617c3.87-1.04,25.67-7.26,37-29c7.04-13.52,6.56-26.35,6-32"/>
	<path class="st5" d="M242.02,765.46c10.76-22.54,38.58-44.04,62.22-51.37c15.11-4.68,25.14-2.54,29.5-1.16"/>
	<path class="st5" d="M1421,309c-2.99,2.56-31.41,27.64-26,59c0.83,4.79,2.68,11.1,7,18"/>
	<path class="st5" d="M1284.01,431.21c-3.2-0.62-34.05-6.1-52.66,13.46c-2.84,2.98-6.22,7.41-8.78,13.74"/>
	<path class="st5" d="M1153.84,577.3c-2.99,2.56-31.41,27.64-26,59c0.83,4.79,2.68,11.1,7,18"/>
	<path class="st5" d="M1493.09,474.05c5.69-1.55,59.93-17.11,63.83-57.54c0.6-6.17,0.19-14.7-3.84-25.2"/>
	<path class="st5" d="M586,454c4.75,10.14,3.6,21.82-3,30c-7.3,9.04-18.1,9.88-20,10"/>
	<path class="st5" d="M898.46,756.04c-6.36,0.38-66.89,3.52-62.75-19.2c0.63-3.47,2.95-8.54,9.97-15.58"/>
	<path class="st5" d="M986.66,661.76c4.38,1.87,28.22,12.71,31.58,44.09c1.15,10.75-0.43,20.79-2.24,28.16"/>
	<path class="st5" d="M262,492c19.97-4.11,38.86,2.99,47,17c5.17,8.9,4.66,18.26,4,23"/>
</g>
</svg>
