<?xml version="1.0" encoding="utf-8"?>
<!-- Generator: Adobe Illustrator 27.5.0, SVG Export Plug-In . SVG Version: 6.00 Build 0)  -->
<svg version="1.1" xmlns="http://www.w3.org/2000/svg" xmlns:xlink="http://www.w3.org/1999/xlink" x="0px" y="0px"
	 viewBox="0 0 1800 800" style="enable-background:new 0 0 1800 800;" xml:space="preserve">
<style type="text/css">
	.st0{display:none;}
	.st1{display:inline;fill:#FFFFFF;stroke:#000000;stroke-width:10;stroke-miterlimit:10;}
	.st2{display:inline;fill:#FFFFFF;stroke:#000000;stroke-width:10;stroke-linejoin:bevel;stroke-miterlimit:10;}
	.st3{display:inline;fill:none;stroke:#000000;stroke-width:10;stroke-miterlimit:10;}
	.st4{fill:#FFFFFF;stroke:#000000;stroke-width:10;stroke-miterlimit:10;}
	.st5{fill:none;stroke:#000000;stroke-width:10;stroke-miterlimit:10;}
	.st6{fill:#FF8D1A;}
	.st7{fill:#FFFFFF;}
</style>
<g id="图层_1" class="st0">
	<rect x="1002.96" y="316.39" class="st1" width="33.06" height="317.35"/>
	<rect x="758.6" y="316.39" class="st1" width="33.06" height="317.35"/>
	<polyline class="st1" points="725.69,407.12 725.69,442.9 1069.43,442.9 1069.43,408.15 	"/>
	<rect x="725.49" y="442.9" class="st1" width="33.06" height="317.35"/>
	<rect x="1036.19" y="443.06" class="st1" width="33.06" height="317.35"/>
	<rect x="758.1" y="38.91" class="st1" width="277.68" height="277.68"/>
	<path class="st2" d="M1075.47,429.77"/>
	<polyline class="st2" points="725.25,412.16 758.92,316.59 1036.1,316.59 1069.27,411.95 	"/>
	<line class="st3" x1="1069.43" y1="411.89" x2="724.49" y2="411.89"/>
	<path class="st1" d="M535,97"/>
</g>
<g id="图层_2">
	<path class="st4" d="M877,154c0.89-2.6,6.23-18.12,18-19c7.59-0.57,15.36,5.13,18,12c3.69,9.58-3.87,18.1-7,27
		c-10.32,29.36,32.01,50.36,41,98c4.78,25.33,0.98,62.68-23,79c-15.33,10.43-42.47,14.7-56,2c-29.83-28,26.3-119.95,10-169
		C876.97,180.9,872.26,167.78,877,154z"/>
	<path class="st5" d="M878,148.87c2.97,15.14,16.63,22.27,25,19.13c6.34-2.38,10.85-11.1,10-21"/>
	<path class="st5" d="M897,166c-0.73-13.53-0.16-33.83,7-57c5.08-16.44,11.99-29.51,18-39"/>
	<g>
		<path class="st6" d="M943.76,112.77c-4.22,0-8.36-1.16-12.28-3.45c-2.48-1.44-4.98-3.47-7.64-5.61
			c-5.24-4.23-11.19-9.02-16.77-9.02c-1.39,0-2.71,0.29-4.05,0.88c-5.95,2.63-9.2,5.83-12.08,8.64c-2.96,2.9-6.02,5.9-10.74,5.9
			c-0.71,0-1.43-0.07-2.16-0.21c-8.26-1.6-14.14-10.77-16.89-18.81c-2.86-8.37-3.81-19.7,2.09-26.4c2.86-3.25,6.79-4.84,11.99-4.84
			c2.71,0,5.55,0.42,8.3,0.82c2.7,0.4,5.49,0.81,8.08,0.81c3.57,0,6.14-0.75,8.34-2.45c5.48-4.22,5.73-12.79,5.98-21.09
			c0.27-9.35,0.55-19.02,8.73-23.36c2.26-1.2,4.89-1.81,7.81-1.81c11.29,0,26.05,9.42,26.53,20c0.29,6.4-4.44,9.89-8.25,12.7
			c-3.32,2.45-5.36,4.1-5.85,6.51c-0.67,3.32,3.11,5.71,11.29,9.99c10.49,5.5,24.86,13.03,20.68,31.15
			C964.2,104.69,954.7,112.77,943.76,112.77z"/>
		<path d="M922.47,17.77c9.24,0,21.21,8.07,21.53,15.23c0.34,7.46-12.2,9.03-14,18c-3.34,16.6,37.95,15.2,32,41
			c-2.19,9.48-9.69,15.77-18.24,15.77c-3.18,0-6.5-0.87-9.76-2.77c-7.12-4.15-16.4-15.31-26.92-15.31c-1.98,0-4.01,0.4-6.08,1.31
			c-12.85,5.69-15.13,14.12-20.79,14.12c-0.39,0-0.79-0.04-1.21-0.12c-11.3-2.19-20-27.91-12-37c2.13-2.42,4.98-3.14,8.24-3.14
			c4.88,0,10.69,1.62,16.38,1.62c3.97,0,7.89-0.79,11.39-3.48c14.1-10.85,2.27-37.77,14-44C918.6,18.15,920.47,17.77,922.47,17.77
			 M922.47,7.77c-3.75,0-7.17,0.81-10.16,2.4c-10.74,5.7-11.09,17.86-11.38,27.63c-0.21,7.13-0.42,14.5-4.03,17.27
			c-0.91,0.7-2.24,1.41-5.29,1.41c-2.22,0-4.72-0.37-7.36-0.75c-2.92-0.43-5.94-0.87-9.02-0.87c-6.63,0-11.93,2.2-15.74,6.53
			c-6.21,7.05-7.35,18.76-3.07,31.32c4.15,12.14,11.87,20.41,20.67,22.11c1.04,0.2,2.08,0.3,3.11,0.3c6.76,0,10.91-4.07,14.24-7.33
			c2.7-2.64,5.48-5.38,10.6-7.64c0.7-0.31,1.35-0.46,2.03-0.46c3.82,0,9.26,4.39,13.63,7.92c2.8,2.26,5.45,4.4,8.26,6.03
			c4.63,2.7,9.75,4.13,14.8,4.13c13.28,0,24.79-9.67,27.99-23.52c2.22-9.63-0.01-18.36-6.46-25.27c-4.84-5.18-11.18-8.5-16.77-11.43
			c-2.46-1.29-6.79-3.56-8.43-5.04c0.73-0.87,2.62-2.27,3.63-3.01c4-2.95,10.68-7.88,10.27-16.95c-0.3-6.6-4.46-13.01-11.7-18.06
			C936.14,10.22,928.92,7.77,922.47,7.77L922.47,7.77z"/>
	</g>
	<circle class="st7" cx="918.5" cy="72.5" r="9.5"/>
</g>
<g id="图层_3">
	<path class="st5" d="M859,91c6.91,6.92,19.24,21.25,25,43c2.9,10.94,3.32,20.66,3,28"/>
	<path class="st5" d="M941,118c-3.78-0.39-16.38-1.22-28,7c-18.88,13.35-17.11,37.79-17,39"/>
	<g>
		<path class="st6" d="M874.84,144.37c-8.45,0-17.3-2.09-24.29-5.72c-7.04-3.67-11.16-8.27-14.46-11.97c-3.51-3.92-4.94-5.3-7.2-5.3
			l-0.18,0c-2.85,0.09-4.86,2.27-7.91,5.82c-3.52,4.1-7.9,9.19-15.49,9.57c-0.29,0.01-0.58,0.02-0.87,0.02
			c-11.49,0-25.1-11.34-25.44-25.96c-0.24-10.59,6.89-21.11,16.96-25.03c2.54-0.99,5.18-1.49,7.87-1.49c4.41,0,8.18,1.29,11.52,2.43
			c2.32,0.79,4.51,1.54,6.18,1.54c0,0,0,0,0,0c0.8,0,1.46-0.17,2.12-0.55c1.66-0.95,2.41-4.33,4.76-15.93
			c0.7-3.44,1.52-7.52,2.56-12.37c5.02-23.52,6.91-27.92,11.27-31.84c5.29-4.76,13.36-7.59,21.58-7.59c8.34,0,15.21,2.91,18.37,7.79
			c3.5,5.41,1.45,10.61-1.65,18.49c-1.64,4.17-3.68,9.36-5.87,16.48c-4.42,14.4-9,29.29-5.26,33.12c0.48,0.49,1.32,1.05,3.59,1.05
			c2.14,0,4.75-0.49,7.51-1.01c3.25-0.61,6.61-1.25,9.98-1.25c4.97,0,8.89,1.4,11.98,4.29c8.41,7.86,7.28,24.07,0.65,33.31
			C897.59,139.96,887.29,144.37,874.84,144.37z"/>
		<path d="M863.81,25c6.22,0,11.84,1.91,14.17,5.5c3.31,5.11-1.93,10.68-8.1,30.79c-5.6,18.23-9.87,32.13-4.05,38.08
			c1.88,1.92,4.36,2.55,7.17,2.55c5.31,0,11.78-2.26,17.48-2.26c3.21,0,6.18,0.71,8.57,2.95c6.18,5.78,5.56,18.98,0,26.74
			c-5.02,6.99-14.4,10.02-24.2,10.02c-7.7,0-15.66-1.87-21.98-5.16c-13.22-6.88-15.09-17.83-23.97-17.83c-0.11,0-0.22,0-0.33,0
			c-10.44,0.31-12.66,14.86-23.5,15.39c-0.21,0.01-0.41,0.02-0.62,0.02c-9.03,0-20.18-9.5-20.44-21.08
			c-0.21-9.05,6.27-17.33,13.77-20.25c2.12-0.83,4.13-1.15,6.05-1.15c6.75,0,12.37,3.98,17.7,3.98c1.55,0,3.08-0.34,4.61-1.21
			c4.63-2.65,4.6-7.58,9.72-31.6c4.91-23.02,6.62-26.38,9.72-29.17C850.34,27.02,857.4,25,863.81,25 M863.81,15L863.81,15
			c-9.57,0-18.65,3.24-24.93,8.88c-5.61,5.05-7.77,10.85-12.82,34.52c-1.04,4.88-1.89,9.06-2.57,12.42
			c-1.08,5.36-2.05,10.11-2.77,12.36c-1.02-0.22-2.52-0.73-3.77-1.16c-3.52-1.2-7.9-2.7-13.14-2.7c-3.31,0-6.56,0.62-9.68,1.83
			c-11.96,4.65-20.44,17.19-20.14,29.8c0.19,8.03,3.73,15.79,9.98,21.84c5.92,5.73,13.37,9.01,20.46,9.01
			c0.37,0,0.75-0.01,1.12-0.03c9.73-0.48,15.33-7,19.03-11.31c1.35-1.57,3.38-3.93,4.21-4.07c0.77,0.49,2.38,2.29,3.57,3.62
			c3.39,3.79,8.04,8.98,15.88,13.07c7.79,4.06,17.23,6.29,26.6,6.29c14.07,0,25.85-5.17,32.33-14.19
			c7.86-10.94,9.26-30.01-1.3-39.87c-4.01-3.74-9.18-5.64-15.39-5.64c-3.84,0-7.59,0.71-10.91,1.33c-2.47,0.47-4.81,0.91-6.47,0.93
			c-0.11-1.08-0.11-3.35,0.75-7.61c1.11-5.51,3.19-12.27,5.59-20.09c2.13-6.94,4.14-12.03,5.74-16.12
			c3.27-8.3,6.09-15.47,1.19-23.04C882.23,18.67,874.01,15,863.81,15L863.81,15z"/>
	</g>
	<circle class="st7" cx="843.5" cy="102.5" r="10.5"/>
	<g>
		<path class="st6" d="M943.37,179.89c-10.44,0-23.74-6.81-26.89-16.95c-2.22-7.14,1.34-12.87,4.48-17.94
			c2.89-4.66,5.38-8.68,4.45-13.91c-0.72-4.05-3.12-6.56-5.67-9.21c-3.07-3.2-6.88-7.18-5.92-13.46
			c1.6-10.42,14.93-17.69,25.9-17.69c0.56,0,1.11,0.02,1.67,0.05c8.43,0.55,13.63,5.2,17.42,8.6c2.71,2.43,4.46,3.92,6.19,3.92
			c0.16,0,0.33-0.01,0.51-0.04c2.6-0.34,4.36-3.35,7.01-8.24c3.26-6.01,7.32-13.49,16.28-16.24c2.2-0.67,4.55-1.02,7-1.02
			c9.36,0,18.48,4.9,23.24,12.47c6.98,11.1,3.63,25.03-3.05,32.5c-7.38,8.24-19.04,9.35-29.48,9.35c-4.09,0-8.26-0.18-12.67-0.38
			c-6.15-0.27-10.4-0.89-13.5-1.34c-1.82-0.26-3.25-0.47-4.18-0.47c-0.62,0-0.7,0.06-0.94,0.25c-3.02,2.39-0.96,11.66,0.68,19.1
			c2.35,10.62,4.78,21.59-2.38,27.46C950.98,178.79,947.48,179.89,943.37,179.89z"/>
		<path d="M995.8,82.78c7.14,0,14.91,3.62,19,10.13c5.38,8.57,3.14,20.16-2.55,26.51c-5.66,6.32-14.96,7.68-25.76,7.68
			c-3.98,0-8.16-0.18-12.45-0.37c-9.92-0.44-14.71-1.82-17.91-1.82c-1.6,0-2.8,0.35-4.04,1.33c-10.71,8.49,8.02,38.6-1.76,46.61
			c-1.71,1.4-4.18,2.03-6.97,2.03c-8.4,0-19.72-5.72-22.12-13.43c-3.19-10.27,11.53-17.49,9.07-31.24
			c-1.97-11.07-12.75-13.32-11.56-21.03c1.09-7.07,11.41-13.45,20.96-13.45c0.45,0,0.9,0.01,1.34,0.04
			c12.36,0.8,15.79,12.52,23.94,12.52c0.38,0,0.76-0.03,1.16-0.08c10.84-1.42,10.5-20.48,24.1-24.66
			C992.01,83.04,993.88,82.78,995.8,82.78 M995.8,72.78L995.8,72.78c-2.95,0-5.8,0.42-8.47,1.24c-10.91,3.35-15.7,12.19-19.2,18.64
			c-0.94,1.74-2.29,4.22-3.23,5.35c-0.79-0.58-1.93-1.6-2.75-2.33c-4.09-3.66-10.28-9.2-20.43-9.86c-0.65-0.04-1.32-0.06-1.99-0.06
			c-13.27,0-28.83,8.81-30.84,21.93c-1.34,8.73,4.04,14.33,7.25,17.68c2.49,2.59,3.92,4.18,4.35,6.62
			c0.57,3.19-0.98,5.89-3.78,10.39c-3.33,5.38-7.9,12.74-5,22.05c3.93,12.64,19.5,20.46,31.67,20.46c5.27,0,9.88-1.49,13.31-4.3
			c9.54-7.82,6.65-20.88,4.09-32.41c-0.79-3.57-2.14-9.64-2.13-12.99c0.32,0.05,0.64,0.09,0.96,0.14c3.21,0.47,7.6,1.1,14,1.39
			c4.27,0.19,8.69,0.38,12.89,0.38c11.54,0,24.52-1.31,33.21-11.01c7.91-8.83,11.84-25.32,3.56-38.5
			C1017.62,78.59,1006.83,72.78,995.8,72.78L995.8,72.78z"/>
	</g>
	<circle class="st7" cx="943.12" cy="114.06" r="8"/>
</g>
<g id="图层_4">
	<path class="st5" d="M973,42c-15.01,15.27-32.84,36.38-49,64c-11.93,20.38-20.2,39.59-26,56"/>
	<g>
		<path class="st6" d="M990.68,104.55c-13.83,0-23.46-17.29-26.29-28.19c-1.63-6.29-1.36-11.32-1.17-14.99
			c0.14-2.62,0.19-4.36-0.26-4.75c-0.13-0.11-0.39-0.32-1.26-0.32c-1.51,0-3.65,0.62-5.91,1.27c-3.02,0.88-6.45,1.87-10.03,1.87
			c-3.13,0-5.99-0.78-8.48-2.31c-8.6-5.29-12.28-19.27-7.42-28.22c3.17-5.83,8.32-6.92,16.13-8.57c4.17-0.88,9.35-1.98,16.34-4.03
			c5.59-1.64,9.97-3.2,13.48-4.46c5.08-1.81,8.44-3.01,11.5-3.01c2.46,0,4.58,0.79,6.29,2.34c4.68,4.24,3.25,10.87,2.1,16.2
			c-0.65,3.01-1.63,7.57-0.49,8.7c0.11,0.11,0.3,0.3,1.3,0.3c0.98,0,2.22-0.2,3.55-0.41c1.67-0.27,3.57-0.57,5.55-0.57
			c3.27,0,6.02,0.83,8.4,2.52c11.31,8.06,7,30.94,0.33,44.6c-3.2,6.54-10.68,21.86-23.46,22.03L990.68,104.55z"/>
		<path d="M987.32,13.83c1.19,0,2.13,0.32,2.93,1.05c5.26,4.77-4.51,18.83,1.45,24.74c1.36,1.35,3.01,1.76,4.82,1.76
			c2.81,0,6.01-0.98,9.1-0.98c1.91,0,3.79,0.38,5.5,1.6c8.19,5.84,5,25.51-1.26,38.34c-2.8,5.74-9.33,19.1-19.03,19.22
			c-0.05,0-0.09,0-0.14,0c-9.83,0-18.63-13.59-21.45-24.44c-3.06-11.81,1.46-18.51-3.06-22.31c-1.3-1.09-2.82-1.5-4.48-1.5
			c-4.64,0-10.44,3.14-15.94,3.14c-2.01,0-3.99-0.42-5.86-1.57c-6.39-3.93-9.22-14.99-5.64-21.58c3.22-5.92,9.49-4.32,29.49-10.19
			C976.88,17.24,983.43,13.83,987.32,13.83 M987.32,3.83c-3.92,0-7.6,1.31-13.18,3.3c-3.46,1.23-7.76,2.77-13.21,4.37
			c-6.81,2-11.89,3.07-15.97,3.94c-8.17,1.73-15.22,3.22-19.49,11.08c-6.12,11.26-1.65,28.2,9.19,34.87
			c3.29,2.02,7.02,3.05,11.1,3.05c4.29,0,8.24-1.14,11.42-2.06c0.32-0.09,0.66-0.19,1.01-0.29c-0.18,3.75-0.3,9.08,1.37,15.53
			c1.83,7.07,5.46,14.37,9.95,20.01c6.21,7.8,13.53,11.93,21.18,11.93l0.26,0c15.86-0.2,24.29-17.46,27.89-24.83
			c3.84-7.85,6.4-17.11,7.04-25.41c1.15-14.95-4.24-22.09-8.95-25.46c-3.21-2.29-7.02-3.45-11.3-3.45c-2.02,0-3.92,0.25-5.53,0.5
			c0.17-0.88,0.36-1.77,0.51-2.47c1.27-5.88,3.18-14.78-3.63-20.96C995.14,5.81,991.97,3.83,987.32,3.83L987.32,3.83z"/>
	</g>
	<circle class="st7" cx="974.24" cy="45.89" r="5.22"/>
	<path class="st5" d="M822,379c28.58,13.18,51.56,14.83,67.05,14c47.38-2.54,70.27-30.72,119.67-28c18.77,1.03,33.85,6.11,43.28,10"
		/>
	<g>
		<path class="st6" d="M1031.25,407.46c-7.8,0-14.73-2.97-19.02-8.14c-4.9-5.91-7.62-15.94-3.02-22.87c3.19-4.8,7.98-5.46,11.84-6
			c3.48-0.48,5.71-0.88,7.75-2.91c3.33-3.31,4.68-9.83,2.93-14.23c-0.87-2.21-2.32-3.28-3.99-4.52c-2.01-1.5-5.06-3.76-5.15-8.03
			c-0.06-2.91,1.27-5.78,3.97-8.53c5.48-5.6,15.92-9.99,23.77-9.99c3.97,0,7.21,1.05,9.62,3.12c4.46,3.83,3.99,9.08,3.54,14.16
			c-0.43,4.81-0.96,10.79,1.93,18.28c1.59,4.13,3.77,9.79,7.9,11.32c0.74,0.28,1.52,0.41,2.36,0.41c1.98,0,4.15-0.74,6.25-1.46
			c2.28-0.77,4.63-1.58,7.07-1.58c2.3,0,4.33,0.7,6.03,2.08c6.19,5.03,3.65,15.41,2.28,19.64c-0.5,1.54-5.22,15.16-16.14,16.92
			c-0.74,0.12-1.49,0.18-2.23,0.18h0c-6.31,0-10.86-4.11-14.87-7.74c-2.57-2.33-5.23-4.73-7.13-4.73c-0.18,0-0.35,0.02-0.53,0.06
			c-0.63,0.14-0.89,0.37-2.27,2.49c-1.58,2.45-3.75,5.8-8.53,8.49C1041.48,406.18,1036.39,407.46,1031.25,407.46z"/>
		<path d="M1050.32,327.23c2.56,0,4.8,0.57,6.36,1.91c5.38,4.62-2.13,14.4,4.06,30.45c1.86,4.82,4.58,11.9,10.83,14.21
			c1.39,0.52,2.76,0.72,4.1,0.72c5.14,0,9.77-3.04,13.33-3.04c1.06,0,2.02,0.27,2.87,0.96c4.19,3.41,0.99,13.25,0.68,14.21
			c-0.25,0.77-4.14,12.24-12.18,13.53c-0.49,0.08-0.96,0.12-1.43,0.12c-8.57,0-14.18-12.47-22-12.47c-0.52,0-1.06,0.06-1.6,0.18
			c-5.54,1.21-4.76,7.33-12.18,11.5c-3.35,1.88-7.61,2.95-11.89,2.95c-5.73,0-11.5-1.91-15.17-6.33
			c-3.68-4.44-5.86-12.16-2.71-16.91c3.92-5.91,12.36-1.58,18.94-8.12c4.9-4.87,6.49-13.49,4.06-19.62
			c-2.65-6.7-8.71-6.96-8.8-10.83C1027.45,334.82,1040.99,327.23,1050.32,327.23 M1050.32,317.23L1050.32,317.23
			c-9.18,0-20.94,4.94-27.34,11.49c-4.57,4.68-5.46,9.18-5.39,12.14c0.15,6.72,4.89,10.24,7.17,11.93c1.6,1.19,2.01,1.55,2.32,2.35
			c1.03,2.6,0.15,6.9-1.81,8.85c-0.84,0.84-1.8,1.07-4.91,1.5c-4.07,0.56-10.88,1.51-15.32,8.19c-6,9.04-2.86,21.34,3.34,28.82
			c5.24,6.33,13.58,9.95,22.87,9.95c5.98,0,11.95-1.51,16.8-4.24c5.34-3.01,8.11-6.83,9.81-9.42c0.93,0.74,2.01,1.72,2.84,2.47
			c4.22,3.81,9.99,9.03,18.23,9.03c1.01,0,2.02-0.08,3.02-0.24c13.55-2.18,19.12-17.3,20.1-20.31c3.58-11.01,2.17-20.14-3.88-25.06
			c-2.58-2.1-5.75-3.2-9.18-3.2c-3.27,0-6.15,0.98-8.69,1.84c-1.72,0.59-3.49,1.19-4.64,1.19c-0.32,0-0.49-0.05-0.62-0.1
			c-2.01-0.74-3.93-5.74-4.97-8.43c-2.47-6.41-2.03-11.3-1.61-16.04c0.48-5.44,1.15-12.89-5.26-18.4
			C1060.9,319.58,1056.8,317.23,1050.32,317.23L1050.32,317.23z"/>
	</g>
	<circle class="st7" cx="1052.62" cy="375.82" r="7.44"/>
</g>
</svg>
