<?xml version="1.0" encoding="utf-8"?>
<!-- Generator: Adobe Illustrator 27.5.0, SVG Export Plug-In . SVG Version: 6.00 Build 0)  -->
<svg version="1.1" id="图层_1" xmlns="http://www.w3.org/2000/svg" xmlns:xlink="http://www.w3.org/1999/xlink" x="0px" y="0px"
	 viewBox="0 0 450 450" style="enable-background:new 0 0 450 450;" xml:space="preserve">
<style type="text/css">
	.st0{fill:none;stroke:#000000;stroke-width:10;stroke-miterlimit:10;}
	.st1{stroke:#000000;stroke-miterlimit:10;}
	.st2{fill:none;stroke:#000000;stroke-miterlimit:10;}
	.st3{fill:#FFFFFF;}
	.st4{fill:none;stroke:#000000;stroke-width:5;stroke-miterlimit:10;}
</style>
<polyline class="st0" points="352.5,50.5 352.5,312.3 250.5,312.5 250.5,105.5 "/>
<polyline class="st0" points="392.33,76.5 392.33,312.3 352.5,312.3 352.5,50.5 "/>
<line class="st0" x1="310.5" y1="312.5" x2="309.5" y2="377.5"/>
<ellipse class="st1" cx="308.5" cy="412" rx="23" ry="34.5"/>
<line class="st0" x1="296.5" y1="9.5" x2="394" y2="79"/>
<polyline class="st0" points="390,77 424.03,77 424.43,76.84 337,11 336.5,10.5 297,10 297,10 227.5,152.5 250.5,145.5 "/>
<ellipse cx="297.21" cy="81.35" rx="11.29" ry="16.93"/>
<polyline class="st0" points="317.5,218.5 297.5,199.5 297.5,152.5 "/>
<line class="st0" x1="297" y1="10" x2="296" y2="9"/>
<ellipse class="st1" cx="314.5" cy="412" rx="23" ry="34.5"/>
<line class="st2" x1="301.5" y1="379.5" x2="317.5" y2="377.5"/>
<line class="st2" x1="308.5" y1="446.5" x2="317.5" y2="446.5"/>
<path d="M53.5,48.5c-0.55-3.81,33.32-18.12,44-7c8.25,8.59-2.29,27.19,7,34c5.77,4.23,14.6,0.55,15,2c0.68,2.45-12.67,11.77-29,13
	c-15.46,1.16-34.49-4.87-36-14c-1.49-8.98,14.7-16.73,12-23C64.43,48.7,53.8,50.6,53.5,48.5z"/>
<circle class="st3" cx="87" cy="49" r="5"/>
<polyline class="st4" points="98,63.99 115.5,49 140.13,69 161.38,54 194.78,72 215.02,56 238.3,72 261.91,60.5 297.21,81.35 "/>
</svg>
