<?xml version="1.0" encoding="utf-8"?>
<!-- Generator: Adobe Illustrator 27.5.0, SVG Export Plug-In . SVG Version: 6.00 Build 0)  -->
<svg version="1.1" id="图层_1" xmlns="http://www.w3.org/2000/svg" xmlns:xlink="http://www.w3.org/1999/xlink" x="0px" y="0px"
	 viewBox="0 0 1800 800" style="enable-background:new 0 0 1800 800;" xml:space="preserve">
<style type="text/css">
	.st0{display:none;}
	.st1{display:inline;fill:#FFFFFF;stroke:#000000;stroke-width:10;stroke-miterlimit:10;}
	.st2{display:inline;fill:#FFFFFF;stroke:#000000;stroke-width:10;stroke-linejoin:bevel;stroke-miterlimit:10;}
	.st3{display:inline;fill:none;stroke:#000000;stroke-width:10;stroke-miterlimit:10;}
	.st4{fill:#FFFFFF;stroke:#000000;stroke-width:10;stroke-miterlimit:10;}
	.st5{fill:none;stroke:#000000;stroke-width:10;stroke-miterlimit:10;}
	.st6{fill:#FF8D1A;}
	.st7{fill:#FFFFFF;}
</style>
<g id="图层_1_00000056414633744945628220000016445369573495074239_" class="st0">
	<rect x="1002.96" y="316.39" class="st1" width="33.06" height="317.35"/>
	<rect x="758.6" y="316.39" class="st1" width="33.06" height="317.35"/>
	<polyline class="st1" points="725.69,407.12 725.69,442.9 1069.43,442.9 1069.43,408.15 	"/>
	<rect x="725.49" y="442.9" class="st1" width="33.06" height="317.35"/>
	<rect x="1036.19" y="443.06" class="st1" width="33.06" height="317.35"/>
	<rect x="758.1" y="38.91" class="st1" width="277.68" height="277.68"/>
	<path class="st2" d="M1075.47,429.77"/>
	<polyline class="st2" points="725.25,412.16 758.92,316.59 1036.1,316.59 1069.27,411.95 	"/>
	<line class="st3" x1="1069.43" y1="411.89" x2="724.49" y2="411.89"/>
	<path class="st1" d="M535,97"/>
</g>
<path class="st4" d="M877,154c0.89-2.6,6.23-18.12,18-19c7.59-0.57,15.36,5.13,18,12c3.69,9.58-3.87,18.1-7,27
	c-10.32,29.36,32.01,50.36,41,98c4.78,25.33,0.98,62.68-23,79c-15.33,10.43-42.47,14.7-56,2c-29.83-28,26.3-119.95,10-169
	C876.97,180.9,872.26,167.78,877,154z"/>
<path class="st5" d="M878,148.87c2.97,15.14,16.63,22.27,25,19.13c6.34-2.38,10.85-11.1,10-21"/>
<path class="st5" d="M897,166c-0.73-13.53-0.16-33.83,7-57c5.08-16.44,11.99-29.51,18-39"/>
<g>
	<path class="st6" d="M943.76,112.77c-4.22,0-8.36-1.16-12.28-3.45c-2.47-1.44-4.98-3.46-7.63-5.6c-5.25-4.23-11.19-9.03-16.78-9.03
		c-1.39,0-2.71,0.29-4.06,0.88c-5.94,2.63-9.2,5.82-12.08,8.64c-2.96,2.9-6.02,5.9-10.74,5.9c-0.71,0-1.43-0.07-2.16-0.21
		c-8.26-1.6-14.14-10.78-16.89-18.83c-2.85-8.37-3.8-19.69,2.09-26.39c2.86-3.25,6.78-4.84,11.99-4.84c2.71,0,5.55,0.42,8.3,0.82
		c2.7,0.4,5.5,0.81,8.08,0.81c3.57,0,6.14-0.76,8.34-2.45c5.48-4.22,5.73-12.79,5.97-21.09c0.27-9.35,0.55-19.02,8.73-23.37
		c2.26-1.2,4.89-1.81,7.82-1.81c11.3,0,26.05,9.42,26.52,20.01c0.29,6.4-4.44,9.89-8.25,12.7c-3.32,2.44-5.36,4.1-5.85,6.51
		c-0.67,3.32,3.11,5.71,11.29,9.99c10.49,5.5,24.86,13.03,20.68,31.15C964.2,104.69,954.7,112.77,943.76,112.77z"/>
	<path d="M922.47,17.77c9.23,0,21.21,8.07,21.53,15.23c0.34,7.46-12.2,9.03-14,18c-3.34,16.6,37.95,15.2,32,41
		c-2.19,9.48-9.69,15.77-18.24,15.77c-3.18,0-6.5-0.87-9.76-2.77c-7.12-4.16-16.4-15.31-26.92-15.31c-1.98,0-4.01,0.4-6.08,1.31
		c-12.85,5.68-15.13,14.12-20.79,14.12c-0.39,0-0.79-0.04-1.21-0.12c-11.3-2.19-20-27.91-12-37c2.12-2.42,4.97-3.14,8.23-3.14
		c4.88,0,10.69,1.62,16.38,1.62c3.97,0,7.89-0.79,11.39-3.48c14.1-10.85,2.27-37.77,14-44C918.6,18.15,920.47,17.77,922.47,17.77
		 M922.47,7.77c-3.75,0-7.17,0.81-10.17,2.4c-10.74,5.7-11.09,17.86-11.38,27.63c-0.21,7.13-0.42,14.5-4.03,17.27
		c-0.91,0.7-2.24,1.41-5.29,1.41c-2.22,0-4.72-0.37-7.36-0.75c-2.92-0.43-5.94-0.87-9.02-0.87c-6.63,0-11.93,2.2-15.74,6.53
		c-6.2,7.05-7.35,18.75-3.07,31.3c4.14,12.15,11.87,20.41,20.67,22.12c1.04,0.2,2.08,0.3,3.11,0.3c6.76,0,10.91-4.07,14.24-7.33
		c2.7-2.64,5.48-5.38,10.6-7.64c0.7-0.31,1.35-0.45,2.03-0.45c3.82,0,9.26,4.39,13.64,7.92c2.8,2.26,5.45,4.39,8.24,6.03
		c4.63,2.7,9.75,4.13,14.8,4.13c13.28,0,24.79-9.67,27.99-23.52c2.22-9.63-0.02-18.37-6.46-25.27c-4.84-5.18-11.18-8.5-16.77-11.43
		c-2.46-1.29-6.78-3.56-8.43-5.04c0.73-0.87,2.62-2.27,3.63-3.01c4-2.95,10.69-7.88,10.27-16.95c-0.3-6.6-4.45-13.01-11.7-18.05
		C936.15,10.22,928.93,7.77,922.47,7.77L922.47,7.77z"/>
</g>
<circle class="st7" cx="918.5" cy="72.5" r="9.5"/>
</svg>
